<svg width="2402" height="964" viewBox="0 0 2402 964" fill="none" xmlns="http://www.w3.org/2000/svg" xmlns:xlink="http://www.w3.org/1999/xlink">
<g clip-path="url(#clip0_3578_2119)">
<rect width="2400.52" height="964" transform="translate(0.507812)" fill="#FF9700"/>
<rect width="2400.52" height="964" transform="translate(0.507812)"/>
<rect x="0.507812" width="2400" height="961.2" fill="url(#paint0_linear_3578_2119)" fill-opacity="0.8"/>
<rect x="0.507812" width="2400" height="961.2"/>
<path d="M1971.51 1107.49C1888.22 1061.19 1745.53 935.669 1841.04 803.924C1960.42 639.242 2050.18 682.754 2379.61 699.381C2643.15 712.683 2656.59 522.935 2630.36 426.398" stroke="#0059C9" stroke-width="74.9188"/>
<path d="M-17.4989 476.779C-85.7784 438.821 -202.762 335.9 -124.462 227.877C-26.5866 92.8476 47.0029 128.525 317.075 142.158C533.132 153.065 544.145 -2.51741 522.644 -81.6719" stroke="#0059C9" stroke-width="74.9188"/>
<path opacity="0.3" d="M1252.28 751.302L1261.24 749.406L1364.64 805.566L1364.65 814.724L1352.09 817.374L1252.29 763.239L1252.28 751.302Z" fill="white"/>
<path opacity="0.3" d="M1364.61 764.97L1364.63 794.965L1275.28 746.435L1314.85 738.062L1364.61 764.97Z" fill="white"/>
<circle cx="1200.5" cy="480.472" r="299.421" stroke="#EFA804" stroke-width="101.93"/>
<path d="M994.942 310.718L982.315 307.269L966.01 330.693L973.628 341.336L963.961 355.224L921.32 293.374L931.977 278.065L1004.84 296.496L994.942 310.718ZM956.958 318.182L967.441 303.124L940.867 295.803L956.958 318.182Z" fill="white"/>
<path d="M994.281 213.435L1004.27 224.464L990.6 236.851L1027.83 277.945L1016.12 288.553L978.891 247.458L965.218 259.845L955.227 248.816L994.281 213.435Z" fill="white"/>
<path d="M1048.99 260.244L1010.8 201.182L1024.07 192.603L1062.25 251.665L1048.99 260.244Z" fill="white"/>
<path d="M1102.12 157.127C1105.67 162.375 1107.02 169.996 1107.4 180.571L1108.82 230.674L1093.8 237.037L1041.02 183.019L1057.26 176.138L1093.21 214.482L1091.83 182.743C1091.45 174.269 1090.01 168.013 1086.91 163.57L1102.12 157.127Z" fill="white"/>
<path d="M1179.24 215.082L1173 203.576L1144.81 207.995L1142.39 220.859L1125.67 223.479L1140.86 149.907L1159.29 147.019L1196.36 212.399L1179.24 215.082ZM1147.58 192.806L1165.71 189.965L1152.62 165.707L1147.58 192.806Z" fill="white"/>
<path d="M1198.74 192.529L1199.21 178.164L1229.36 179.14L1228.9 193.505L1198.74 192.529Z" fill="white"/>
<path d="M1294.48 156.388L1291.48 170.964L1273.41 167.239L1262.21 221.548L1246.74 218.358L1257.93 164.05L1239.86 160.325L1242.87 145.75L1294.48 156.388Z" fill="white"/>
<path d="M1309.34 221.354L1338.01 234.14L1331.95 247.732L1288.85 228.512L1317.49 164.277L1360.13 183.29L1354.07 196.881L1325.86 184.303L1320.71 195.847L1345.85 207.055L1339.79 220.647L1314.65 209.438L1309.34 221.354Z" fill="white"/>
<path d="M1365.63 275.224C1349.07 261.983 1346.37 239.729 1359.3 223.569C1372.22 207.408 1394.52 205.142 1411.08 218.382C1425.25 229.713 1429.3 247.828 1421.91 262.937L1408.78 252.433C1411.09 244.489 1408.6 235.846 1401.59 230.244C1392.28 222.796 1379.53 224.216 1371.95 233.69C1364.38 243.163 1365.8 255.914 1375.11 263.362C1382.12 268.964 1391.1 269.487 1398.34 265.489L1411.48 275.993C1398.36 286.518 1379.8 286.555 1365.63 275.224Z" fill="white"/>
<path d="M1483.25 299.467L1492.34 312.394L1434.79 352.825L1425.71 339.898L1448.56 323.842L1432.33 300.739L1409.47 316.795L1400.39 303.867L1457.94 263.436L1467.02 276.363L1444.5 292.184L1460.74 315.287L1483.25 299.467Z" fill="white"/>
<circle cx="1200.49" cy="480.091" r="82.8184" stroke="#E19E03" stroke-opacity="0.7" stroke-width="25.4826"/>
<path d="M633.104 561.969H664.498V576.851H617.305V506.519H663.989V521.401H633.104V534.04H660.625V548.922H633.104V561.969Z" fill="white"/>
<path d="M730.306 562.479H731.326V576.851H727.147C719.808 576.851 714.915 574.303 712.673 569.308C708.697 574.71 702.785 578.074 695.548 578.074C681.278 578.074 670.473 566.352 670.473 550.859C670.473 535.365 681.278 523.643 695.548 523.643C701.97 523.643 707.372 526.293 711.245 530.574V503.461H726.127V558.299C726.127 560.95 727.656 562.479 730.306 562.479ZM698.504 563.702C705.843 563.702 711.245 558.198 711.245 550.859C711.245 543.52 705.843 538.015 698.504 538.015C691.267 538.015 685.865 543.52 685.865 550.859C685.865 558.198 691.267 563.702 698.504 563.702Z" fill="white"/>
<path d="M791.917 562.479H792.936V576.851H788.757C781.418 576.851 776.526 574.303 774.283 569.308C770.41 575.016 764.702 578.074 757.77 578.074C746.252 578.074 738.607 570.327 738.607 558.503V524.866H753.489V554.018C753.489 559.828 757.159 563.702 762.765 563.702C768.779 563.702 772.856 559.727 772.856 553.815V524.866H787.738V558.299C787.738 560.95 789.267 562.479 791.917 562.479Z" fill="white"/>
<path d="M825.713 578.074C809.71 578.074 797.682 566.352 797.682 550.859C797.682 535.365 809.71 523.643 825.713 523.643C839.678 523.643 850.788 532.715 853.133 545.354H837.333C835.295 540.971 830.912 538.015 825.713 538.015C818.374 538.015 812.972 543.52 812.972 550.859C812.972 558.198 818.374 563.702 825.713 563.702C830.912 563.702 835.295 560.746 837.333 556.363H853.133C850.788 569.002 839.678 578.074 825.713 578.074Z" fill="white"/>
<path d="M918.539 562.479H919.559V576.851H915.379C908.04 576.851 903.148 574.303 900.905 569.308C896.93 574.71 891.018 578.074 883.781 578.074C869.511 578.074 858.706 566.352 858.706 550.859C858.706 535.365 869.511 523.643 883.781 523.643C890.203 523.643 895.605 526.293 899.478 530.574V524.866H914.36V558.299C914.36 560.95 915.889 562.479 918.539 562.479ZM886.737 563.702C894.076 563.702 899.478 558.198 899.478 550.859C899.478 543.52 894.076 538.015 886.737 538.015C879.5 538.015 874.098 543.52 874.098 550.859C874.098 558.198 879.5 563.702 886.737 563.702Z" fill="white"/>
<path d="M952.33 563.702C957.528 563.702 961.911 560.746 963.95 556.363H979.749C977.711 567.371 969.047 575.628 957.63 577.666L955.796 579.807C961.3 580.418 965.377 585.005 965.377 590.815C965.377 597.339 959.975 602.435 952.738 602.435C945.806 602.435 940.608 597.848 940.098 591.733H949.068C949.578 593.364 951.005 594.383 952.738 594.383C954.776 594.383 956.509 592.854 956.509 590.815C956.509 588.777 954.674 587.248 952.738 587.248C951.311 587.248 950.291 587.961 949.782 588.573L941.525 584.903L947.335 577.666C933.881 575.526 924.299 564.721 924.299 550.859C924.299 535.365 936.327 523.643 952.33 523.643C966.294 523.643 977.405 532.715 979.749 545.354H963.95C961.911 540.971 957.528 538.015 952.33 538.015C944.991 538.015 939.589 543.52 939.589 550.859C939.589 558.198 944.991 563.702 952.33 563.702Z" fill="white"/>
<path d="M1010.3 515.183C1008.16 515.183 1006.73 516.814 1006.73 518.75H996.331C996.331 510.188 1000.41 503.461 1008.36 503.461C1014.07 503.461 1016.51 507.232 1019.67 507.232C1021.71 507.232 1023.14 505.703 1023.14 503.665H1033.64C1033.64 512.431 1029.56 518.954 1021.51 518.954C1015.8 518.954 1013.35 515.183 1010.3 515.183ZM1045.16 562.479H1046.18V576.851H1042C1034.66 576.851 1029.76 574.303 1027.52 569.308C1023.55 574.71 1017.63 578.074 1010.4 578.074C996.127 578.074 985.323 566.352 985.323 550.859C985.323 535.365 996.127 523.643 1010.4 523.643C1016.82 523.643 1022.22 526.293 1026.09 530.574V524.866H1040.98V558.299C1040.98 560.95 1042.51 562.479 1045.16 562.479ZM1013.35 563.702C1020.69 563.702 1026.09 558.198 1026.09 550.859C1026.09 543.52 1020.69 538.015 1013.35 538.015C1006.12 538.015 1000.71 543.52 1000.71 550.859C1000.71 558.198 1006.12 563.702 1013.35 563.702Z" fill="white"/>
<path d="M1078.95 578.074C1062.94 578.074 1050.92 566.352 1050.92 550.859C1050.92 535.365 1062.94 523.643 1078.95 523.643C1094.95 523.643 1106.98 535.365 1106.98 550.859C1106.98 566.352 1094.95 578.074 1078.95 578.074ZM1078.95 563.702C1086.29 563.702 1091.69 558.198 1091.69 550.859C1091.69 543.52 1086.29 538.015 1078.95 538.015C1071.61 538.015 1066.21 543.52 1066.21 550.859C1066.21 558.198 1071.61 563.702 1078.95 563.702Z" fill="white"/>
<path d="M1168.76 523.643C1183.14 523.643 1193.84 535.365 1193.84 550.859C1193.84 566.352 1183.14 578.074 1168.76 578.074C1162.34 578.074 1156.94 575.424 1153.07 571.041V596.218H1138.19V524.866H1153.07V530.676C1156.94 526.293 1162.34 523.643 1168.76 523.643ZM1165.81 563.702C1173.15 563.702 1178.55 558.198 1178.55 550.859C1178.55 543.52 1173.15 538.015 1165.81 538.015C1158.47 538.015 1153.07 543.52 1153.07 550.859C1153.07 558.198 1158.47 563.702 1165.81 563.702Z" fill="white"/>
<path d="M1259.77 562.479H1260.79V576.851H1256.61C1249.27 576.851 1244.38 574.303 1242.13 569.308C1238.16 574.71 1232.25 578.074 1225.01 578.074C1210.74 578.074 1199.93 566.352 1199.93 550.859C1199.93 535.365 1210.74 523.643 1225.01 523.643C1231.43 523.643 1236.83 526.293 1240.71 530.574V524.866H1255.59V558.299C1255.59 560.95 1257.12 562.479 1259.77 562.479ZM1227.96 563.702C1235.3 563.702 1240.71 558.198 1240.71 550.859C1240.71 543.52 1235.3 538.015 1227.96 538.015C1220.73 538.015 1215.33 543.52 1215.33 550.859C1215.33 558.198 1220.73 563.702 1227.96 563.702Z" fill="white"/>
<path d="M1319.95 562.479H1322.19V576.851H1318.62C1304.15 576.851 1296.71 568.9 1296.71 555.649C1296.71 551.266 1297.63 546.679 1299.77 542.093L1287.02 540.462L1280.2 576.851H1265.52L1273.47 536.792C1270.61 534.754 1268.88 531.288 1268.88 527.618C1268.88 522.114 1272.75 518.343 1278.56 518.343C1284.07 518.343 1287.94 521.808 1288.45 526.395L1320.56 530.065V533.632C1314.95 541.379 1312 548.106 1312 553.815C1312 559.421 1314.75 562.479 1319.95 562.479Z" fill="white"/>
<path d="M1385.99 562.479H1387V576.851H1382.83C1375.49 576.851 1370.59 574.303 1368.35 569.308C1364.38 574.71 1358.46 578.074 1351.23 578.074C1336.96 578.074 1326.15 566.352 1326.15 550.859C1326.15 535.365 1336.96 523.643 1351.23 523.643C1357.65 523.643 1363.05 526.293 1366.92 530.574V524.866H1381.81V558.299C1381.81 560.95 1383.34 562.479 1385.99 562.479ZM1354.18 563.702C1361.52 563.702 1366.92 558.198 1366.92 550.859C1366.92 543.52 1361.52 538.015 1354.18 538.015C1346.95 538.015 1341.54 543.52 1341.54 550.859C1341.54 558.198 1346.95 563.702 1354.18 563.702Z" fill="white"/>
<path d="M1503.24 562.479H1504.26V576.851H1500.08C1489.58 576.851 1484.18 571.652 1484.18 561.561V547.393C1484.18 541.787 1480.61 538.015 1475.21 538.015C1469.4 538.015 1465.42 541.889 1465.42 547.597V576.851H1450.54V547.393C1450.54 541.787 1446.97 538.015 1441.57 538.015C1435.76 538.015 1431.78 541.889 1431.78 547.597V576.851H1416.9V524.866H1431.78V530.371C1435.55 525.988 1440.55 523.643 1446.56 523.643C1454 523.643 1459.81 527.007 1462.97 532.613C1466.95 526.701 1472.86 523.643 1480.2 523.643C1491.51 523.643 1499.06 531.288 1499.06 542.908V558.299C1499.06 560.95 1500.59 562.479 1503.24 562.479Z" fill="white"/>
<path d="M1564.37 551.062C1564.37 552.388 1564.27 554.426 1563.96 555.649H1524.21C1525.84 561.459 1530.43 565.129 1536.75 565.129C1541.64 565.129 1545.72 563.09 1547.65 560.338H1563.55C1559.68 570.837 1549.28 578.074 1536.44 578.074C1520.34 578.074 1508.31 566.352 1508.31 550.859C1508.31 535.365 1520.34 523.643 1536.34 523.643C1552.24 523.643 1564.37 535.263 1564.37 551.062ZM1536.34 536.486C1530.53 536.486 1526.04 540.054 1524.31 545.762H1548.37C1546.84 540.054 1542.05 536.486 1536.34 536.486Z" fill="white"/>
<path d="M1627.62 562.479H1628.64V576.851H1624.46C1613.96 576.851 1608.56 571.652 1608.56 561.561V548.412C1608.56 542.093 1604.58 538.015 1598.57 538.015C1592.15 538.015 1587.76 542.194 1587.76 548.616V576.851H1572.88V524.866H1587.76V530.574C1591.74 525.988 1597.14 523.643 1603.56 523.643C1615.49 523.643 1623.44 531.492 1623.44 543.418V558.299C1623.44 560.95 1624.97 562.479 1627.62 562.479Z" fill="white"/>
<path d="M1665.49 538.423H1654.18V557.484C1654.18 561.154 1656.42 563.294 1660.29 563.294H1665.49V576.851H1658.05C1645.61 576.851 1639.29 571.041 1639.29 559.93V538.423H1631.45V524.866H1635.83C1638.68 524.866 1640.11 523.439 1640.11 520.585V511.208H1654.18V524.866H1665.49V538.423Z" fill="white"/>
<path d="M1727.22 551.062C1727.22 552.388 1727.12 554.426 1726.81 555.649H1687.06C1688.69 561.459 1693.28 565.129 1699.6 565.129C1704.49 565.129 1708.57 563.09 1710.5 560.338H1726.4C1722.53 570.837 1712.13 578.074 1699.29 578.074C1683.19 578.074 1671.16 566.352 1671.16 550.859C1671.16 535.365 1683.19 523.643 1699.19 523.643C1715.09 523.643 1727.22 535.263 1727.22 551.062ZM1699.19 536.486C1693.38 536.486 1688.89 540.054 1687.16 545.762H1711.22C1709.69 540.054 1704.9 536.486 1699.19 536.486Z" fill="white"/>
<path d="M1764.49 524.866C1766.02 538.219 1784.47 537.71 1784.47 556.669C1784.47 569.308 1776.41 578.074 1762.86 578.074C1755.01 578.074 1748.28 575.118 1743.59 570.429L1741.04 576.851H1725.75L1747.47 524.866H1764.49ZM1760 563.702C1765.4 563.702 1769.18 560.848 1769.18 556.363C1769.18 550.043 1760.31 547.699 1755.72 540.564L1748.59 558.198C1751.03 561.561 1755.21 563.702 1760 563.702Z" fill="white"/>
<path d="M703.825 711.093C687.822 711.093 675.794 699.371 675.794 683.878C675.794 668.384 687.822 656.662 703.825 656.662C717.789 656.662 728.9 665.734 731.244 678.374H715.445C713.406 673.991 709.023 671.035 703.825 671.035C696.486 671.035 691.084 676.539 691.084 683.878C691.084 691.217 696.486 696.721 703.825 696.721C709.023 696.721 713.406 693.765 715.445 689.382H731.244C728.9 702.021 717.789 711.093 703.825 711.093Z" fill="white"/>
<path d="M788.845 695.498H791.088V709.87H787.52C773.046 709.87 765.605 701.919 765.605 688.668C765.605 684.285 766.522 679.699 768.663 675.112L755.922 673.481L749.092 709.87H734.414L742.365 669.811C739.511 667.773 737.778 664.307 737.778 660.638C737.778 655.133 741.651 651.362 747.461 651.362C752.966 651.362 756.839 654.828 757.349 659.414L789.457 663.084V666.652C783.851 674.398 780.895 681.126 780.895 686.834C780.895 692.44 783.647 695.498 788.845 695.498Z" fill="white"/>
<path d="M806.345 651.26C801.146 651.26 797.171 647.387 797.171 642.086C797.171 636.888 801.146 633.014 806.345 633.014C811.645 633.014 815.62 636.888 815.62 642.086C815.62 647.387 811.645 651.26 806.345 651.26ZM798.904 709.87V657.885H813.785V709.87H798.904Z" fill="white"/>
<path d="M882.754 695.498H883.773V709.87H879.594C872.255 709.87 867.363 707.322 865.12 702.327C861.145 707.729 855.233 711.093 847.996 711.093C833.726 711.093 822.921 699.371 822.921 683.878C822.921 668.384 833.726 656.662 847.996 656.662C854.417 656.662 859.82 659.313 863.693 663.594V657.885H878.575V691.319C878.575 693.969 880.104 695.498 882.754 695.498ZM850.952 696.721C858.291 696.721 863.693 691.217 863.693 683.878C863.693 676.539 858.291 671.035 850.952 671.035C843.715 671.035 838.312 676.539 838.312 683.878C838.312 691.217 843.715 696.721 850.952 696.721Z" fill="white"/>
<path d="M921.966 671.442H910.652V690.503C910.652 694.173 912.894 696.313 916.768 696.313H921.966V709.87H914.525C902.09 709.87 895.77 704.06 895.77 692.95V671.442H887.922V657.885H892.305C895.159 657.885 896.586 656.458 896.586 653.604V644.227H910.652V657.885H921.966V671.442Z" fill="white"/>
<path d="M939.133 651.26C933.934 651.26 929.959 647.387 929.959 642.086C929.959 636.888 933.934 633.014 939.133 633.014C944.433 633.014 948.408 636.888 948.408 642.086C948.408 647.387 944.433 651.26 939.133 651.26ZM931.692 709.87V657.885H946.574V709.87H931.692Z" fill="white"/>
<path d="M1005.25 657.885C1006.37 663.797 1005.15 671.34 1001.37 680.514L989.346 709.87H974.057L952.855 657.885H969.878L981.905 691.115L987.002 677.456C989.754 669.506 991.079 663.186 989.958 657.885H1005.25Z" fill="white"/>
<path d="M1069.49 695.498H1070.51V709.87H1066.33C1058.99 709.87 1054.1 707.322 1051.86 702.327C1047.88 707.729 1041.97 711.093 1034.74 711.093C1020.47 711.093 1009.66 699.371 1009.66 683.878C1009.66 668.384 1020.47 656.662 1034.74 656.662C1041.16 656.662 1046.56 659.313 1050.43 663.594V657.885H1065.31V691.319C1065.31 693.969 1066.84 695.498 1069.49 695.498ZM1037.69 696.721C1045.03 696.721 1050.43 691.217 1050.43 683.878C1050.43 676.539 1045.03 671.035 1037.69 671.035C1030.45 671.035 1025.05 676.539 1025.05 683.878C1025.05 691.217 1030.45 696.721 1037.69 696.721Z" fill="white"/>
<path d="M1111.45 657.885C1112.98 671.238 1131.42 670.729 1131.42 689.688C1131.42 702.327 1123.37 711.093 1109.82 711.093C1101.97 711.093 1095.24 708.137 1090.55 703.448L1088 709.87H1072.71L1094.42 657.885H1111.45ZM1106.96 696.721C1112.36 696.721 1116.13 693.867 1116.13 689.382C1116.13 683.062 1107.27 680.718 1102.68 673.583L1095.54 691.217C1097.99 694.58 1102.17 696.721 1106.96 696.721Z" fill="white"/>
<path d="M1214.53 684.082C1214.53 685.407 1214.43 687.445 1214.12 688.668H1174.37C1176 694.479 1180.59 698.148 1186.91 698.148C1191.8 698.148 1195.88 696.109 1197.82 693.357H1213.72C1209.84 703.856 1199.45 711.093 1186.6 711.093C1170.5 711.093 1158.47 699.371 1158.47 683.878C1158.47 668.384 1170.5 656.662 1186.5 656.662C1202.4 656.662 1214.53 668.282 1214.53 684.082ZM1186.5 669.506C1180.69 669.506 1176.21 673.073 1174.47 678.781H1198.53C1197 673.073 1192.21 669.506 1186.5 669.506Z" fill="white"/>
<path d="M1270.41 711.093C1254.41 711.093 1242.38 699.371 1242.38 683.878C1242.38 668.384 1254.41 656.662 1270.41 656.662C1284.38 656.662 1295.49 665.734 1297.83 678.374H1282.03C1280 673.991 1275.61 671.035 1270.41 671.035C1263.08 671.035 1257.67 676.539 1257.67 683.878C1257.67 691.217 1263.08 696.721 1270.41 696.721C1275.61 696.721 1280 693.765 1282.03 689.382H1297.83C1295.49 702.021 1284.38 711.093 1270.41 711.093Z" fill="white"/>
<path d="M1358.76 695.498H1359.77V709.87H1355.6C1348.26 709.87 1343.36 707.322 1341.12 702.327C1337.25 708.035 1331.54 711.093 1324.61 711.093C1313.09 711.093 1305.45 703.346 1305.45 691.523V657.885H1320.33V687.038C1320.33 692.848 1324 696.721 1329.6 696.721C1335.62 696.721 1339.69 692.746 1339.69 686.834V657.885H1354.58V691.319C1354.58 693.969 1356.11 695.498 1358.76 695.498Z" fill="white"/>
<path d="M1418.94 695.498H1421.18V709.87H1417.62C1403.14 709.87 1395.7 701.919 1395.7 688.668C1395.7 684.285 1396.62 679.699 1398.76 675.112L1386.02 673.481L1379.19 709.87H1364.51L1372.46 669.811C1369.61 667.773 1367.88 664.307 1367.88 660.638C1367.88 655.133 1371.75 651.362 1377.56 651.362C1383.06 651.362 1386.94 654.828 1387.45 659.414L1419.55 663.084V666.652C1413.95 674.398 1410.99 681.126 1410.99 686.834C1410.99 692.44 1413.74 695.498 1418.94 695.498Z" fill="white"/>
<path d="M1436.44 651.26C1431.24 651.26 1427.27 647.387 1427.27 642.086C1427.27 636.888 1431.24 633.014 1436.44 633.014C1441.74 633.014 1445.72 636.888 1445.72 642.086C1445.72 647.387 1441.74 651.26 1436.44 651.26ZM1429 709.87V657.885H1443.88V709.87H1429Z" fill="white"/>
<path d="M1480.85 711.093C1464.84 711.093 1452.81 699.371 1452.81 683.878C1452.81 668.384 1464.84 656.662 1480.85 656.662C1496.85 656.662 1508.88 668.384 1508.88 683.878C1508.88 699.371 1496.85 711.093 1480.85 711.093ZM1480.85 696.721C1488.18 696.721 1493.59 691.217 1493.59 683.878C1493.59 676.539 1488.18 671.035 1480.85 671.035C1473.51 671.035 1468.1 676.539 1468.1 683.878C1468.1 691.217 1473.51 696.721 1480.85 696.721Z" fill="white"/>
<path d="M1546.44 657.885C1547.97 671.238 1566.42 670.729 1566.42 689.688C1566.42 702.327 1558.37 711.093 1544.81 711.093C1536.96 711.093 1530.24 708.137 1525.55 703.448L1523 709.87H1507.71L1529.42 657.885H1546.44ZM1541.96 696.721C1547.36 696.721 1551.13 693.867 1551.13 689.382C1551.13 683.062 1542.26 680.718 1537.68 673.583L1530.54 691.217C1532.99 694.58 1537.17 696.721 1541.96 696.721Z" fill="white"/>
<path d="M1631.5 695.498H1632.52V709.87H1628.34C1621.01 709.87 1616.11 707.322 1613.87 702.327C1609.9 707.729 1603.98 711.093 1596.75 711.093C1582.48 711.093 1571.67 699.371 1571.67 683.878C1571.67 668.384 1582.48 656.662 1596.75 656.662C1603.17 656.662 1608.57 659.313 1612.44 663.594V657.885H1627.33V691.319C1627.33 693.969 1628.85 695.498 1631.5 695.498ZM1599.7 696.721C1607.04 696.721 1612.44 691.217 1612.44 683.878C1612.44 676.539 1607.04 671.035 1599.7 671.035C1592.47 671.035 1587.06 676.539 1587.06 683.878C1587.06 691.217 1592.47 696.721 1599.7 696.721Z" fill="white"/>
<path d="M1673.46 657.885C1674.99 671.238 1693.44 670.729 1693.44 689.688C1693.44 702.327 1685.38 711.093 1671.83 711.093C1663.98 711.093 1657.25 708.137 1652.56 703.448L1650.01 709.87H1634.72L1656.43 657.885H1673.46ZM1668.97 696.721C1674.37 696.721 1678.15 693.867 1678.15 689.382C1678.15 683.062 1669.28 680.718 1664.69 673.583L1657.56 691.217C1660 694.58 1664.18 696.721 1668.97 696.721Z" fill="white"/>
<path d="M1702.77 686.426L1701.85 656.866V639.538H1717.55V656.866L1716.63 686.426H1702.77ZM1709.7 710.889C1704.09 710.889 1699.81 706.71 1699.81 701.104C1699.81 695.6 1704.09 691.421 1709.7 691.421C1715.31 691.421 1719.48 695.6 1719.48 701.104C1719.48 706.71 1715.31 710.889 1709.7 710.889Z" fill="white"/>
<path d="M1362.27 181.1L1284.57 138.141L1300.21 83.2605L1377.88 126.267L1362.27 181.1Z" fill="url(#paint1_linear_3578_2119)"/>
<path d="M1466.54 123.324L1450.91 178.191L1362.28 181.107L1377.89 126.274L1466.54 123.324Z" fill="url(#paint2_linear_3578_2119)"/>
<path d="M1388.86 80.3164L1300.2 83.2615L1377.88 126.268L1466.53 123.318L1388.86 80.3164Z" fill="#514E54"/>
<path d="M1372.67 144.458L1229.51 65.2983L1235.64 44.1345L1378.76 123.374L1372.67 144.458Z" fill="url(#paint3_linear_3578_2119)"/>
<path d="M1542.1 117.936L1535.97 139.081L1372.66 144.458L1378.75 123.373L1542.1 117.936Z" fill="url(#paint4_linear_3578_2119)"/>
<path d="M1398.98 38.7112L1235.64 44.1336L1378.76 123.373L1542.11 117.936L1398.98 38.7112Z" fill="url(#paint5_linear_3578_2119)"/>
<path opacity="0.1" d="M1393.59 61.2979L1317.42 63.8265L1384.16 100.78L1460.34 98.246L1393.59 61.2979Z" fill="white"/>
<path d="M1467.5 120.438L1406.64 86.8911L1412.37 86.7021L1390.41 74.5465L1365.35 75.3802L1387.31 87.5381L1393.04 87.3466L1453.48 120.905L1467.5 120.438Z" fill="url(#paint6_linear_3578_2119)"/>
<path d="M1449.95 191.153L1447.43 191.238L1467.5 120.435L1453.48 120.903L1433.36 191.709L1430.89 191.792L1421.86 223.382L1441.01 222.755L1449.95 191.153Z" fill="url(#paint7_linear_3578_2119)"/>
<path d="M648.22 461.647L489.695 428.184L489.801 300.172L648.317 333.706L648.22 461.647Z" fill="#E6E7E8"/>
<path d="M656.12 331.07L655.997 459.069L648.219 461.637L648.316 333.696L656.12 331.07Z" fill="#D1D3D4"/>
<path d="M497.606 297.547L489.797 300.161L648.314 333.695L656.117 331.07L497.606 297.547Z" fill="#F1F2F2"/>
<path d="M639.583 351.936C635.244 351.936 631.724 348.078 631.724 343.32C631.724 342.678 631.793 342.051 631.912 341.451L508.453 315.078C507.936 319.286 504.655 322.531 500.674 322.531C500.573 322.531 500.475 322.517 500.374 322.516L500.297 411.286C500.42 411.28 500.546 411.267 500.673 411.267C505.011 411.267 508.532 415.121 508.532 419.883C508.532 420.308 508.495 420.726 508.441 421.136L631.912 447.442C632.68 443.575 635.823 440.673 639.583 440.673C639.669 440.673 639.755 440.685 639.847 440.687L639.912 351.92C639.805 351.924 639.696 351.936 639.583 351.936Z" fill="white"/>
<path d="M578.194 390.021L560.141 379.625L544.297 431.904L555.002 428.941L562.357 442.29L578.194 390.021Z" fill="#FC4353"/>
<path d="M576.066 386.375L555.273 387.682L570.955 440.01L578.241 431.628L591.746 438.694L576.066 386.375Z" fill="#FC4353"/>
<path d="M568.921 350.397C583.012 354.026 594.461 372.102 594.503 390.738C594.547 409.394 583.175 421.569 569.088 417.934C555.018 414.306 543.57 396.254 543.524 377.598C543.479 358.959 554.851 346.769 568.921 350.397Z" fill="url(#paint8_linear_3578_2119)"/>
<path d="M567.988 365.625L572.482 378.829L582.616 383.2L575.267 390.682L577.089 404.363L568.061 395.783L559.058 399.867L560.817 387.079L553.43 375.925L563.552 376.604L567.988 365.625Z" fill="#FBB040"/>
<path opacity="0.3" d="M555.353 409.075C552.688 406.131 550.355 402.644 548.487 398.792L591.649 374.59C593.077 378.595 594.014 382.857 594.359 387.205L555.353 409.075ZM575.299 353.094L544.081 370.594C543.711 372.804 543.52 375.14 543.523 377.591C543.535 382.606 544.378 387.575 545.871 392.232L588.834 368.141C585.425 361.679 580.705 356.329 575.299 353.094Z" fill="white"/>
<path d="M1784.47 914.622L1772.55 911.851L1772.56 884.844L1784.47 887.617L1784.47 914.622Z" fill="#38353C"/>
<path d="M1796.12 883.906L1796.11 910.914L1784.48 914.631L1784.48 887.626L1796.12 883.906Z" fill="#434047"/>
<path d="M1784.22 881.117L1772.58 884.846L1784.49 887.619L1796.13 883.9L1784.22 881.117Z" fill="#514E54"/>
<path d="M1784.43 886.45L1776.71 884.653L1776.72 865.312L1784.43 867.114L1784.43 886.45Z" fill="#38353C"/>
<path d="M1791.96 864.695L1791.95 884.032L1784.41 886.442L1784.42 867.106L1791.96 864.695Z" fill="#434047"/>
<path d="M1784.27 862.898L1776.73 865.307L1784.44 867.109L1791.98 864.698L1784.27 862.898Z" fill="#514E54"/>
<path d="M1785.78 805.918C1799.98 809.575 1811.52 827.803 1811.57 846.597C1811.61 865.408 1800.15 877.687 1785.94 874.023C1771.75 870.366 1760.21 852.157 1760.16 833.347C1760.11 814.55 1771.59 802.258 1785.78 805.918Z" fill="#17ADAD"/>
<path d="M1790.7 812.065L1775.2 806.203L1769.06 807.939L1768.37 809.26L1781.14 814.56L1795.47 828.17C1795.47 828.17 1800.77 839.795 1800.25 847.896C1799.73 856.002 1794.23 869.47 1794.23 869.47L1788.18 876.099L1796.88 873.617L1797.7 870.264L1806.17 847.484L1790.7 812.065Z" fill="#17ADAD"/>
<path d="M1777.65 808.206C1791.86 811.867 1803.4 830.091 1803.44 848.889C1803.49 867.704 1792.02 879.978 1777.82 876.318C1763.63 872.654 1752.09 854.452 1752.04 835.639C1751.99 816.841 1763.46 804.55 1777.65 808.206Z" fill="#22BCC4"/>
<path d="M1776.63 815.186C1787.67 818.034 1796.62 832.183 1796.66 846.776C1796.7 861.381 1787.79 870.915 1776.76 868.069C1765.75 865.229 1756.79 851.092 1756.75 836.487C1756.71 821.894 1765.62 812.35 1776.63 815.186Z" fill="#A4DDDD"/>
<path opacity="0.3" d="M1780.01 837.162C1780.01 847.568 1777.88 856 1771.41 856C1764.94 856 1759.7 847.568 1759.7 837.162C1759.7 826.76 1764.94 818.328 1771.41 818.328C1777.88 818.328 1780.01 826.76 1780.01 837.162Z" fill="white"/>
<path d="M1730.34 912.879L1715.1 909.33L1715.12 871.148L1730.35 874.705L1730.34 912.879Z" fill="#38353C"/>
<path d="M1745.24 869.938L1745.23 908.115L1730.34 912.874L1730.35 874.7L1745.24 869.938Z" fill="#434047"/>
<path d="M1730.01 866.391L1715.12 871.151L1730.35 874.708L1745.24 869.945L1730.01 866.391Z" fill="#514E54"/>
<path d="M1730.29 873.2L1720.41 870.903L1720.42 846.164L1730.29 848.468L1730.29 873.2Z" fill="#38353C"/>
<path d="M1739.94 845.383L1739.93 870.119L1730.28 873.205L1730.29 848.472L1739.94 845.383Z" fill="#434047"/>
<path d="M1730.08 843.078L1720.43 846.165L1730.3 848.469L1739.95 845.38L1730.08 843.078Z" fill="#514E54"/>
<path d="M1732.03 770.183C1750.2 774.867 1764.96 798.184 1765.02 822.224C1765.08 846.288 1750.41 861.989 1732.24 857.307C1714.09 852.626 1699.33 829.336 1699.27 805.274C1699.2 781.233 1713.88 765.504 1732.03 770.183Z" fill="#EF2E45"/>
<path d="M1738.33 778.055L1718.5 770.555L1710.65 772.778L1709.76 774.468L1726.1 781.246L1744.43 798.653C1744.43 798.653 1751.21 813.535 1750.55 823.895C1749.88 834.259 1742.84 851.483 1742.84 851.483L1735.11 859.961L1746.23 856.792L1747.27 852.503L1758.12 823.364L1738.33 778.055Z" fill="#EF2E45"/>
<path d="M1721.63 773.122C1739.8 777.804 1754.57 801.117 1754.62 825.157C1754.69 849.225 1740.02 864.926 1721.85 860.24C1703.7 855.559 1688.93 832.269 1688.88 808.207C1688.81 784.168 1703.48 768.438 1721.63 773.122Z" fill="url(#paint9_linear_3578_2119)"/>
<path d="M1720.32 782.054C1734.44 785.689 1745.9 803.788 1745.94 822.457C1745.99 841.142 1734.6 853.332 1720.49 849.698C1706.4 846.059 1694.93 827.978 1694.89 809.297C1694.84 790.628 1706.24 778.421 1720.32 782.054Z" fill="#A4DDDD"/>
<path opacity="0.3" d="M1724.64 810.159C1724.64 823.468 1721.91 834.255 1713.64 834.255C1705.38 834.255 1698.66 823.468 1698.66 810.159C1698.66 796.854 1705.38 786.062 1713.64 786.062C1721.91 786.062 1724.64 796.854 1724.64 810.159Z" fill="white"/>
<path d="M553.357 916.896L456.609 895.318L456.732 769.305L553.465 790.958L553.357 916.896Z" fill="#D1D3D4"/>
<path d="M571.3 784.875L571.157 910.877L553.352 916.896L553.459 790.958L571.3 784.875Z" fill="#E6E7E8"/>
<path d="M474.568 763.227L456.727 769.298L553.459 790.951L571.301 784.868L474.568 763.227Z" fill="#F1F2F2"/>
<path d="M542.126 835.491L542.151 803.381L467.941 786.766L467.914 818.88L542.126 835.491Z" fill="url(#paint10_linear_3578_2119)"/>
<path d="M477.666 846.715L463.734 843.877L463.826 831.234L477.743 834.138L477.666 846.715Z" fill="#E6E7E8"/>
<path d="M481.48 832.922L481.376 845.547L477.672 846.716L477.749 834.139L481.48 832.922Z" fill="#D1D3D4"/>
<path d="M467.552 830.031L463.82 831.233L477.737 834.136L481.468 832.919L467.552 830.031Z" fill="#F1F2F2"/>
<path d="M477.666 868.465L463.734 865.625L463.826 852.984L477.743 855.886L477.666 868.465Z" fill="#E6E7E8"/>
<path d="M481.48 854.664L481.376 867.289L477.672 868.456L477.749 855.877L481.48 854.664Z" fill="#D1D3D4"/>
<path d="M467.552 851.773L463.82 852.979L477.737 855.88L481.468 854.667L467.552 851.773Z" fill="#F1F2F2"/>
<path d="M477.666 890.191L463.734 887.351L463.826 874.711L477.743 877.616L477.666 890.191Z" fill="#E6E7E8"/>
<path d="M481.48 876.406L481.376 889.035L477.672 890.198L477.749 877.623L481.48 876.406Z" fill="#D1D3D4"/>
<path d="M467.552 873.516L463.82 874.717L477.737 877.622L481.468 876.406L467.552 873.516Z" fill="#F1F2F2"/>
<path d="M497.213 851.059L483.289 848.219L483.379 835.578L497.296 838.472L497.213 851.059Z" fill="#E6E7E8"/>
<path d="M501.026 837.25L500.917 849.879L497.211 851.046L497.293 838.459L501.026 837.25Z" fill="#D1D3D4"/>
<path d="M487.11 834.359L483.375 835.565L497.292 838.459L501.025 837.249L487.11 834.359Z" fill="#F1F2F2"/>
<path d="M497.213 872.777L483.289 869.945L483.379 857.297L497.296 860.198L497.213 872.777Z" fill="#E6E7E8"/>
<path d="M501.026 858.984L500.917 871.613L497.211 872.777L497.293 860.197L501.026 858.984Z" fill="#D1D3D4"/>
<path d="M487.11 856.102L483.375 857.303L497.292 860.205L501.025 858.991L487.11 856.102Z" fill="#F1F2F2"/>
<path d="M497.213 894.512L483.289 891.672L483.379 879.031L497.296 881.931L497.213 894.512Z" fill="#E6E7E8"/>
<path d="M501.026 880.727L500.917 893.357L497.211 894.526L497.293 881.945L501.026 880.727Z" fill="#D1D3D4"/>
<path d="M487.11 877.836L483.375 879.038L497.292 881.937L501.025 880.718L487.11 877.836Z" fill="#F1F2F2"/>
<path d="M516.764 855.52L502.836 852.679L502.926 840.039L516.843 842.94L516.764 855.52Z" fill="#E6E7E8"/>
<path d="M520.57 841.727L520.462 854.348L516.758 855.515L516.836 842.936L520.57 841.727Z" fill="#D1D3D4"/>
<path d="M506.665 838.844L502.93 840.045L516.846 842.947L520.58 841.737L506.665 838.844Z" fill="#F1F2F2"/>
<path d="M516.764 877.25L502.836 874.414L502.926 861.773L516.843 864.675L516.764 877.25Z" fill="#E6E7E8"/>
<path d="M520.57 863.469L520.462 876.098L516.758 877.261L516.836 864.686L520.57 863.469Z" fill="#D1D3D4"/>
<path d="M506.665 860.578L502.93 861.78L516.846 864.681L520.58 863.464L506.665 860.578Z" fill="#F1F2F2"/>
<path d="M537.426 860.555L523.5 857.719L523.588 845.078L537.507 847.976L537.426 860.555Z" fill="#E6E7E8"/>
<path d="M541.234 846.75L541.126 859.375L537.422 860.542L537.502 847.963L541.234 846.75Z" fill="#D1D3D4"/>
<path d="M527.321 843.867L523.586 845.073L537.505 847.97L541.236 846.757L527.321 843.867Z" fill="#F1F2F2"/>
<path d="M537.426 903.523L523.5 900.69L523.588 866.82L537.507 869.714L537.426 903.523Z" fill="url(#paint11_linear_3578_2119)"/>
<path d="M541.234 868.5L541.126 902.358L537.422 903.522L537.502 869.713L541.234 868.5Z" fill="#EF2E45"/>
<path d="M527.321 865.609L523.586 866.819L537.505 869.712L541.236 868.499L527.321 865.609Z" fill="#FF7182"/>
<path d="M516.764 898.992L502.836 896.158L502.926 883.516L516.843 886.411L516.764 898.992Z" fill="#E6E7E8"/>
<path d="M520.57 885.203L520.462 897.83L516.758 898.995L516.836 886.414L520.57 885.203Z" fill="#D1D3D4"/>
<path d="M506.665 882.32L502.93 883.522L516.846 886.418L520.58 885.206L506.665 882.32Z" fill="#F1F2F2"/>
<path d="M666.155 893.032L645.898 888.741L646.008 753.844L666.25 758.203L666.155 893.032Z" fill="#D1D3D4"/>
<path d="M674.477 755.445L674.349 890.333L666.156 893.039L666.252 758.211L674.477 755.445Z" fill="#E6E7E8"/>
<path d="M654.235 751.094L646.008 753.849L666.25 758.209L674.476 755.444L654.235 751.094Z" fill="#F1F2F2"/>
<path d="M646.008 764.478L666.25 768.77L666.258 758.203L646.015 753.844L646.008 764.478Z" fill="#EF2E45"/>
<path d="M666.156 858.735L645.927 854.375L645.898 888.734L666.13 893.024L666.156 858.735Z" fill="#EF2E45"/>
<path d="M666.181 858.734L666.156 893.032L674.349 890.326L674.381 855.977L666.181 858.734Z" fill="#FC4353"/>
<path d="M666.258 768.778L674.469 766.068L674.479 755.445L666.267 758.211L666.258 768.778Z" fill="#FC4353"/>
<path d="M647.799 915.239L627.547 910.946L627.654 776.047L647.899 780.416L647.799 915.239Z" fill="#D1D3D4"/>
<path d="M656.129 777.641L656.001 912.527L647.805 915.232L647.904 780.41L656.129 777.641Z" fill="#E6E7E8"/>
<path d="M635.879 773.305L627.648 776.051L647.893 780.42L656.118 777.651L635.879 773.305Z" fill="#F1F2F2"/>
<path d="M627.648 786.685L647.895 790.975L647.903 780.416L627.658 776.047L627.648 786.685Z" fill="url(#paint12_linear_3578_2119)"/>
<path d="M647.803 880.947L627.576 876.578L627.547 910.939L647.778 915.228L647.803 880.947Z" fill="url(#paint13_linear_3578_2119)"/>
<path d="M647.833 880.943L647.805 915.235L656.001 912.529L656.034 878.18L647.833 880.943Z" fill="url(#paint14_linear_3578_2119)"/>
<path d="M647.906 790.973L656.116 788.263L656.127 777.641L647.916 780.406L647.906 790.973Z" fill="url(#paint15_linear_3578_2119)"/>
<path d="M1830.99 472.986L1755.77 455.884V441L1831.07 449.401L1830.99 472.986Z" fill="#EF2E45"/>
<path d="M1852.97 425.344L1755.77 455.896L1831.07 472.998L1928.26 441.06L1852.97 425.344Z" fill="#EF2E45"/>
<path d="M1855.2 421.328L1758.01 453.259L1833.3 469.862L1930.49 437.92L1855.2 421.328Z" fill="#A7A9AC"/>
<path d="M1855.2 418.391L1758.01 450.321L1833.3 465.641L1930.49 433.702L1855.2 418.391Z" fill="#BCBEC0"/>
<path d="M1855.2 415.477L1758.01 447.407L1833.3 461.594L1930.49 429.652L1855.2 415.477Z" fill="#D1D3D4"/>
<path d="M1855.2 412.539L1758.01 444.466L1833.3 457.679L1930.49 425.737L1855.2 412.539Z" fill="#E6E7E8"/>
<path d="M1852.97 409.078L1755.77 441.011L1831.07 454.218L1928.26 422.276L1852.97 409.078Z" fill="url(#paint16_linear_3578_2119)"/>
<path d="M1852.97 409.078L1755.77 441.011L1770.83 443.651L1868 411.717L1852.97 409.078Z" fill="#22BCC4"/>
<path d="M1816.22 182.859L1741.73 197.476V204.321L1870.96 231.71L1944.66 207.454L1944.66 201.218L1816.22 182.859Z" fill="#D1D3D4"/>
<path d="M1938.34 203.299L1809.68 176.138L1809.76 72.2344L1938.42 99.4545L1938.34 203.299Z" fill="#E6E7E8"/>
<path d="M1938.34 203.299L1809.68 176.138L1809.76 72.2344L1938.42 99.4545L1938.34 203.299Z" fill="#E6E7E8"/>
<path d="M1817.87 169.5L1817.94 82.3203L1930.24 106.078L1930.17 193.207L1817.87 169.5Z" fill="url(#paint17_linear_3578_2119)"/>
<path d="M1944.76 97.3281L1944.67 201.219L1938.35 203.304L1938.43 99.4591L1944.76 97.3281Z" fill="#D1D3D4"/>
<path d="M1816.11 70.1406L1809.77 72.2601L1938.43 99.4784L1944.76 97.3435L1816.11 70.1406Z" fill="#F1F2F2"/>
<path d="M1809.12 175.93L1741.73 197.479L1870.96 224.868L1938.35 203.307L1809.12 175.93Z" fill="url(#paint18_linear_3578_2119)"/>
<path d="M1895.61 212.685L1922.41 204.111L1809.33 180.156L1782.52 188.728L1895.61 212.685Z" fill="#E6E7E8"/>
<path d="M1812.39 200.391L1795.56 205.772L1838.32 214.832L1855.15 209.453L1812.39 200.391Z" fill="#E6E7E8"/>
<path d="M1871.13 106.323C1884.8 109.847 1895.9 127.378 1895.94 145.461C1895.99 163.559 1884.96 175.368 1871.29 171.843C1857.64 168.323 1846.53 150.809 1846.49 132.713C1846.44 114.63 1857.48 102.804 1871.13 106.323Z" fill="#22BCC4"/>
<path d="M1893.04 160.196C1891.43 153.889 1881.51 147.795 1876.23 152.515C1870.42 157.693 1867.84 152.523 1860.68 150.319C1856.27 148.962 1854.38 153.608 1853.57 157.373C1858.08 164.636 1864.35 170.048 1871.29 171.836C1880.72 174.27 1888.9 169.397 1893.04 160.196Z" fill="#8DC63F"/>
<path d="M1856.75 135.712C1860.49 132.37 1862.54 141.27 1867.82 145.187C1873.1 149.106 1873.1 132.575 1868.85 125.756C1864.58 118.94 1852.82 123.543 1852.82 123.543C1844.3 127.803 1853 139.052 1856.75 135.712Z" fill="#8DC63F"/>
<path d="M1871.13 106.322C1864.23 104.544 1858 106.69 1853.53 111.577C1860.58 111.686 1876.73 113.001 1878.72 122.692C1881.28 135.135 1882.83 139.424 1889.29 140.418C1891.14 140.702 1893.33 140.24 1895.52 139.447C1893.38 123.64 1883.27 109.45 1871.13 106.322Z" fill="#8DC63F"/>
<path opacity="0.3" d="M897.767 140.083L888.804 138.188L785.406 194.347L785.398 203.505L797.953 206.156L897.757 152.02L897.767 140.083Z" fill="white"/>
<path opacity="0.3" d="M785.439 153.744L785.414 183.739L874.765 135.209L835.192 126.836L785.439 153.744Z" fill="white"/>
<path d="M1055.18 864.054L1066.82 833.005L1057.24 811.211L1034.89 864.054H1055.18Z" fill="white"/>
<path d="M1064.79 847.139L1060.63 858.233L1081.15 858.228L1083.86 864.051H1104.79L1080.03 808.688H1059.63L1076.38 847.139H1064.79Z" fill="white"/>
<path d="M1165.37 808.688H1111.2V820.699H1165.37V808.688Z" fill="white"/>
<path d="M1149.07 823.789H1127.59V864.057H1149.07V823.789Z" fill="white"/>
<path d="M1215.77 852.228H1209.44V820.221H1215.77V808.688H1182.08V820.288H1188.57V852.365H1182.08V864.051H1215.77V852.228Z" fill="white"/>
<path d="M1271.67 864.051L1249.99 808.688H1228.54L1251.26 864.051H1271.67Z" fill="white"/>
<path d="M1295.9 808.688H1274.8L1264.71 838.057L1274.41 862.913L1295.9 808.688Z" fill="white"/>
<path d="M1327.88 833.332L1318.6 811.125L1296.46 864.055H1316.52L1327.88 833.332Z" fill="white"/>
<path d="M1326.26 847.207L1321.96 858.311L1342.72 858.414L1345.15 864.051H1366.14L1341.44 808.688H1320.92L1337.73 847.106L1326.26 847.207Z" fill="white"/>
<path d="M1034.76 901.062H1040.48V915.148H1047.51V901.287H1053.08V896.898H1034.76V901.062Z" fill="white"/>
<path d="M1151.27 904.377H1144.59V896.977H1137.63L1137.75 915.448H1144.66V912.362V907.976H1151.27V904.377Z" fill="white"/>
<path d="M1145.7 900.676H1150.15V902.254H1156.45V896.977H1145.7V900.676Z" fill="white"/>
<path d="M1149.11 911.75H1145.7V915.452H1156.45V909.898H1149.11V911.75Z" fill="white"/>
<path d="M1254.01 911.565H1249.46L1248.34 912.593V899.809L1249.83 900.7H1253.94V904.384H1260.86V900.7L1256.68 896.992L1245.2 897.12L1241.26 900.615V911.872L1245.2 915.367H1257.08L1260.97 912.18V908.995L1254.01 908.943V911.565Z" fill="white"/>
<path d="M1345.91 897.188V915.385H1352.98L1352.82 897.188H1345.91Z" fill="white"/>
<path d="M1359.16 904.039L1354.25 904.073V908.116H1359.24V915.382H1366.15V897.047H1359.16V904.039Z" fill="white"/>
<path d="M1382.43 790.203H1014.33V882.86H1387.25V790.203H1382.43ZM1382.43 878.584H1019.15V794.479H1382.43V878.586V878.584Z" fill="white"/>
</g>
<defs>
<linearGradient id="paint0_linear_3578_2119" x1="0.507848" y1="24.4599" x2="2128.85" y2="1511.89" gradientUnits="userSpaceOnUse">
<stop stop-color="#FF9400"/>
<stop offset="0.490426" stop-color="#FED000"/>
<stop offset="0.908701" stop-color="#FF9400"/>
</linearGradient>
<linearGradient id="paint1_linear_3578_2119" x1="1304.82" y1="225.315" x2="1336.48" y2="113.686" gradientUnits="userSpaceOnUse">
<stop stop-color="#808285"/>
<stop offset="1" stop-color="#38353C"/>
</linearGradient>
<linearGradient id="paint2_linear_3578_2119" x1="1397.24" y1="212.764" x2="1417.26" y2="142.176" gradientUnits="userSpaceOnUse">
<stop stop-color="#808285"/>
<stop offset="1" stop-color="#38353C"/>
</linearGradient>
<linearGradient id="paint3_linear_3578_2119" x1="1223.71" y1="71.4859" x2="1474.78" y2="142.683" gradientUnits="userSpaceOnUse">
<stop stop-color="#38353C"/>
<stop offset="0.3178" stop-color="#3A373E"/>
<stop offset="0.4712" stop-color="#413F45"/>
<stop offset="0.5893" stop-color="#4E4C52"/>
<stop offset="0.6888" stop-color="#5F5E63"/>
<stop offset="0.7438" stop-color="#6C6C70"/>
<stop offset="1" stop-color="#808285"/>
</linearGradient>
<linearGradient id="paint4_linear_3578_2119" x1="1340.02" y1="97.9157" x2="1522.62" y2="149.698" gradientUnits="userSpaceOnUse">
<stop stop-color="#38353C"/>
<stop offset="1" stop-color="#808285"/>
</linearGradient>
<linearGradient id="paint5_linear_3578_2119" x1="1338.96" y1="75.9431" x2="1535.43" y2="96.017" gradientUnits="userSpaceOnUse">
<stop stop-color="#38353C"/>
<stop offset="1" stop-color="#808285"/>
</linearGradient>
<linearGradient id="paint6_linear_3578_2119" x1="1363.7" y1="81.2091" x2="1470.07" y2="111.372" gradientUnits="userSpaceOnUse">
<stop stop-color="#F15A29"/>
<stop offset="1" stop-color="#FBB040"/>
</linearGradient>
<linearGradient id="paint7_linear_3578_2119" x1="1425.15" y1="245.216" x2="1455.57" y2="137.952" gradientUnits="userSpaceOnUse">
<stop stop-color="#F15A29"/>
<stop offset="1" stop-color="#FBB040"/>
</linearGradient>
<linearGradient id="paint8_linear_3578_2119" x1="543.523" y1="384.168" x2="594.503" y2="384.168" gradientUnits="userSpaceOnUse">
<stop stop-color="#F15A29"/>
<stop offset="1" stop-color="#FBB040"/>
</linearGradient>
<linearGradient id="paint9_linear_3578_2119" x1="1688.87" y1="816.682" x2="1754.62" y2="816.682" gradientUnits="userSpaceOnUse">
<stop stop-color="#EA2D44"/>
<stop offset="1" stop-color="#FC4353"/>
</linearGradient>
<linearGradient id="paint10_linear_3578_2119" x1="467.915" y1="811.129" x2="542.151" y2="811.129" gradientUnits="userSpaceOnUse">
<stop stop-color="#049696"/>
<stop offset="1" stop-color="#22BCC4"/>
</linearGradient>
<linearGradient id="paint11_linear_3578_2119" x1="523.499" y1="885.172" x2="537.507" y2="885.172" gradientUnits="userSpaceOnUse">
<stop stop-color="#EA2D44"/>
<stop offset="1" stop-color="#FC4353"/>
</linearGradient>
<linearGradient id="paint12_linear_3578_2119" x1="627.649" y1="783.511" x2="647.903" y2="783.511" gradientUnits="userSpaceOnUse">
<stop stop-color="#049696"/>
<stop offset="1" stop-color="#22BCC4"/>
</linearGradient>
<linearGradient id="paint13_linear_3578_2119" x1="627.546" y1="895.904" x2="647.803" y2="895.904" gradientUnits="userSpaceOnUse">
<stop stop-color="#049696"/>
<stop offset="1" stop-color="#22BCC4"/>
</linearGradient>
<linearGradient id="paint14_linear_3578_2119" x1="656.581" y1="896.708" x2="718.244" y2="896.708" gradientUnits="userSpaceOnUse">
<stop stop-color="#22BCC4"/>
<stop offset="1" stop-color="#049696"/>
</linearGradient>
<linearGradient id="paint15_linear_3578_2119" x1="656.578" y1="784.306" x2="718.225" y2="784.306" gradientUnits="userSpaceOnUse">
<stop stop-color="#22BCC4"/>
<stop offset="1" stop-color="#049696"/>
</linearGradient>
<linearGradient id="paint16_linear_3578_2119" x1="1755.77" y1="431.649" x2="1928.26" y2="431.649" gradientUnits="userSpaceOnUse">
<stop stop-color="#EA2D44"/>
<stop offset="1" stop-color="#F15A29"/>
</linearGradient>
<linearGradient id="paint17_linear_3578_2119" x1="1830.09" y1="181.728" x2="1917.99" y2="93.8322" gradientUnits="userSpaceOnUse">
<stop stop-color="#38353C"/>
<stop offset="1" stop-color="#808285"/>
</linearGradient>
<linearGradient id="paint18_linear_3578_2119" x1="1741.73" y1="200.399" x2="1938.35" y2="200.399" gradientUnits="userSpaceOnUse">
<stop stop-color="#38353C"/>
<stop offset="1" stop-color="#808285"/>
</linearGradient>
<clipPath id="clip0_3578_2119">
<rect width="2400.52" height="964" fill="white" transform="translate(0.507812)"/>
</clipPath>
</defs>
</svg>
