<svg width="1920" height="1039" viewBox="0 0 1920 1039" fill="none" xmlns="http://www.w3.org/2000/svg">
<path d="M1570.04 1.21372C1592.93 -0.356297 1615.13 2.73715 1637.04 8.03111C1654.8 12.3228 1671.96 18.1505 1689.09 24.0272C1705.03 29.4943 1720.93 35.0462 1737.21 39.7401C1753.75 44.51 1770.59 48.1327 1787.88 50.0165C1800.22 51.3611 1812.67 51.4398 1825.04 50.6629C1845.26 49.393 1864.89 45.3547 1884.15 39.8963C1894.97 36.8298 1905.68 33.4832 1916.35 30.0418C1917.43 29.6945 1918.45 29.2273 1919.5 28.8153C1919.63 29.0083 1919.75 29.2004 1919.88 29.3934C1919.97 59.7811 1919.94 90.1682 1919.93 120.556V152.481H1920V1038.56H0V90.2928C6.6782 88.3381 13.0264 85.7 19.4346 83.1825C36.1188 76.6285 52.0992 68.8516 68.5039 61.8133C82.5069 55.8059 96.6522 50.0773 111.502 45.8104C124.52 42.069 137.789 39.5484 151.541 38.6258C168.891 37.4617 185.699 39.5509 202.242 43.7293C221.389 48.5652 239.136 56.2455 256.596 64.4803C278.295 74.7148 299.283 86.0825 321.504 95.4803C336.952 102.014 352.873 107.464 369.748 110.572C383.478 113.101 397.297 113.691 411.282 112.519C430.1 110.942 447.709 105.861 464.857 99.2352C481.491 92.8069 497.259 84.9677 512.998 77.079C527.406 69.8563 541.748 62.5242 556.608 56.0262C572.062 49.2692 587.965 43.4384 604.859 39.9422C612.688 38.3225 620.624 37.3139 628.663 36.6727C648.607 35.0828 667.862 37.9065 686.869 42.8133C702.858 46.9407 718.074 52.7536 733.134 58.8856C748.425 65.1122 763.508 71.7205 778.927 77.7118C797.776 85.0378 817.084 91.192 837.551 94.0506C849.56 95.7277 861.644 96.1069 873.836 95.1395C893.553 93.5745 912.11 88.5885 930.182 81.8377C949.501 74.6214 967.698 65.5427 985.978 56.5907C1005.37 47.092 1024.79 37.6279 1045.45 30.287C1060.89 24.7975 1076.81 20.7601 1093.38 18.8651C1103.94 17.6574 1114.59 17.6071 1125.17 18.2645C1138.96 19.1199 1152.44 21.7194 1165.71 25.1483C1185.61 30.2942 1204.63 37.4306 1223.72 44.4266C1245.76 52.507 1267.88 60.3685 1291.26 65.162C1308.71 68.739 1326.4 69.869 1344.19 68.7186C1362.78 67.5159 1380.66 63.2824 1398.09 57.5799C1411.75 53.1089 1424.94 47.7365 1438.11 42.2694C1454.04 35.652 1469.65 28.4622 1485.74 22.1336C1503.24 15.2509 1521.04 9.06504 1539.79 5.23521C1549.75 3.2033 1559.81 1.91469 1570.04 1.21372Z" fill="#F7B509"/>
</svg>
