<svg width="248" height="248" viewBox="0 0 248 248" fill="none" xmlns="http://www.w3.org/2000/svg">
<path d="M189.645 44.2812C181.615 44.2812 175.109 50.7874 175.109 58.8168C175.109 66.8462 181.624 73.3617 189.645 73.3617C197.674 73.3617 204.18 66.8462 204.18 58.8168C204.18 50.7964 197.674 44.2812 189.645 44.2812Z" fill="black"/>
<path d="M125.008 62.9062C91.3331 62.9062 63.9297 90.3014 63.9297 123.978C63.9297 157.654 91.324 185.05 125.008 185.05C158.684 185.05 186.078 157.645 186.078 123.978C186.087 90.3104 158.684 62.9062 125.008 62.9062ZM125.008 163.107C103.435 163.107 85.8811 145.561 85.8811 123.987C85.8811 102.413 103.426 84.8674 125.008 84.8674C146.581 84.8674 164.126 102.413 164.126 123.987C164.126 145.561 146.581 163.107 125.008 163.107Z" fill="black"/>
<path d="M173.504 248H74.4873C33.4138 248 0 214.585 0 173.51V74.4903C0 33.4153 33.4138 0 74.4873 0H173.504C214.577 0 248 33.4153 248 74.4903V173.51C247.991 214.585 214.577 248 173.504 248ZM74.4873 23.3313C46.273 23.3313 23.3302 46.2749 23.3302 74.4903V173.51C23.3302 201.725 46.282 224.669 74.4873 224.669H173.504C201.718 224.669 224.67 201.716 224.67 173.51V74.4903C224.67 46.2749 201.718 23.3313 173.504 23.3313H74.4873Z" fill="black"/>
</svg>
