<svg width="248" height="249" viewBox="0 0 248 249" fill="none" xmlns="http://www.w3.org/2000/svg">
<path d="M189.408 44.9453C181.389 44.9453 174.891 51.4431 174.891 59.4621C174.891 67.4811 181.398 73.9882 189.408 73.9882C197.427 73.9882 203.925 67.4811 203.925 59.4621C203.925 51.4521 197.427 44.9453 189.408 44.9453Z" fill="white"/>
<path d="M124.854 63.5469C91.2206 63.5469 63.8516 90.9067 63.8516 124.54C63.8516 158.173 91.2116 185.533 124.854 185.533C158.487 185.533 185.846 158.164 185.846 124.54C185.855 90.9157 158.487 63.5469 124.854 63.5469ZM124.854 163.618C103.308 163.618 85.7755 146.095 85.7755 124.549C85.7755 103.003 103.299 85.4797 124.854 85.4797C146.4 85.4797 163.922 103.003 163.922 124.549C163.922 146.095 146.4 163.618 124.854 163.618Z" fill="white"/>
<path d="M173.286 248.399H74.3939C33.3719 248.399 0 215.027 0 174.005V75.1129C0 34.0909 33.3719 0.71875 74.3939 0.71875H173.286C214.308 0.71875 247.689 34.0909 247.689 75.1129V174.005C247.68 215.027 214.308 248.399 173.286 248.399ZM74.3939 24.0199C46.2149 24.0199 23.3009 46.9339 23.3009 75.1129V174.005C23.3009 202.184 46.2239 225.098 74.3939 225.098H173.286C201.465 225.098 224.388 202.175 224.388 174.005V75.1129C224.388 46.9339 201.465 24.0199 173.286 24.0199H74.3939Z" fill="white"/>
</svg>
