<svg width="248" height="232" viewBox="0 0 248 232" fill="none" xmlns="http://www.w3.org/2000/svg">
<path fill-rule="evenodd" clip-rule="evenodd" d="M218.645 153.254C208.117 146.913 194.438 139.85 182.041 144.957C172.532 148.868 166.456 163.849 160.305 171.501C157.135 175.431 153.381 176.038 148.513 174.083C112.815 159.767 85.4753 135.806 65.7774 102.769C62.4378 97.6235 63.0426 93.5792 67.0614 88.8325C73.0048 81.7885 80.4763 73.7761 82.099 64.2828C83.7027 54.7894 79.2685 43.6821 75.3817 35.214C70.4006 24.4106 64.8157 8.99335 54.061 2.87963C44.1555 -2.74043 31.1366 0.411362 22.3253 7.6263C7.11791 20.0816 -0.221332 39.6192 0.00508079 58.9856C0.0616841 64.4918 0.741264 69.979 2.0054 75.2762C5.08085 88.0543 10.9487 99.9586 17.5335 111.313C22.5146 119.857 27.9105 128.154 33.7595 136.128C52.8537 162.216 76.5887 184.905 104.098 201.841C117.834 210.309 132.645 217.733 147.966 222.822C165.154 228.537 180.456 234.48 199.022 230.929C218.456 227.227 237.607 215.113 245.324 196.278C247.607 190.696 248.738 184.487 247.474 178.602C244.833 166.393 228.437 159.14 218.645 153.254Z" fill="black"/>
</svg>
