<svg width="3871" height="753" viewBox="0 0 3871 753" fill="none" xmlns="http://www.w3.org/2000/svg">
<path d="M104.782 21.2889C150.686 21.2889 185.28 54.8856 185.28 99.4594C185.28 144.033 150.686 177.63 104.782 177.63H51.5592V250.811H0V21.2889H104.782ZM103.451 129.064C120.083 129.064 132.391 116.091 132.391 99.4594C132.391 82.4947 120.083 69.8544 103.451 69.8544H51.5592V129.064H103.451Z" fill="#312F5E"/>
<path d="M390.21 203.908H393.537V250.811H379.898C355.948 250.811 339.981 242.495 332.663 226.195C319.69 243.825 300.397 254.802 276.78 254.802C230.21 254.802 194.95 216.549 194.95 165.987C194.95 115.426 230.21 77.1725 276.78 77.1725C297.736 77.1725 315.366 85.8211 328.006 99.792V81.1641H376.572V190.27C376.572 198.919 381.561 203.908 390.21 203.908ZM286.426 207.9C310.376 207.9 328.006 189.937 328.006 165.987C328.006 142.037 310.376 124.075 286.426 124.075C262.809 124.075 245.179 142.037 245.179 165.987C245.179 189.937 262.809 207.9 286.426 207.9Z" fill="#312F5E"/>
<path d="M442.96 59.5426C425.995 59.5426 413.022 46.9022 413.022 29.605C413.022 12.6403 425.995 0 442.96 0C460.257 0 473.23 12.6403 473.23 29.605C473.23 46.9022 460.257 59.5426 442.96 59.5426ZM418.677 250.811V81.1641H467.242V250.811H418.677Z" fill="#312F5E"/>
<path d="M665.371 203.908H676.681V250.811H660.049C629.446 250.811 608.822 239.501 590.86 210.229L582.544 198.253L548.614 250.811H490.402L549.612 165.655L491.4 81.1641H550.278L582.876 131.393L615.475 81.1641H673.687L615.475 165.322L631.774 186.611C640.09 198.253 651.067 203.908 665.371 203.908Z" fill="#312F5E"/>
<path d="M767.611 49.5634C760.626 49.5634 755.969 54.8856 755.969 61.2058H722.039C722.039 33.264 735.345 11.3098 761.291 11.3098C779.919 11.3098 787.902 23.6174 798.214 23.6174C804.867 23.6174 809.524 18.6278 809.524 11.975H843.785C843.785 40.5821 830.48 61.871 804.201 61.871C785.574 61.871 777.59 49.5634 767.611 49.5634ZM881.374 203.908H884.7V250.811H871.062C847.112 250.811 831.145 242.495 823.827 226.195C810.854 243.825 791.561 254.802 767.944 254.802C721.374 254.802 686.114 216.549 686.114 165.987C686.114 115.426 721.374 77.1725 767.944 77.1725C788.9 77.1725 806.53 85.8211 819.17 99.792V81.1641H867.736V190.27C867.736 198.919 872.725 203.908 881.374 203.908ZM777.59 207.9C801.54 207.9 819.17 189.937 819.17 165.987C819.17 142.037 801.54 124.075 777.59 124.075C753.973 124.075 736.343 142.037 736.343 165.987C736.343 189.937 753.973 207.9 777.59 207.9Z" fill="#312F5E"/>
<path d="M991.647 254.802C939.422 254.802 900.171 216.549 900.171 165.987C900.171 115.426 939.422 77.1725 991.647 77.1725C1043.87 77.1725 1083.12 115.426 1083.12 165.987C1083.12 216.549 1043.87 254.802 991.647 254.802ZM991.647 207.9C1015.6 207.9 1033.23 189.937 1033.23 165.987C1033.23 142.037 1015.6 124.075 991.647 124.075C967.697 124.075 950.067 142.037 950.067 165.987C950.067 189.937 967.697 207.9 991.647 207.9Z" fill="#312F5E"/>
<path d="M1284.76 77.1725C1331.66 77.1725 1366.59 115.426 1366.59 165.987C1366.59 216.549 1331.66 254.802 1284.76 254.802C1263.8 254.802 1246.17 246.154 1233.53 231.85V314.012H1184.97V81.1641H1233.53V100.125C1246.17 85.8211 1263.8 77.1725 1284.76 77.1725ZM1275.11 207.9C1299.06 207.9 1316.69 189.937 1316.69 165.987C1316.69 142.037 1299.06 124.075 1275.11 124.075C1251.16 124.075 1233.53 142.037 1233.53 165.987C1233.53 189.937 1251.16 207.9 1275.11 207.9Z" fill="#312F5E"/>
<path d="M1568.76 166.653C1568.76 170.977 1568.43 177.63 1567.43 181.621H1437.7C1443.03 200.582 1457.99 212.557 1478.62 212.557C1494.59 212.557 1507.89 205.904 1514.21 196.923H1566.1C1553.46 231.185 1519.53 254.802 1477.62 254.802C1425.06 254.802 1385.81 216.549 1385.81 165.987C1385.81 115.426 1425.06 77.1725 1477.29 77.1725C1529.18 77.1725 1568.76 115.093 1568.76 166.653ZM1477.29 119.085C1458.33 119.085 1443.69 130.728 1438.04 149.355H1516.54C1511.55 130.728 1495.92 119.085 1477.29 119.085Z" fill="#312F5E"/>
<path d="M1654.77 250.811C1615.85 250.811 1595.9 232.848 1595.9 197.921V11.3098H1644.46V189.937C1644.46 200.582 1650.78 206.569 1661.76 206.569H1672.07V250.811H1654.77Z" fill="#312F5E"/>
<path d="M1879.29 203.908H1882.62V250.811H1868.98C1845.03 250.811 1829.07 242.495 1821.75 226.195C1808.77 243.825 1789.48 254.802 1765.86 254.802C1719.29 254.802 1684.03 216.549 1684.03 165.987C1684.03 115.426 1719.29 77.1725 1765.86 77.1725C1786.82 77.1725 1804.45 85.8211 1817.09 99.792V81.1641H1865.66V190.27C1865.66 198.919 1870.65 203.908 1879.29 203.908ZM1775.51 207.9C1799.46 207.9 1817.09 189.937 1817.09 165.987C1817.09 142.037 1799.46 124.075 1775.51 124.075C1751.89 124.075 1734.26 142.037 1734.26 165.987C1734.26 189.937 1751.89 207.9 1775.51 207.9Z" fill="#312F5E"/>
<path d="M2153.16 166.653C2153.16 170.977 2152.83 177.63 2151.83 181.621H2022.1C2027.42 200.582 2042.39 212.557 2063.01 212.557C2078.98 212.557 2092.28 205.904 2098.6 196.923H2150.5C2137.86 231.185 2103.93 254.802 2062.01 254.802C2009.46 254.802 1970.21 216.549 1970.21 165.987C1970.21 115.426 2009.46 77.1725 2061.68 77.1725C2113.57 77.1725 2153.16 115.093 2153.16 166.653ZM2061.68 119.085C2042.72 119.085 2028.09 130.728 2022.43 149.355H2100.93C2095.94 130.728 2080.31 119.085 2061.68 119.085Z" fill="#312F5E"/>
<path d="M2366.88 203.908H2370.21V250.811H2356.57C2332.62 250.811 2316.66 242.495 2309.34 226.195C2296.36 243.825 2277.07 254.802 2253.45 254.802C2206.88 254.802 2171.62 216.549 2171.62 165.987C2171.62 115.426 2206.88 77.1725 2253.45 77.1725C2274.41 77.1725 2292.04 85.8211 2304.68 99.792V11.3098H2353.25V190.27C2353.25 198.919 2358.24 203.908 2366.88 203.908ZM2263.1 207.9C2287.05 207.9 2304.68 189.937 2304.68 165.987C2304.68 142.037 2287.05 124.075 2263.1 124.075C2239.48 124.075 2221.85 142.037 2221.85 165.987C2221.85 189.937 2239.48 207.9 2263.1 207.9Z" fill="#312F5E"/>
<path d="M2567.94 203.908H2571.27V250.811H2557.63C2533.68 250.811 2517.72 242.495 2510.4 226.195C2497.76 244.823 2479.13 254.802 2456.51 254.802C2418.92 254.802 2393.97 229.522 2393.97 190.935V81.1641H2442.54V176.299C2442.54 195.26 2454.51 207.9 2472.81 207.9C2492.44 207.9 2505.74 194.927 2505.74 175.634V81.1641H2554.31V190.27C2554.31 198.919 2559.3 203.908 2567.94 203.908Z" fill="#312F5E"/>
<path d="M2678.24 254.802C2626.01 254.802 2586.76 216.549 2586.76 165.987C2586.76 115.426 2626.01 77.1725 2678.24 77.1725C2723.81 77.1725 2760.06 106.777 2767.72 148.025H2716.16C2709.5 133.721 2695.2 124.075 2678.24 124.075C2654.29 124.075 2636.66 142.037 2636.66 165.987C2636.66 189.937 2654.29 207.9 2678.24 207.9C2695.2 207.9 2709.5 198.253 2716.16 183.95H2767.72C2760.06 225.197 2723.81 254.802 2678.24 254.802Z" fill="#312F5E"/>
<path d="M2981.16 203.908H2984.49V250.811H2970.85C2946.9 250.811 2930.94 242.495 2923.62 226.195C2910.64 243.825 2891.35 254.802 2867.73 254.802C2821.16 254.802 2785.9 216.549 2785.9 165.987C2785.9 115.426 2821.16 77.1725 2867.73 77.1725C2888.69 77.1725 2906.32 85.8211 2918.96 99.792V81.1641H2967.53V190.27C2967.53 198.919 2972.52 203.908 2981.16 203.908ZM2877.38 207.9C2901.33 207.9 2918.96 189.937 2918.96 165.987C2918.96 142.037 2901.33 124.075 2877.38 124.075C2853.76 124.075 2836.13 142.037 2836.13 165.987C2836.13 189.937 2853.76 207.9 2877.38 207.9Z" fill="#312F5E"/>
<path d="M3091.44 207.9C3108.4 207.9 3122.7 198.253 3129.36 183.95H3180.92C3174.26 219.875 3145.99 246.819 3108.73 253.472L3102.75 260.457C3120.71 262.453 3134.01 277.422 3134.01 296.382C3134.01 317.671 3116.38 334.303 3092.77 334.303C3070.15 334.303 3053.18 319.334 3051.52 299.376H3080.79C3082.46 304.698 3087.11 308.025 3092.77 308.025C3099.42 308.025 3105.07 303.035 3105.07 296.382C3105.07 289.729 3099.09 284.74 3092.77 284.74C3088.11 284.74 3084.78 287.068 3083.12 289.064L3056.18 277.089L3075.14 253.472C3031.23 246.486 2999.96 211.226 2999.96 165.987C2999.96 115.426 3039.21 77.1725 3091.44 77.1725C3137.01 77.1725 3173.27 106.777 3180.92 148.025H3129.36C3122.7 133.721 3108.4 124.075 3091.44 124.075C3067.49 124.075 3049.86 142.037 3049.86 165.987C3049.86 189.937 3067.49 207.9 3091.44 207.9Z" fill="#312F5E"/>
<path d="M3280.6 49.5634C3273.62 49.5634 3268.96 54.8856 3268.96 61.2058H3235.03C3235.03 33.264 3248.34 11.3098 3274.28 11.3098C3292.91 11.3098 3300.89 23.6174 3311.21 23.6174C3317.86 23.6174 3322.52 18.6278 3322.52 11.975H3356.78C3356.78 40.5821 3343.47 61.871 3317.19 61.871C3298.56 61.871 3290.58 49.5634 3280.6 49.5634ZM3394.36 203.908H3397.69V250.811H3384.05C3360.1 250.811 3344.14 242.495 3336.82 226.195C3323.85 243.825 3304.55 254.802 3280.93 254.802C3234.37 254.802 3199.11 216.549 3199.11 165.987C3199.11 115.426 3234.37 77.1725 3280.93 77.1725C3301.89 77.1725 3319.52 85.8211 3332.16 99.792V81.1641H3380.73V190.27C3380.73 198.919 3385.72 203.908 3394.36 203.908ZM3290.58 207.9C3314.53 207.9 3332.16 189.937 3332.16 165.987C3332.16 142.037 3314.53 124.075 3290.58 124.075C3266.96 124.075 3249.33 142.037 3249.33 165.987C3249.33 189.937 3266.96 207.9 3290.58 207.9Z" fill="#312F5E"/>
<path d="M3504.64 254.802C3452.41 254.802 3413.16 216.549 3413.16 165.987C3413.16 115.426 3452.41 77.1725 3504.64 77.1725C3556.86 77.1725 3596.11 115.426 3596.11 165.987C3596.11 216.549 3556.86 254.802 3504.64 254.802ZM3504.64 207.9C3528.59 207.9 3546.22 189.937 3546.22 165.987C3546.22 142.037 3528.59 124.075 3504.64 124.075C3480.69 124.075 3463.06 142.037 3463.06 165.987C3463.06 189.937 3480.69 207.9 3504.64 207.9Z" fill="#312F5E"/>
<path d="M3870.93 166.653C3870.93 170.977 3870.6 177.63 3869.6 181.621H3739.87C3745.19 200.582 3760.16 212.557 3780.79 212.557C3796.75 212.557 3810.06 205.904 3816.38 196.923H3868.27C3855.63 231.185 3821.7 254.802 3779.79 254.802C3727.23 254.802 3687.98 216.549 3687.98 165.987C3687.98 115.426 3727.23 77.1725 3779.46 77.1725C3831.35 77.1725 3870.93 115.093 3870.93 166.653ZM3779.46 119.085C3760.5 119.085 3745.86 130.728 3740.2 149.355H3818.71C3813.72 130.728 3798.08 119.085 3779.46 119.085Z" fill="#312F5E"/>
<path d="M1176.15 559.421H1139.22V621.625C1139.22 633.6 1146.54 640.586 1159.18 640.586H1176.15V684.827H1151.86C1111.28 684.827 1090.66 665.866 1090.66 629.608V559.421H1065.04V515.18H1079.35C1088.66 515.18 1093.32 510.523 1093.32 501.209V470.606H1139.22V515.18H1176.15V559.421Z" fill="#1E79CC"/>
<path d="M1377.59 600.669C1377.59 604.993 1377.26 611.646 1376.26 615.638H1246.53C1251.86 634.598 1266.82 646.573 1287.45 646.573C1303.41 646.573 1316.72 639.92 1323.04 630.939H1374.93C1362.29 665.201 1328.36 688.818 1286.45 688.818C1233.89 688.818 1194.64 650.565 1194.64 600.003C1194.64 549.442 1233.89 511.189 1286.12 511.189C1338.01 511.189 1377.59 549.109 1377.59 600.669ZM1286.12 553.101C1267.16 553.101 1252.52 564.744 1246.87 583.371H1325.37C1320.38 564.744 1304.75 553.101 1286.12 553.101Z" fill="#1E79CC"/>
<path d="M1486.87 688.818C1434.65 688.818 1395.4 650.565 1395.4 600.003C1395.4 549.442 1434.65 511.189 1486.87 511.189C1532.44 511.189 1568.7 540.793 1576.35 582.041H1524.79C1518.14 567.737 1503.84 558.091 1486.87 558.091C1462.92 558.091 1445.29 576.053 1445.29 600.003C1445.29 623.953 1462.92 641.916 1486.87 641.916C1503.84 641.916 1518.14 632.269 1524.79 617.966H1576.35C1568.7 659.213 1532.44 688.818 1486.87 688.818Z" fill="#1E79CC"/>
<path d="M1782.48 637.924H1785.81V684.827H1772.17C1737.91 684.827 1720.28 667.862 1720.28 634.931V592.02C1720.28 571.396 1707.3 558.091 1687.68 558.091C1666.72 558.091 1652.42 571.729 1652.42 592.685V684.827H1603.85V515.18H1652.42V533.808C1665.39 518.839 1683.02 511.189 1703.98 511.189C1742.9 511.189 1768.84 536.802 1768.84 575.721V624.286C1768.84 632.935 1773.83 637.924 1782.48 637.924Z" fill="#1E79CC"/>
<path d="M1890.65 688.818C1838.43 688.818 1799.18 650.565 1799.18 600.003C1799.18 549.442 1838.43 511.189 1890.65 511.189C1942.88 511.189 1982.13 549.442 1982.13 600.003C1982.13 650.565 1942.88 688.818 1890.65 688.818ZM1890.65 641.916C1914.6 641.916 1932.23 623.953 1932.23 600.003C1932.23 576.053 1914.6 558.091 1890.65 558.091C1866.7 558.091 1849.07 576.053 1849.07 600.003C1849.07 623.953 1866.7 641.916 1890.65 641.916Z" fill="#1E79CC"/>
<path d="M2069.11 684.827C2030.19 684.827 2010.23 666.864 2010.23 631.937V445.326H2058.8V623.953C2058.8 634.598 2065.12 640.586 2076.1 640.586H2086.41V684.827H2069.11Z" fill="#1E79CC"/>
<path d="M2189.18 688.818C2136.96 688.818 2097.71 650.565 2097.71 600.003C2097.71 549.442 2136.96 511.189 2189.18 511.189C2241.41 511.189 2280.66 549.442 2280.66 600.003C2280.66 650.565 2241.41 688.818 2189.18 688.818ZM2189.18 641.916C2213.13 641.916 2230.76 623.953 2230.76 600.003C2230.76 576.053 2213.13 558.091 2189.18 558.091C2165.23 558.091 2147.6 576.053 2147.6 600.003C2147.6 623.953 2165.23 641.916 2189.18 641.916Z" fill="#1E79CC"/>
<path d="M2433.16 515.18H2481.72V666.531C2481.72 718.091 2446.79 752.02 2394.24 752.02C2350.66 752.02 2319.73 729.068 2309.08 692.145H2359.31C2365.3 701.791 2378.6 707.779 2394.24 707.779C2417.85 707.779 2433.16 691.147 2433.16 666.199V660.877C2420.52 674.847 2402.89 683.163 2381.93 683.163C2335.03 683.163 2300.1 645.908 2300.1 597.01C2300.1 548.112 2335.03 511.189 2381.93 511.189C2402.89 511.189 2420.52 519.505 2433.16 533.475V515.18ZM2391.58 638.922C2415.53 638.922 2433.16 620.96 2433.16 597.01C2433.16 573.392 2415.53 555.097 2391.58 555.097C2367.63 555.097 2350 573.392 2350 597.01C2350 620.96 2367.63 638.922 2391.58 638.922Z" fill="#1E79CC"/>
<path d="M2544.54 493.559C2527.57 493.559 2514.6 480.918 2514.6 463.621C2514.6 446.656 2527.57 434.016 2544.54 434.016C2561.83 434.016 2574.81 446.656 2574.81 463.621C2574.81 480.918 2561.83 493.559 2544.54 493.559ZM2520.25 684.827V515.18H2568.82V684.827H2520.25Z" fill="#1E79CC"/>
<path d="M2793.89 637.924H2797.22V684.827H2783.58C2759.63 684.827 2743.66 676.511 2736.34 660.211C2723.37 677.841 2704.08 688.818 2680.46 688.818C2633.89 688.818 2598.63 650.565 2598.63 600.003C2598.63 549.442 2633.89 511.189 2680.46 511.189C2701.42 511.189 2719.05 519.837 2731.69 533.808V515.18H2780.25V624.286C2780.25 632.935 2785.24 637.924 2793.89 637.924ZM2690.11 641.916C2714.06 641.916 2731.69 623.953 2731.69 600.003C2731.69 576.053 2714.06 558.091 2690.11 558.091C2666.49 558.091 2648.86 576.053 2648.86 600.003C2648.86 623.953 2666.49 641.916 2690.11 641.916Z" fill="#1E79CC"/>
</svg>
