<svg width="2616" height="1642" viewBox="0 0 2616 1642" fill="none" xmlns="http://www.w3.org/2000/svg">
<path d="M18.75 90.6C8.1 90.6 0 82.65 0 72C0 61.35 8.1 53.4 18.75 53.4C29.25 53.4 37.35 61.35 37.35 72C37.35 82.65 29.25 90.6 18.75 90.6Z" fill="#0274C6"/>
<path d="M181.9 9.59999C212.05 9.59999 234.7 31.8 234.7 61.35C234.7 90.9 212.05 113.1 181.9 113.1H141.1V9.59999H181.9ZM181.3 91.2C198.25 91.2 210.85 78.3 210.85 61.35C210.85 44.4 198.25 31.5 181.3 31.5H164.35V91.2H181.3Z" fill="#0274C6"/>
<path d="M327.03 75.15C327.03 77.1 326.88 80.1 326.43 81.9H267.93C270.33 90.45 277.08 95.85 286.38 95.85C293.58 95.85 299.58 92.85 302.43 88.8H325.83C320.13 104.25 304.83 114.9 285.93 114.9C262.23 114.9 244.53 97.65 244.53 74.85C244.53 52.05 262.23 34.8 285.78 34.8C309.18 34.8 327.03 51.9 327.03 75.15ZM285.78 53.7C277.23 53.7 270.63 58.95 268.08 67.35H303.48C301.23 58.95 294.18 53.7 285.78 53.7Z" fill="#0274C6"/>
<path d="M366.258 114.9C347.958 114.9 334.908 103.65 334.908 89.85H356.808C356.808 94.05 361.008 97.5 366.408 97.5C370.758 97.5 374.958 95.25 374.958 91.5C374.958 87.75 370.458 85.05 361.158 83.25C344.658 79.8 336.108 71.55 336.108 59.25C336.108 43.35 349.908 34.8 365.508 34.8C382.908 34.8 395.658 45.45 395.658 58.8H373.758C373.758 55.2 370.158 52.2 365.508 52.2C361.458 52.2 357.858 54.6 357.858 57.75C357.858 61.35 362.208 63.75 372.108 66C388.758 69.75 396.708 77.4 396.708 89.55C396.708 105.75 382.758 114.9 366.258 114.9Z" fill="#0274C6"/>
<path d="M420.827 26.85C413.177 26.85 407.327 21.15 407.327 13.35C407.327 5.7 413.177 0 420.827 0C428.627 0 434.477 5.7 434.477 13.35C434.477 21.15 428.627 26.85 420.827 26.85ZM409.877 113.1V36.6H431.777V113.1H409.877Z" fill="#0274C6"/>
<path d="M505.221 36.6H527.121V104.85C527.121 128.1 511.371 143.4 487.671 143.4C468.021 143.4 454.071 133.05 449.271 116.4H471.921C474.621 120.75 480.621 123.45 487.671 123.45C498.321 123.45 505.221 115.95 505.221 104.7V102.3C499.521 108.6 491.571 112.35 482.121 112.35C460.971 112.35 445.221 95.55 445.221 73.5C445.221 51.45 460.971 34.8 482.121 34.8C491.571 34.8 499.521 38.55 505.221 44.85V36.6ZM486.471 92.4C497.271 92.4 505.221 84.3 505.221 73.5C505.221 62.85 497.271 54.6 486.471 54.6C475.671 54.6 467.721 62.85 467.721 73.5C467.721 84.3 475.671 92.4 486.471 92.4Z" fill="#0274C6"/>
<path d="M624.746 91.95H626.246V113.1H620.096C604.646 113.1 596.696 105.45 596.696 90.6V71.25C596.696 61.95 590.846 55.95 581.996 55.95C572.546 55.95 566.096 62.1 566.096 71.55V113.1H544.196V36.6H566.096V45C571.946 38.25 579.896 34.8 589.346 34.8C606.896 34.8 618.596 46.35 618.596 63.9V85.8C618.596 89.7 620.846 91.95 624.746 91.95Z" fill="#0274C6"/>
<path d="M747.001 75.15C747.001 77.1 746.851 80.1 746.401 81.9H687.901C690.301 90.45 697.051 95.85 706.351 95.85C713.551 95.85 719.551 92.85 722.401 88.8H745.801C740.101 104.25 724.801 114.9 705.901 114.9C682.201 114.9 664.501 97.65 664.501 74.85C664.501 52.05 682.201 34.8 705.751 34.8C729.151 34.8 747.001 51.9 747.001 75.15ZM705.751 53.7C697.201 53.7 690.601 58.95 688.051 67.35H723.451C721.201 58.95 714.151 53.7 705.751 53.7Z" fill="#0274C6"/>
<path d="M843.338 114.9C812.138 114.9 788.588 91.8 788.588 61.35C788.588 30.9 812.138 7.8 843.338 7.8C870.038 7.8 891.337 24.9 896.737 49.05H871.987C867.338 37.8 856.538 30.15 843.338 30.15C825.788 30.15 812.438 43.5 812.438 61.35C812.438 79.2 825.788 92.55 843.338 92.55C856.538 92.55 867.338 84.9 871.987 73.65H896.737C891.337 97.8 870.038 114.9 843.338 114.9Z" fill="#0274C6"/>
<path d="M931.136 47.4C936.986 39.9 944.936 35.4 954.236 35.4V57.9C939.386 57.9 931.136 65.55 931.136 77.4V113.1H909.236V36.6H931.136V47.4Z" fill="#0274C6"/>
<path d="M976.882 26.85C969.232 26.85 963.382 21.15 963.382 13.35C963.382 5.7 969.232 0 976.882 0C984.682 0 990.532 5.7 990.532 13.35C990.532 21.15 984.682 26.85 976.882 26.85ZM965.932 113.1V36.6H987.832V113.1H965.932Z" fill="#0274C6"/>
<path d="M1089.33 91.95H1090.83V113.1H1084.68C1073.88 113.1 1066.68 109.35 1063.38 102C1057.53 109.95 1048.83 114.9 1038.18 114.9C1017.18 114.9 1001.28 97.65 1001.28 74.85C1001.28 52.05 1017.18 34.8 1038.18 34.8C1047.63 34.8 1055.58 38.7 1061.28 45V36.6H1083.18V85.8C1083.18 89.7 1085.43 91.95 1089.33 91.95ZM1042.53 93.75C1053.33 93.75 1061.28 85.65 1061.28 74.85C1061.28 64.05 1053.33 55.95 1042.53 55.95C1031.88 55.95 1023.93 64.05 1023.93 74.85C1023.93 85.65 1031.88 93.75 1042.53 93.75Z" fill="#0274C6"/>
<path d="M1147.03 56.55H1130.38V84.6C1130.38 90 1133.68 93.15 1139.38 93.15H1147.03V113.1H1136.08C1117.78 113.1 1108.48 104.55 1108.48 88.2V56.55H1096.93V36.6H1103.38C1107.58 36.6 1109.68 34.5 1109.68 30.3V16.5H1130.38V36.6H1147.03V56.55Z" fill="#0274C6"/>
<path d="M1172.29 26.85C1164.64 26.85 1158.79 21.15 1158.79 13.35C1158.79 5.7 1164.64 0 1172.29 0C1180.09 0 1185.94 5.7 1185.94 13.35C1185.94 21.15 1180.09 26.85 1172.29 26.85ZM1161.34 113.1V36.6H1183.24V113.1H1161.34Z" fill="#0274C6"/>
<path d="M1269.59 36.6C1271.24 45.3 1269.44 56.4 1263.89 69.9L1246.19 113.1H1223.69L1192.49 36.6H1217.54L1235.24 85.5L1242.74 65.4C1246.79 53.7 1248.74 44.4 1247.09 36.6H1269.59Z" fill="#0274C6"/>
<path d="M1292.7 26.85C1285.05 26.85 1279.2 21.15 1279.2 13.35C1279.2 5.7 1285.05 0 1292.7 0C1300.5 0 1306.35 5.7 1306.35 13.35C1306.35 21.15 1300.5 26.85 1292.7 26.85ZM1281.75 113.1V36.6H1303.65V113.1H1281.75Z" fill="#0274C6"/>
<path d="M1405.15 91.95H1406.65V113.1H1400.5C1389.7 113.1 1382.5 109.35 1379.2 102C1373.35 109.95 1364.65 114.9 1354 114.9C1333 114.9 1317.1 97.65 1317.1 74.85C1317.1 52.05 1333 34.8 1354 34.8C1363.45 34.8 1371.4 38.7 1377.1 45V5.1H1399V85.8C1399 89.7 1401.25 91.95 1405.15 91.95ZM1358.35 93.75C1369.15 93.75 1377.1 85.65 1377.1 74.85C1377.1 64.05 1369.15 55.95 1358.35 55.95C1347.7 55.95 1339.75 64.05 1339.75 74.85C1339.75 85.65 1347.7 93.75 1358.35 93.75Z" fill="#0274C6"/>
<path d="M1502.27 91.95H1503.77V113.1H1497.62C1486.82 113.1 1479.62 109.35 1476.32 102C1470.47 109.95 1461.77 114.9 1451.12 114.9C1430.12 114.9 1414.22 97.65 1414.22 74.85C1414.22 52.05 1430.12 34.8 1451.12 34.8C1460.57 34.8 1468.52 38.7 1474.22 45V36.6H1496.12V85.8C1496.12 89.7 1498.37 91.95 1502.27 91.95ZM1455.47 93.75C1466.27 93.75 1474.22 85.65 1474.22 74.85C1474.22 64.05 1466.27 55.95 1455.47 55.95C1444.82 55.95 1436.87 64.05 1436.87 74.85C1436.87 85.65 1444.82 93.75 1455.47 93.75Z" fill="#0274C6"/>
<path d="M1599.09 91.95H1600.59V113.1H1594.44C1583.64 113.1 1576.44 109.35 1573.14 102C1567.29 109.95 1558.59 114.9 1547.94 114.9C1526.94 114.9 1511.04 97.65 1511.04 74.85C1511.04 52.05 1526.94 34.8 1547.94 34.8C1557.39 34.8 1565.34 38.7 1571.04 45V5.1H1592.94V85.8C1592.94 89.7 1595.19 91.95 1599.09 91.95ZM1552.29 93.75C1563.09 93.75 1571.04 85.65 1571.04 74.85C1571.04 64.05 1563.09 55.95 1552.29 55.95C1541.64 55.95 1533.69 64.05 1533.69 74.85C1533.69 85.65 1541.64 93.75 1552.29 93.75Z" fill="#0274C6"/>
<path d="M1690.36 75.15C1690.36 77.1 1690.21 80.1 1689.76 81.9H1631.26C1633.66 90.45 1640.41 95.85 1649.71 95.85C1656.91 95.85 1662.91 92.85 1665.76 88.8H1689.16C1683.46 104.25 1668.16 114.9 1649.26 114.9C1625.56 114.9 1607.86 97.65 1607.86 74.85C1607.86 52.05 1625.56 34.8 1649.11 34.8C1672.51 34.8 1690.36 51.9 1690.36 75.15ZM1649.11 53.7C1640.56 53.7 1633.96 58.95 1631.41 67.35H1666.81C1664.56 58.95 1657.51 53.7 1649.11 53.7Z" fill="#0274C6"/>
<path d="M18.75 390.6C8.1 390.6 0 382.65 0 372C0 361.35 8.1 353.4 18.75 353.4C29.25 353.4 37.35 361.35 37.35 372C37.35 382.65 29.25 390.6 18.75 390.6Z" fill="#0274C6"/>
<path d="M220.15 391.2H224.5V413.1H217.6C201.1 413.1 189.4 406.65 182.35 393.9L172.45 377.7H164.35V413.1H141.1V309.6H187.15C207.7 309.6 223.15 324.45 223.15 344.25C223.15 359.7 213.4 371.85 199.15 376.05L204.55 383.55C208.15 388.5 213.4 391.2 220.15 391.2ZM164.35 331.5V357.45H186.7C193.9 357.45 199.3 351.9 199.3 344.55C199.3 337.05 193.9 331.5 186.7 331.5H164.35Z" fill="#0274C6"/>
<path d="M272.304 414.9C248.754 414.9 231.054 397.65 231.054 374.85C231.054 352.05 248.754 334.8 272.304 334.8C295.854 334.8 313.554 352.05 313.554 374.85C313.554 397.65 295.854 414.9 272.304 414.9ZM272.304 393.75C283.104 393.75 291.054 385.65 291.054 374.85C291.054 364.05 283.104 355.95 272.304 355.95C261.504 355.95 253.554 364.05 253.554 374.85C253.554 385.65 261.504 393.75 272.304 393.75Z" fill="#0274C6"/>
<path d="M371.821 334.8C392.971 334.8 408.721 352.05 408.721 374.85C408.721 397.65 392.971 414.9 371.821 414.9C362.371 414.9 354.421 411 348.721 404.55V413.1H326.821V305.1H348.721V345.15C354.421 338.7 362.371 334.8 371.821 334.8ZM367.471 393.75C378.271 393.75 386.221 385.65 386.221 374.85C386.221 364.05 378.271 355.95 367.471 355.95C356.671 355.95 348.721 364.05 348.721 374.85C348.721 385.65 356.671 393.75 367.471 393.75Z" fill="#0274C6"/>
<path d="M446.032 328.8L461.032 306.6H488.482L468.982 328.8H446.032ZM458.632 414.9C435.082 414.9 417.382 397.65 417.382 374.85C417.382 352.05 435.082 334.8 458.632 334.8C482.182 334.8 499.882 352.05 499.882 374.85C499.882 397.65 482.182 414.9 458.632 414.9ZM458.632 393.75C469.432 393.75 477.382 385.65 477.382 374.85C477.382 364.05 469.432 355.95 458.632 355.95C447.832 355.95 439.882 364.05 439.882 374.85C439.882 385.65 447.832 393.75 458.632 393.75Z" fill="#0274C6"/>
<path d="M556.405 356.55H539.755V384.6C539.755 390 543.055 393.15 548.755 393.15H556.405V413.1H545.455C527.155 413.1 517.855 404.55 517.855 388.2V356.55H506.305V336.6H512.755C516.955 336.6 519.055 334.5 519.055 330.3V316.5H539.755V336.6H556.405V356.55Z" fill="#0274C6"/>
<path d="M581.667 326.85C574.017 326.85 568.167 321.15 568.167 313.35C568.167 305.7 574.017 300 581.667 300C589.467 300 595.317 305.7 595.317 313.35C595.317 321.15 589.467 326.85 581.667 326.85ZM570.717 413.1V336.6H592.617V413.1H570.717Z" fill="#0274C6"/>
<path d="M647.011 414.9C623.461 414.9 605.761 397.65 605.761 374.85C605.761 352.05 623.461 334.8 647.011 334.8C667.561 334.8 683.911 348.15 687.361 366.75H664.111C661.111 360.3 654.661 355.95 647.011 355.95C636.211 355.95 628.261 364.05 628.261 374.85C628.261 385.65 636.211 393.75 647.011 393.75C654.661 393.75 661.111 389.4 664.111 382.95H687.361C683.911 401.55 667.561 414.9 647.011 414.9Z" fill="#0274C6"/>
<path d="M783.613 391.95H785.113V413.1H778.963C768.163 413.1 760.963 409.35 757.663 402C751.813 409.95 743.113 414.9 732.463 414.9C711.463 414.9 695.563 397.65 695.563 374.85C695.563 352.05 711.463 334.8 732.463 334.8C741.913 334.8 749.863 338.7 755.563 345V336.6H777.463V385.8C777.463 389.7 779.713 391.95 783.613 391.95ZM736.813 393.75C747.613 393.75 755.563 385.65 755.563 374.85C755.563 364.05 747.613 355.95 736.813 355.95C726.163 355.95 718.213 364.05 718.213 374.85C718.213 385.65 726.163 393.75 736.813 393.75Z" fill="#0274C6"/>
<path d="M907.109 375.15C907.109 377.1 906.959 380.1 906.509 381.9H848.009C850.409 390.45 857.159 395.85 866.459 395.85C873.659 395.85 879.659 392.85 882.509 388.8H905.909C900.209 404.25 884.909 414.9 866.009 414.9C842.309 414.9 824.609 397.65 824.609 374.85C824.609 352.05 842.309 334.8 865.859 334.8C889.259 334.8 907.109 351.9 907.109 375.15ZM865.859 353.7C857.309 353.7 850.709 358.95 848.159 367.35H883.559C881.309 358.95 874.259 353.7 865.859 353.7Z" fill="#0274C6"/>
<path d="M977.045 391.2H1023.24V413.1H953.795V309.6H1022.49V331.5H977.045V350.1H1017.54V372H977.045V391.2Z" fill="#0274C6"/>
<path d="M1064.55 413.1C1047 413.1 1038 405 1038 389.25V305.1H1059.9V385.65C1059.9 390.45 1062.75 393.15 1067.7 393.15H1072.35V413.1H1064.55Z" fill="#0274C6"/>
<path d="M1159.94 375.15C1159.94 377.1 1159.79 380.1 1159.34 381.9H1100.84C1103.24 390.45 1109.99 395.85 1119.29 395.85C1126.49 395.85 1132.49 392.85 1135.34 388.8H1158.74C1153.04 404.25 1137.74 414.9 1118.84 414.9C1095.14 414.9 1077.44 397.65 1077.44 374.85C1077.44 352.05 1095.14 334.8 1118.69 334.8C1142.09 334.8 1159.94 351.9 1159.94 375.15ZM1118.69 353.7C1110.14 353.7 1103.54 358.95 1100.99 367.35H1136.39C1134.14 358.95 1127.09 353.7 1118.69 353.7Z" fill="#0274C6"/>
<path d="M1216.02 356.55H1199.37V384.6C1199.37 390 1202.67 393.15 1208.37 393.15H1216.02V413.1H1205.07C1186.77 413.1 1177.47 404.55 1177.47 388.2V356.55H1165.92V336.6H1172.37C1176.57 336.6 1178.67 334.5 1178.67 330.3V316.5H1199.37V336.6H1216.02V356.55Z" fill="#0274C6"/>
<path d="M1251.94 347.4C1257.79 339.9 1265.74 335.4 1275.04 335.4V357.9C1260.19 357.9 1251.94 365.55 1251.94 377.4V413.1H1230.04V336.6H1251.94V347.4Z" fill="#0274C6"/>
<path d="M1320.69 318.45L1313.19 328.8H1292.64L1307.49 306.6H1333.89L1348.59 328.8H1328.19L1320.69 318.45ZM1320.69 334.8C1344.24 334.8 1361.94 352.05 1361.94 374.85C1361.94 397.65 1344.24 414.9 1320.69 414.9C1297.14 414.9 1279.44 397.65 1279.44 374.85C1279.44 352.05 1297.14 334.8 1320.69 334.8ZM1320.69 393.75C1331.49 393.75 1339.44 385.65 1339.44 374.85C1339.44 364.05 1331.49 355.95 1320.69 355.95C1309.89 355.95 1301.94 364.05 1301.94 374.85C1301.94 385.65 1309.89 393.75 1320.69 393.75Z" fill="#0274C6"/>
<path d="M1455.46 391.95H1456.96V413.1H1450.81C1435.36 413.1 1427.41 405.45 1427.41 390.6V371.25C1427.41 361.95 1421.56 355.95 1412.71 355.95C1403.26 355.95 1396.81 362.1 1396.81 371.55V413.1H1374.91V336.6H1396.81V345C1402.66 338.25 1410.61 334.8 1420.06 334.8C1437.61 334.8 1449.31 346.35 1449.31 363.9V385.8C1449.31 389.7 1451.56 391.95 1455.46 391.95Z" fill="#0274C6"/>
<path d="M1478.44 326.85C1470.79 326.85 1464.94 321.15 1464.94 313.35C1464.94 305.7 1470.79 300 1478.44 300C1486.24 300 1492.09 305.7 1492.09 313.35C1492.09 321.15 1486.24 326.85 1478.44 326.85ZM1467.49 413.1V336.6H1489.39V413.1H1467.49Z" fill="#0274C6"/>
<path d="M1543.79 414.9C1520.24 414.9 1502.54 397.65 1502.54 374.85C1502.54 352.05 1520.24 334.8 1543.79 334.8C1564.34 334.8 1580.69 348.15 1584.14 366.75H1560.89C1557.89 360.3 1551.44 355.95 1543.79 355.95C1532.99 355.95 1525.04 364.05 1525.04 374.85C1525.04 385.65 1532.99 393.75 1543.79 393.75C1551.44 393.75 1557.89 389.4 1560.89 382.95H1584.14C1580.69 401.55 1564.34 414.9 1543.79 414.9Z" fill="#0274C6"/>
<path d="M1680.39 391.95H1681.89V413.1H1675.74C1664.94 413.1 1657.74 409.35 1654.44 402C1648.59 409.95 1639.89 414.9 1629.24 414.9C1608.24 414.9 1592.34 397.65 1592.34 374.85C1592.34 352.05 1608.24 334.8 1629.24 334.8C1638.69 334.8 1646.64 338.7 1652.34 345V336.6H1674.24V385.8C1674.24 389.7 1676.49 391.95 1680.39 391.95ZM1633.59 393.75C1644.39 393.75 1652.34 385.65 1652.34 374.85C1652.34 364.05 1644.39 355.95 1633.59 355.95C1622.94 355.95 1614.99 364.05 1614.99 374.85C1614.99 385.65 1622.94 393.75 1633.59 393.75Z" fill="#0274C6"/>
<path d="M18.75 690.6C8.1 690.6 0 682.65 0 672C0 661.35 8.1 653.4 18.75 653.4C29.25 653.4 37.35 661.35 37.35 672C37.35 682.65 29.25 690.6 18.75 690.6Z" fill="#0274C6"/>
<path d="M227.05 609.6H256.75V713.1H233.5V649.35L206.8 713.1H190.9L164.35 649.65V713.1H141.1V609.6H171.1L199 676.8L227.05 609.6Z" fill="#0274C6"/>
<path d="M273.751 628.8L288.751 606.6H316.201L296.701 628.8H273.751ZM275.251 713.1V636.6H297.151V713.1H275.251Z" fill="#0274C6"/>
<path d="M398.359 691.95H399.859V713.1H393.709C382.909 713.1 375.709 709.35 372.409 702C366.559 709.95 357.859 714.9 347.209 714.9C326.209 714.9 310.309 697.65 310.309 674.85C310.309 652.05 326.209 634.8 347.209 634.8C356.659 634.8 364.609 638.7 370.309 645V605.1H392.209V685.8C392.209 689.7 394.459 691.95 398.359 691.95ZM351.559 693.75C362.359 693.75 370.309 685.65 370.309 674.85C370.309 664.05 362.359 655.95 351.559 655.95C340.909 655.95 332.959 664.05 332.959 674.85C332.959 685.65 340.909 693.75 351.559 693.75Z" fill="#0274C6"/>
<path d="M422.439 626.85C414.789 626.85 408.939 621.15 408.939 613.35C408.939 605.7 414.789 600 422.439 600C430.239 600 436.089 605.7 436.089 613.35C436.089 621.15 430.239 626.85 422.439 626.85ZM411.489 713.1V636.6H433.389V713.1H411.489Z" fill="#0274C6"/>
<path d="M534.882 691.95H536.382V713.1H530.232C519.432 713.1 512.232 709.35 508.932 702C503.082 709.95 494.382 714.9 483.732 714.9C462.732 714.9 446.832 697.65 446.832 674.85C446.832 652.05 462.732 634.8 483.732 634.8C493.182 634.8 501.132 638.7 506.832 645V636.6H528.732V685.8C528.732 689.7 530.982 691.95 534.882 691.95ZM488.082 693.75C498.882 693.75 506.832 685.65 506.832 674.85C506.832 664.05 498.882 655.95 488.082 655.95C477.432 655.95 469.482 664.05 469.482 674.85C469.482 685.65 477.432 693.75 488.082 693.75Z" fill="#0274C6"/>
<path d="M658.378 675.15C658.378 677.1 658.228 680.1 657.778 681.9H599.278C601.678 690.45 608.428 695.85 617.728 695.85C624.928 695.85 630.928 692.85 633.778 688.8H657.178C651.478 704.25 636.178 714.9 617.278 714.9C593.578 714.9 575.878 697.65 575.878 674.85C575.878 652.05 593.578 634.8 617.128 634.8C640.528 634.8 658.378 651.9 658.378 675.15ZM617.128 653.7C608.578 653.7 601.978 658.95 599.428 667.35H634.828C632.578 658.95 625.528 653.7 617.128 653.7Z" fill="#0274C6"/>
<path d="M754.714 714.9C723.514 714.9 699.964 691.8 699.964 661.35C699.964 630.9 723.514 607.8 754.714 607.8C781.414 607.8 802.714 624.9 808.114 649.05H783.364C778.714 637.8 767.914 630.15 754.714 630.15C737.164 630.15 723.814 643.5 723.814 661.35C723.814 679.2 737.164 692.55 754.714 692.55C767.914 692.55 778.714 684.9 783.364 673.65H808.114C802.714 697.8 781.414 714.9 754.714 714.9Z" fill="#0274C6"/>
<path d="M858.095 714.9C834.545 714.9 816.845 697.65 816.845 674.85C816.845 652.05 834.545 634.8 858.095 634.8C881.645 634.8 899.345 652.05 899.345 674.85C899.345 697.65 881.645 714.9 858.095 714.9ZM858.095 693.75C868.895 693.75 876.845 685.65 876.845 674.85C876.845 664.05 868.895 655.95 858.095 655.95C847.295 655.95 839.345 664.05 839.345 674.85C839.345 685.65 847.295 693.75 858.095 693.75Z" fill="#0274C6"/>
<path d="M1039.36 691.95H1040.86V713.1H1034.71C1019.26 713.1 1011.31 705.45 1011.31 690.6V669.75C1011.31 661.5 1006.06 655.95 998.112 655.95C989.562 655.95 983.712 661.65 983.712 670.05V713.1H961.812V669.75C961.812 661.5 956.562 655.95 948.612 655.95C940.062 655.95 934.212 661.65 934.212 670.05V713.1H912.312V636.6H934.212V644.7C939.762 638.25 947.112 634.8 955.962 634.8C966.912 634.8 975.462 639.75 980.112 648C985.962 639.3 994.662 634.8 1005.46 634.8C1022.11 634.8 1033.21 646.05 1033.21 663.15V685.8C1033.21 689.7 1035.46 691.95 1039.36 691.95Z" fill="#0274C6"/>
<path d="M1127.99 691.95H1129.49V713.1H1123.34C1112.54 713.1 1105.34 709.35 1102.04 702C1096.34 710.4 1087.94 714.9 1077.74 714.9C1060.79 714.9 1049.54 703.5 1049.54 686.1V636.6H1071.44V679.5C1071.44 688.05 1076.84 693.75 1085.09 693.75C1093.94 693.75 1099.94 687.9 1099.94 679.2V636.6H1121.84V685.8C1121.84 689.7 1124.09 691.95 1127.99 691.95Z" fill="#0274C6"/>
<path d="M1221.08 691.95H1222.58V713.1H1216.43C1200.98 713.1 1193.03 705.45 1193.03 690.6V671.25C1193.03 661.95 1187.18 655.95 1178.33 655.95C1168.88 655.95 1162.43 662.1 1162.43 671.55V713.1H1140.53V636.6H1162.43V645C1168.28 638.25 1176.23 634.8 1185.68 634.8C1203.23 634.8 1214.93 646.35 1214.93 663.9V685.8C1214.93 689.7 1217.18 691.95 1221.08 691.95Z" fill="#0274C6"/>
<path d="M1244.07 626.85C1236.42 626.85 1230.57 621.15 1230.57 613.35C1230.57 605.7 1236.42 600 1244.07 600C1251.87 600 1257.72 605.7 1257.72 613.35C1257.72 621.15 1251.87 626.85 1244.07 626.85ZM1233.12 713.1V636.6H1255.02V713.1H1233.12Z" fill="#0274C6"/>
<path d="M1309.41 714.9C1285.86 714.9 1268.16 697.65 1268.16 674.85C1268.16 652.05 1285.86 634.8 1309.41 634.8C1329.96 634.8 1346.31 648.15 1349.76 666.75H1326.51C1323.51 660.3 1317.06 655.95 1309.41 655.95C1298.61 655.95 1290.66 664.05 1290.66 674.85C1290.66 685.65 1298.61 693.75 1309.41 693.75C1317.06 693.75 1323.51 689.4 1326.51 682.95H1349.76C1346.31 701.55 1329.96 714.9 1309.41 714.9Z" fill="#0274C6"/>
<path d="M1446.02 691.95H1447.52V713.1H1441.37C1430.57 713.1 1423.37 709.35 1420.07 702C1414.22 709.95 1405.52 714.9 1394.87 714.9C1373.87 714.9 1357.97 697.65 1357.97 674.85C1357.97 652.05 1373.87 634.8 1394.87 634.8C1404.32 634.8 1412.27 638.7 1417.97 645V636.6H1439.87V685.8C1439.87 689.7 1442.12 691.95 1446.02 691.95ZM1399.22 693.75C1410.02 693.75 1417.97 685.65 1417.97 674.85C1417.97 664.05 1410.02 655.95 1399.22 655.95C1388.57 655.95 1380.62 664.05 1380.62 674.85C1380.62 685.65 1388.57 693.75 1399.22 693.75Z" fill="#0274C6"/>
<path d="M1495.74 693.75C1503.39 693.75 1509.84 689.4 1512.84 682.95H1536.09C1533.09 699.15 1520.34 711.3 1503.54 714.3L1500.84 717.45C1508.94 718.35 1514.94 725.1 1514.94 733.65C1514.94 743.25 1506.99 750.75 1496.34 750.75C1486.14 750.75 1478.49 744 1477.74 735H1490.94C1491.69 737.4 1493.79 738.9 1496.34 738.9C1499.34 738.9 1501.89 736.65 1501.89 733.65C1501.89 730.65 1499.19 728.4 1496.34 728.4C1494.24 728.4 1492.74 729.45 1491.99 730.35L1479.84 724.95L1488.39 714.3C1468.59 711.15 1454.49 695.25 1454.49 674.85C1454.49 652.05 1472.19 634.8 1495.74 634.8C1516.29 634.8 1532.64 648.15 1536.09 666.75H1512.84C1509.84 660.3 1503.39 655.95 1495.74 655.95C1484.94 655.95 1476.99 664.05 1476.99 674.85C1476.99 685.65 1484.94 693.75 1495.74 693.75Z" fill="#0274C6"/>
<path d="M1581.04 622.35C1577.89 622.35 1575.79 624.75 1575.79 627.6H1560.49C1560.49 615 1566.49 605.1 1578.19 605.1C1586.59 605.1 1590.19 610.65 1594.84 610.65C1597.84 610.65 1599.94 608.4 1599.94 605.4H1615.39C1615.39 618.3 1609.39 627.9 1597.54 627.9C1589.14 627.9 1585.54 622.35 1581.04 622.35ZM1632.34 691.95H1633.84V713.1H1627.69C1616.89 713.1 1609.69 709.35 1606.39 702C1600.54 709.95 1591.84 714.9 1581.19 714.9C1560.19 714.9 1544.29 697.65 1544.29 674.85C1544.29 652.05 1560.19 634.8 1581.19 634.8C1590.64 634.8 1598.59 638.7 1604.29 645V636.6H1626.19V685.8C1626.19 689.7 1628.44 691.95 1632.34 691.95ZM1585.54 693.75C1596.34 693.75 1604.29 685.65 1604.29 674.85C1604.29 664.05 1596.34 655.95 1585.54 655.95C1574.89 655.95 1566.94 664.05 1566.94 674.85C1566.94 685.65 1574.89 693.75 1585.54 693.75Z" fill="#0274C6"/>
<path d="M1682.07 714.9C1658.52 714.9 1640.82 697.65 1640.82 674.85C1640.82 652.05 1658.52 634.8 1682.07 634.8C1705.62 634.8 1723.32 652.05 1723.32 674.85C1723.32 697.65 1705.62 714.9 1682.07 714.9ZM1682.07 693.75C1692.87 693.75 1700.82 685.65 1700.82 674.85C1700.82 664.05 1692.87 655.95 1682.07 655.95C1671.27 655.95 1663.32 664.05 1663.32 674.85C1663.32 685.65 1671.27 693.75 1682.07 693.75Z" fill="#0274C6"/>
<path d="M18.75 990.6C8.1 990.6 0 982.65 0 972C0 961.35 8.1 953.4 18.75 953.4C29.25 953.4 37.35 961.35 37.35 972C37.35 982.65 29.25 990.6 18.75 990.6Z" fill="#0274C6"/>
<path d="M207.55 931.5H164.35V951.15H201.7V973.05H164.35V1013.1H141.1V909.6H207.55V931.5Z" fill="#0274C6"/>
<path d="M294.364 975.15C294.364 977.1 294.214 980.1 293.764 981.9H235.264C237.664 990.45 244.414 995.85 253.714 995.85C260.914 995.85 266.914 992.85 269.764 988.8H293.164C287.464 1004.25 272.164 1014.9 253.264 1014.9C229.564 1014.9 211.864 997.65 211.864 974.85C211.864 952.05 229.564 934.8 253.114 934.8C276.514 934.8 294.364 951.9 294.364 975.15ZM253.114 953.7C244.564 953.7 237.964 958.95 235.414 967.35H270.814C268.564 958.95 261.514 953.7 253.114 953.7Z" fill="#0274C6"/>
<path d="M328.792 947.4C334.642 939.9 342.592 935.4 351.892 935.4V957.9C337.042 957.9 328.792 965.55 328.792 977.4V1013.1H306.892V936.6H328.792V947.4Z" fill="#0274C6"/>
<path d="M385.188 947.4C391.038 939.9 398.988 935.4 408.288 935.4V957.9C393.438 957.9 385.188 965.55 385.188 977.4V1013.1H363.288V936.6H385.188V947.4Z" fill="#0274C6"/>
<path d="M501.045 991.95H502.545V1013.1H496.395C485.595 1013.1 478.395 1009.35 475.095 1002C469.245 1009.95 460.545 1014.9 449.895 1014.9C428.895 1014.9 412.995 997.65 412.995 974.85C412.995 952.05 428.895 934.8 449.895 934.8C459.345 934.8 467.295 938.7 472.995 945V936.6H494.895V985.8C494.895 989.7 497.145 991.95 501.045 991.95ZM454.245 993.75C465.045 993.75 472.995 985.65 472.995 974.85C472.995 964.05 465.045 955.95 454.245 955.95C443.595 955.95 435.645 964.05 435.645 974.85C435.645 985.65 443.595 993.75 454.245 993.75Z" fill="#0274C6"/>
<path d="M640.631 991.95H642.131V1013.1H635.981C620.531 1013.1 612.581 1005.45 612.581 990.6V969.75C612.581 961.5 607.331 955.95 599.381 955.95C590.831 955.95 584.981 961.65 584.981 970.05V1013.1H563.081V969.75C563.081 961.5 557.831 955.95 549.881 955.95C541.331 955.95 535.481 961.65 535.481 970.05V1013.1H513.581V936.6H535.481V944.7C541.031 938.25 548.381 934.8 557.231 934.8C568.181 934.8 576.731 939.75 581.381 948C587.231 939.3 595.931 934.8 606.731 934.8C623.381 934.8 634.481 946.05 634.481 963.15V985.8C634.481 989.7 636.731 991.95 640.631 991.95Z" fill="#0274C6"/>
<path d="M730.595 975.15C730.595 977.1 730.445 980.1 729.995 981.9H671.495C673.895 990.45 680.645 995.85 689.945 995.85C697.145 995.85 703.145 992.85 705.995 988.8H729.395C723.695 1004.25 708.395 1014.9 689.495 1014.9C665.795 1014.9 648.095 997.65 648.095 974.85C648.095 952.05 665.795 934.8 689.345 934.8C712.745 934.8 730.595 951.9 730.595 975.15ZM689.345 953.7C680.795 953.7 674.195 958.95 671.645 967.35H707.045C704.795 958.95 697.745 953.7 689.345 953.7Z" fill="#0274C6"/>
<path d="M823.672 991.95H825.172V1013.1H819.022C803.572 1013.1 795.622 1005.45 795.622 990.6V971.25C795.622 961.95 789.772 955.95 780.922 955.95C771.472 955.95 765.022 962.1 765.022 971.55V1013.1H743.122V936.6H765.022V945C770.872 938.25 778.822 934.8 788.272 934.8C805.822 934.8 817.522 946.35 817.522 963.9V985.8C817.522 989.7 819.772 991.95 823.672 991.95Z" fill="#0274C6"/>
<path d="M879.403 956.55H862.753V984.6C862.753 990 866.053 993.15 871.753 993.15H879.403V1013.1H868.453C850.153 1013.1 840.853 1004.55 840.853 988.2V956.55H829.303V936.6H835.753C839.953 936.6 842.053 934.5 842.053 930.3V916.5H862.753V936.6H879.403V956.55Z" fill="#0274C6"/>
<path d="M976.093 991.95H977.593V1013.1H971.443C960.643 1013.1 953.443 1009.35 950.143 1002C944.293 1009.95 935.593 1014.9 924.943 1014.9C903.943 1014.9 888.043 997.65 888.043 974.85C888.043 952.05 903.943 934.8 924.943 934.8C934.393 934.8 942.343 938.7 948.043 945V936.6H969.943V985.8C969.943 989.7 972.193 991.95 976.093 991.95ZM929.293 993.75C940.093 993.75 948.043 985.65 948.043 974.85C948.043 964.05 940.093 955.95 929.293 955.95C918.643 955.95 910.693 964.05 910.693 974.85C910.693 985.65 918.643 993.75 929.293 993.75Z" fill="#0274C6"/>
<path d="M1015.33 1014.9C997.03 1014.9 983.98 1003.65 983.98 989.85H1005.88C1005.88 994.05 1010.08 997.5 1015.48 997.5C1019.83 997.5 1024.03 995.25 1024.03 991.5C1024.03 987.75 1019.53 985.05 1010.23 983.25C993.73 979.8 985.18 971.55 985.18 959.25C985.18 943.35 998.98 934.8 1014.58 934.8C1031.98 934.8 1044.73 945.45 1044.73 958.8H1022.83C1022.83 955.2 1019.23 952.2 1014.58 952.2C1010.53 952.2 1006.93 954.6 1006.93 957.75C1006.93 961.35 1011.28 963.75 1021.18 966C1037.83 969.75 1045.78 977.4 1045.78 989.55C1045.78 1005.75 1031.83 1014.9 1015.33 1014.9Z" fill="#0274C6"/>
<path d="M1169.61 975.15C1169.61 977.1 1169.46 980.1 1169.01 981.9H1110.51C1112.91 990.45 1119.66 995.85 1128.96 995.85C1136.16 995.85 1142.16 992.85 1145.01 988.8H1168.41C1162.71 1004.25 1147.41 1014.9 1128.51 1014.9C1104.81 1014.9 1087.11 997.65 1087.11 974.85C1087.11 952.05 1104.81 934.8 1128.36 934.8C1151.76 934.8 1169.61 951.9 1169.61 975.15ZM1128.36 953.7C1119.81 953.7 1113.21 958.95 1110.66 967.35H1146.06C1143.81 958.95 1136.76 953.7 1128.36 953.7Z" fill="#0274C6"/>
<path d="M1239.54 991.2H1285.74V1013.1H1216.29V909.6H1284.99V931.5H1239.54V950.1H1280.04V972H1239.54V991.2Z" fill="#0274C6"/>
<path d="M1380.17 991.95H1381.67V1013.1H1375.52C1360.07 1013.1 1352.12 1005.45 1352.12 990.6V971.25C1352.12 961.95 1346.27 955.95 1337.42 955.95C1327.97 955.95 1321.52 962.1 1321.52 971.55V1013.1H1299.62V936.6H1321.52V945C1327.37 938.25 1335.32 934.8 1344.77 934.8C1362.32 934.8 1374.02 946.35 1374.02 963.9V985.8C1374.02 989.7 1376.27 991.95 1380.17 991.95Z" fill="#0274C6"/>
<path d="M1447.99 936.6H1469.89V1004.85C1469.89 1028.1 1454.14 1043.4 1430.44 1043.4C1410.79 1043.4 1396.84 1033.05 1392.04 1016.4H1414.69C1417.39 1020.75 1423.39 1023.45 1430.44 1023.45C1441.09 1023.45 1447.99 1015.95 1447.99 1004.7V1002.3C1442.29 1008.6 1434.34 1012.35 1424.89 1012.35C1403.74 1012.35 1387.99 995.55 1387.99 973.5C1387.99 951.45 1403.74 934.8 1424.89 934.8C1434.34 934.8 1442.29 938.55 1447.99 944.85V936.6ZM1429.24 992.4C1440.04 992.4 1447.99 984.3 1447.99 973.5C1447.99 962.85 1440.04 954.6 1429.24 954.6C1418.44 954.6 1410.49 962.85 1410.49 973.5C1410.49 984.3 1418.44 992.4 1429.24 992.4Z" fill="#0274C6"/>
<path d="M1564.97 975.15C1564.97 977.1 1564.82 980.1 1564.37 981.9H1505.87C1508.27 990.45 1515.02 995.85 1524.32 995.85C1531.52 995.85 1537.52 992.85 1540.37 988.8H1563.77C1558.07 1004.25 1542.77 1014.9 1523.87 1014.9C1500.17 1014.9 1482.47 997.65 1482.47 974.85C1482.47 952.05 1500.17 934.8 1523.72 934.8C1547.12 934.8 1564.97 951.9 1564.97 975.15ZM1523.72 953.7C1515.17 953.7 1508.57 958.95 1506.02 967.35H1541.42C1539.17 958.95 1532.12 953.7 1523.72 953.7Z" fill="#0274C6"/>
<path d="M1658.05 991.95H1659.55V1013.1H1653.4C1637.95 1013.1 1630 1005.45 1630 990.6V971.25C1630 961.95 1624.15 955.95 1615.3 955.95C1605.85 955.95 1599.4 962.1 1599.4 971.55V1013.1H1577.5V936.6H1599.4V945C1605.25 938.25 1613.2 934.8 1622.65 934.8C1640.2 934.8 1651.9 946.35 1651.9 963.9V985.8C1651.9 989.7 1654.15 991.95 1658.05 991.95Z" fill="#0274C6"/>
<path d="M1750.19 991.95H1751.69V1013.1H1745.54C1730.09 1013.1 1722.14 1005.45 1722.14 990.6V971.25C1722.14 961.95 1716.29 955.95 1707.44 955.95C1697.99 955.95 1691.54 962.1 1691.54 971.55V1013.1H1669.64V905.1H1691.54V945.6C1697.39 938.55 1705.34 934.8 1714.79 934.8C1732.34 934.8 1744.04 946.35 1744.04 963.9V985.8C1744.04 989.7 1746.29 991.95 1750.19 991.95Z" fill="#0274C6"/>
<path d="M1846.06 991.95H1847.56V1013.1H1841.41C1830.61 1013.1 1823.41 1009.35 1820.11 1002C1814.26 1009.95 1805.56 1014.9 1794.91 1014.9C1773.91 1014.9 1758.01 997.65 1758.01 974.85C1758.01 952.05 1773.91 934.8 1794.91 934.8C1804.36 934.8 1812.31 938.7 1818.01 945V936.6H1839.91V985.8C1839.91 989.7 1842.16 991.95 1846.06 991.95ZM1799.26 993.75C1810.06 993.75 1818.01 985.65 1818.01 974.85C1818.01 964.05 1810.06 955.95 1799.26 955.95C1788.61 955.95 1780.66 964.05 1780.66 974.85C1780.66 985.65 1788.61 993.75 1799.26 993.75Z" fill="#0274C6"/>
<path d="M1880.5 947.4C1886.35 939.9 1894.3 935.4 1903.6 935.4V957.9C1888.75 957.9 1880.5 965.55 1880.5 977.4V1013.1H1858.6V936.6H1880.5V947.4Z" fill="#0274C6"/>
<path d="M1926.25 926.85C1918.6 926.85 1912.75 921.15 1912.75 913.35C1912.75 905.7 1918.6 900 1926.25 900C1934.05 900 1939.9 905.7 1939.9 913.35C1939.9 921.15 1934.05 926.85 1926.25 926.85ZM1915.3 1013.1V936.6H1937.2V1013.1H1915.3Z" fill="#0274C6"/>
<path d="M2038.69 991.95H2040.19V1013.1H2034.04C2023.24 1013.1 2016.04 1009.35 2012.74 1002C2006.89 1009.95 1998.19 1014.9 1987.54 1014.9C1966.54 1014.9 1950.64 997.65 1950.64 974.85C1950.64 952.05 1966.54 934.8 1987.54 934.8C1996.99 934.8 2004.94 938.7 2010.64 945V936.6H2032.54V985.8C2032.54 989.7 2034.79 991.95 2038.69 991.95ZM1991.89 993.75C2002.69 993.75 2010.64 985.65 2010.64 974.85C2010.64 964.05 2002.69 955.95 1991.89 955.95C1981.24 955.95 1973.29 964.05 1973.29 974.85C1973.29 985.65 1981.24 993.75 1991.89 993.75Z" fill="#0274C6"/>
<path d="M18.75 1290.6C8.1 1290.6 0 1282.65 0 1272C0 1261.35 8.1 1253.4 18.75 1253.4C29.25 1253.4 37.35 1261.35 37.35 1272C37.35 1282.65 29.25 1290.6 18.75 1290.6Z" fill="#0274C6"/>
<path d="M188.35 1209.6C209.05 1209.6 224.65 1224.75 224.65 1244.85C224.65 1264.95 209.05 1280.1 188.35 1280.1H164.35V1313.1H141.1V1209.6H188.35ZM187.75 1258.2C195.25 1258.2 200.8 1252.35 200.8 1244.85C200.8 1237.2 195.25 1231.5 187.75 1231.5H164.35V1258.2H187.75Z" fill="#0274C6"/>
<path d="M311.21 1275.15C311.21 1277.1 311.06 1280.1 310.61 1281.9H252.11C254.51 1290.45 261.26 1295.85 270.56 1295.85C277.76 1295.85 283.76 1292.85 286.61 1288.8H310.01C304.31 1304.25 289.01 1314.9 270.11 1314.9C246.41 1314.9 228.71 1297.65 228.71 1274.85C228.71 1252.05 246.41 1234.8 269.96 1234.8C293.36 1234.8 311.21 1251.9 311.21 1275.15ZM269.96 1253.7C261.41 1253.7 254.81 1258.95 252.26 1267.35H287.66C285.41 1258.95 278.36 1253.7 269.96 1253.7Z" fill="#0274C6"/>
<path d="M404.288 1291.95H405.788V1313.1H399.638C384.188 1313.1 376.238 1305.45 376.238 1290.6V1271.25C376.238 1261.95 370.388 1255.95 361.538 1255.95C352.087 1255.95 345.638 1262.1 345.638 1271.55V1313.1H323.737V1236.6H345.638V1245C351.488 1238.25 359.438 1234.8 368.888 1234.8C386.438 1234.8 398.138 1246.35 398.138 1263.9V1285.8C398.138 1289.7 400.388 1291.95 404.288 1291.95Z" fill="#0274C6"/>
<path d="M442.869 1314.9C424.569 1314.9 411.519 1303.65 411.519 1289.85H433.419C433.419 1294.05 437.619 1297.5 443.019 1297.5C447.369 1297.5 451.569 1295.25 451.569 1291.5C451.569 1287.75 447.069 1285.05 437.769 1283.25C421.269 1279.8 412.719 1271.55 412.719 1259.25C412.719 1243.35 426.519 1234.8 442.119 1234.8C459.519 1234.8 472.269 1245.45 472.269 1258.8H450.369C450.369 1255.2 446.769 1252.2 442.119 1252.2C438.069 1252.2 434.469 1254.6 434.469 1257.75C434.469 1261.35 438.819 1263.75 448.719 1266C465.369 1269.75 473.319 1277.4 473.319 1289.55C473.319 1305.75 459.369 1314.9 442.869 1314.9Z" fill="#0274C6"/>
<path d="M570.039 1291.95H571.539V1313.1H565.389C554.589 1313.1 547.389 1309.35 544.089 1302C538.239 1309.95 529.539 1314.9 518.889 1314.9C497.889 1314.9 481.989 1297.65 481.989 1274.85C481.989 1252.05 497.889 1234.8 518.889 1234.8C528.339 1234.8 536.289 1238.7 541.989 1245V1236.6H563.889V1285.8C563.889 1289.7 566.139 1291.95 570.039 1291.95ZM523.239 1293.75C534.039 1293.75 541.989 1285.65 541.989 1274.85C541.989 1264.05 534.039 1255.95 523.239 1255.95C512.589 1255.95 504.639 1264.05 504.639 1274.85C504.639 1285.65 512.589 1293.75 523.239 1293.75Z" fill="#0274C6"/>
<path d="M709.625 1291.95H711.125V1313.1H704.975C689.525 1313.1 681.575 1305.45 681.575 1290.6V1269.75C681.575 1261.5 676.325 1255.95 668.375 1255.95C659.825 1255.95 653.975 1261.65 653.975 1270.05V1313.1H632.075V1269.75C632.075 1261.5 626.825 1255.95 618.875 1255.95C610.325 1255.95 604.475 1261.65 604.475 1270.05V1313.1H582.575V1236.6H604.475V1244.7C610.025 1238.25 617.375 1234.8 626.225 1234.8C637.175 1234.8 645.725 1239.75 650.375 1248C656.225 1239.3 664.925 1234.8 675.725 1234.8C692.375 1234.8 703.475 1246.05 703.475 1263.15V1285.8C703.475 1289.7 705.725 1291.95 709.625 1291.95Z" fill="#0274C6"/>
<path d="M799.589 1275.15C799.589 1277.1 799.439 1280.1 798.989 1281.9H740.489C742.889 1290.45 749.639 1295.85 758.939 1295.85C766.139 1295.85 772.139 1292.85 774.989 1288.8H798.389C792.689 1304.25 777.389 1314.9 758.489 1314.9C734.789 1314.9 717.089 1297.65 717.089 1274.85C717.089 1252.05 734.789 1234.8 758.339 1234.8C781.739 1234.8 799.589 1251.9 799.589 1275.15ZM758.339 1253.7C749.789 1253.7 743.189 1258.95 740.639 1267.35H776.039C773.789 1258.95 766.739 1253.7 758.339 1253.7Z" fill="#0274C6"/>
<path d="M892.666 1291.95H894.166V1313.1H888.016C872.566 1313.1 864.616 1305.45 864.616 1290.6V1271.25C864.616 1261.95 858.766 1255.95 849.916 1255.95C840.466 1255.95 834.016 1262.1 834.016 1271.55V1313.1H812.116V1236.6H834.016V1245C839.866 1238.25 847.816 1234.8 857.266 1234.8C874.816 1234.8 886.516 1246.35 886.516 1263.9V1285.8C886.516 1289.7 888.766 1291.95 892.666 1291.95Z" fill="#0274C6"/>
<path d="M948.397 1256.55H931.747V1284.6C931.747 1290 935.047 1293.15 940.747 1293.15H948.397V1313.1H937.447C919.147 1313.1 909.847 1304.55 909.847 1288.2V1256.55H898.297V1236.6H904.747C908.947 1236.6 911.047 1234.5 911.047 1230.3V1216.5H931.747V1236.6H948.397V1256.55Z" fill="#0274C6"/>
<path d="M997.987 1314.9C974.438 1314.9 956.737 1297.65 956.737 1274.85C956.737 1252.05 974.438 1234.8 997.987 1234.8C1021.54 1234.8 1039.24 1252.05 1039.24 1274.85C1039.24 1297.65 1021.54 1314.9 997.987 1314.9ZM997.987 1293.75C1008.79 1293.75 1016.74 1285.65 1016.74 1274.85C1016.74 1264.05 1008.79 1255.95 997.987 1255.95C987.188 1255.95 979.237 1264.05 979.237 1274.85C979.237 1285.65 987.188 1293.75 997.987 1293.75Z" fill="#0274C6"/>
<path d="M1136.01 1314.9C1104.81 1314.9 1081.26 1291.8 1081.26 1261.35C1081.26 1230.9 1104.81 1207.8 1136.01 1207.8C1162.71 1207.8 1184.01 1224.9 1189.41 1249.05H1164.66C1160.01 1237.8 1149.21 1230.15 1136.01 1230.15C1118.46 1230.15 1105.11 1243.5 1105.11 1261.35C1105.11 1279.2 1118.46 1292.55 1136.01 1292.55C1149.21 1292.55 1160.01 1284.9 1164.66 1273.65H1189.41C1184.01 1297.8 1162.71 1314.9 1136.01 1314.9Z" fill="#0274C6"/>
<path d="M1239.39 1314.9C1215.84 1314.9 1198.14 1297.65 1198.14 1274.85C1198.14 1252.05 1215.84 1234.8 1239.39 1234.8C1262.94 1234.8 1280.64 1252.05 1280.64 1274.85C1280.64 1297.65 1262.94 1314.9 1239.39 1314.9ZM1239.39 1293.75C1250.19 1293.75 1258.14 1285.65 1258.14 1274.85C1258.14 1264.05 1250.19 1255.95 1239.39 1255.95C1228.59 1255.95 1220.64 1264.05 1220.64 1274.85C1220.64 1285.65 1228.59 1293.75 1239.39 1293.75Z" fill="#0274C6"/>
<path d="M1420.66 1291.95H1422.16V1313.1H1416.01C1400.56 1313.1 1392.61 1305.45 1392.61 1290.6V1269.75C1392.61 1261.5 1387.36 1255.95 1379.41 1255.95C1370.86 1255.95 1365.01 1261.65 1365.01 1270.05V1313.1H1343.11V1269.75C1343.11 1261.5 1337.86 1255.95 1329.91 1255.95C1321.36 1255.95 1315.51 1261.65 1315.51 1270.05V1313.1H1293.61V1236.6H1315.51V1244.7C1321.06 1238.25 1328.41 1234.8 1337.26 1234.8C1348.21 1234.8 1356.76 1239.75 1361.41 1248C1367.26 1239.3 1375.96 1234.8 1386.76 1234.8C1403.41 1234.8 1414.51 1246.05 1414.51 1263.15V1285.8C1414.51 1289.7 1416.76 1291.95 1420.66 1291.95Z" fill="#0274C6"/>
<path d="M1476.89 1234.8C1498.04 1234.8 1513.79 1252.05 1513.79 1274.85C1513.79 1297.65 1498.04 1314.9 1476.89 1314.9C1467.44 1314.9 1459.49 1311 1453.79 1304.55V1341.6H1431.89V1236.6H1453.79V1245.15C1459.49 1238.7 1467.44 1234.8 1476.89 1234.8ZM1472.54 1293.75C1483.34 1293.75 1491.29 1285.65 1491.29 1274.85C1491.29 1264.05 1483.34 1255.95 1472.54 1255.95C1461.74 1255.95 1453.79 1264.05 1453.79 1274.85C1453.79 1285.65 1461.74 1293.75 1472.54 1293.75Z" fill="#0274C6"/>
<path d="M1604.21 1291.95H1605.71V1313.1H1599.56C1588.76 1313.1 1581.56 1309.35 1578.26 1302C1572.56 1310.4 1564.16 1314.9 1553.96 1314.9C1537.01 1314.9 1525.76 1303.5 1525.76 1286.1V1236.6H1547.66V1279.5C1547.66 1288.05 1553.06 1293.75 1561.31 1293.75C1570.16 1293.75 1576.16 1287.9 1576.16 1279.2V1236.6H1598.06V1285.8C1598.06 1289.7 1600.31 1291.95 1604.21 1291.95Z" fill="#0274C6"/>
<path d="M1661.92 1256.55H1645.27V1284.6C1645.27 1290 1648.57 1293.15 1654.27 1293.15H1661.92V1313.1H1650.97C1632.67 1313.1 1623.37 1304.55 1623.37 1288.2V1256.55H1611.82V1236.6H1618.27C1622.47 1236.6 1624.57 1234.5 1624.57 1230.3V1216.5H1645.27V1236.6H1661.92V1256.55Z" fill="#0274C6"/>
<path d="M1758.61 1291.95H1760.11V1313.1H1753.96C1743.16 1313.1 1735.96 1309.35 1732.66 1302C1726.81 1309.95 1718.11 1314.9 1707.46 1314.9C1686.46 1314.9 1670.56 1297.65 1670.56 1274.85C1670.56 1252.05 1686.46 1234.8 1707.46 1234.8C1716.91 1234.8 1724.86 1238.7 1730.56 1245V1236.6H1752.46V1285.8C1752.46 1289.7 1754.71 1291.95 1758.61 1291.95ZM1711.81 1293.75C1722.61 1293.75 1730.56 1285.65 1730.56 1274.85C1730.56 1264.05 1722.61 1255.95 1711.81 1255.95C1701.16 1255.95 1693.21 1264.05 1693.21 1274.85C1693.21 1285.65 1701.16 1293.75 1711.81 1293.75Z" fill="#0274C6"/>
<path d="M1808.34 1314.9C1784.79 1314.9 1767.09 1297.65 1767.09 1274.85C1767.09 1252.05 1784.79 1234.8 1808.34 1234.8C1828.89 1234.8 1845.24 1248.15 1848.69 1266.75H1825.44C1822.44 1260.3 1815.99 1255.95 1808.34 1255.95C1797.54 1255.95 1789.59 1264.05 1789.59 1274.85C1789.59 1285.65 1797.54 1293.75 1808.34 1293.75C1815.99 1293.75 1822.44 1289.4 1825.44 1282.95H1848.69C1845.24 1301.55 1828.89 1314.9 1808.34 1314.9Z" fill="#0274C6"/>
<path d="M1872.34 1226.85C1864.69 1226.85 1858.84 1221.15 1858.84 1213.35C1858.84 1205.7 1864.69 1200 1872.34 1200C1880.14 1200 1885.99 1205.7 1885.99 1213.35C1885.99 1221.15 1880.14 1226.85 1872.34 1226.85ZM1861.39 1313.1V1236.6H1883.29V1313.1H1861.39Z" fill="#0274C6"/>
<path d="M1937.68 1314.9C1914.13 1314.9 1896.43 1297.65 1896.43 1274.85C1896.43 1252.05 1914.13 1234.8 1937.68 1234.8C1961.23 1234.8 1978.93 1252.05 1978.93 1274.85C1978.93 1297.65 1961.23 1314.9 1937.68 1314.9ZM1937.68 1293.75C1948.48 1293.75 1956.43 1285.65 1956.43 1274.85C1956.43 1264.05 1948.48 1255.95 1937.68 1255.95C1926.88 1255.95 1918.93 1264.05 1918.93 1274.85C1918.93 1285.65 1926.88 1293.75 1937.68 1293.75Z" fill="#0274C6"/>
<path d="M2072.45 1291.95H2073.95V1313.1H2067.8C2052.35 1313.1 2044.4 1305.45 2044.4 1290.6V1271.25C2044.4 1261.95 2038.55 1255.95 2029.7 1255.95C2020.25 1255.95 2013.8 1262.1 2013.8 1271.55V1313.1H1991.9V1236.6H2013.8V1245C2019.65 1238.25 2027.6 1234.8 2037.05 1234.8C2054.6 1234.8 2066.3 1246.35 2066.3 1263.9V1285.8C2066.3 1289.7 2068.55 1291.95 2072.45 1291.95Z" fill="#0274C6"/>
<path d="M2168.33 1291.95H2169.83V1313.1H2163.68C2152.88 1313.1 2145.68 1309.35 2142.38 1302C2136.53 1309.95 2127.83 1314.9 2117.18 1314.9C2096.18 1314.9 2080.28 1297.65 2080.28 1274.85C2080.28 1252.05 2096.18 1234.8 2117.18 1234.8C2126.63 1234.8 2134.58 1238.7 2140.28 1245V1236.6H2162.18V1285.8C2162.18 1289.7 2164.43 1291.95 2168.33 1291.95ZM2121.53 1293.75C2132.33 1293.75 2140.28 1285.65 2140.28 1274.85C2140.28 1264.05 2132.33 1255.95 2121.53 1255.95C2110.88 1255.95 2102.93 1264.05 2102.93 1274.85C2102.93 1285.65 2110.88 1293.75 2121.53 1293.75Z" fill="#0274C6"/>
<path d="M2208.59 1313.1C2191.04 1313.1 2182.04 1305 2182.04 1289.25V1205.1H2203.94V1285.65C2203.94 1290.45 2206.79 1293.15 2211.74 1293.15H2216.39V1313.1H2208.59Z" fill="#0274C6"/>
<path d="M18.75 1590.6C8.1 1590.6 0 1582.65 0 1572C0 1561.35 8.1 1553.4 18.75 1553.4C29.25 1553.4 37.35 1561.35 37.35 1572C37.35 1582.65 29.25 1590.6 18.75 1590.6Z" fill="#0274C6"/>
<path d="M174.4 1614.9C152.35 1614.9 135.85 1600.5 135.85 1582.05H159.7C159.7 1588.8 166.3 1594.2 174.7 1594.2C182.5 1594.2 188.65 1589.85 188.65 1584C188.65 1577.25 179.35 1573.5 168.7 1570.95C152.95 1567.2 137.5 1558.35 137.5 1539.6C137.5 1520.7 153.25 1507.8 174.1 1507.8C195.1 1507.8 211 1521.3 211 1539.3H187.15C187.15 1533.15 181.45 1528.5 173.8 1528.5C166.9 1528.5 161.35 1532.25 161.35 1537.8C161.35 1544.4 169.75 1548.15 179.95 1550.55C196.45 1554.6 212.5 1562.4 212.5 1581.75C212.5 1601.4 196 1614.9 174.4 1614.9Z" fill="#0274C6"/>
<path d="M303.136 1591.95H304.636V1613.1H298.486C287.686 1613.1 280.486 1609.35 277.186 1602C271.486 1610.4 263.086 1614.9 252.886 1614.9C235.936 1614.9 224.686 1603.5 224.686 1586.1V1536.6H246.586V1579.5C246.586 1588.05 251.986 1593.75 260.236 1593.75C269.086 1593.75 275.086 1587.9 275.086 1579.2V1536.6H296.986V1585.8C296.986 1589.7 299.236 1591.95 303.136 1591.95Z" fill="#0274C6"/>
<path d="M342.381 1614.9C324.081 1614.9 311.031 1603.65 311.031 1589.85H332.931C332.931 1594.05 337.131 1597.5 342.531 1597.5C346.881 1597.5 351.081 1595.25 351.081 1591.5C351.081 1587.75 346.581 1585.05 337.281 1583.25C320.781 1579.8 312.231 1571.55 312.231 1559.25C312.231 1543.35 326.031 1534.8 341.631 1534.8C359.031 1534.8 371.781 1545.45 371.781 1558.8H349.881C349.881 1555.2 346.281 1552.2 341.631 1552.2C337.581 1552.2 333.981 1554.6 333.981 1557.75C333.981 1561.35 338.331 1563.75 348.231 1566C364.881 1569.75 372.831 1577.4 372.831 1589.55C372.831 1605.75 358.881 1614.9 342.381 1614.9Z" fill="#0274C6"/>
<path d="M427.645 1556.55H410.995V1584.6C410.995 1590 414.295 1593.15 419.995 1593.15H427.645V1613.1H416.695C398.395 1613.1 389.095 1604.55 389.095 1588.2V1556.55H377.545V1536.6H383.995C388.195 1536.6 390.295 1534.5 390.295 1530.3V1516.5H410.995V1536.6H427.645V1556.55Z" fill="#0274C6"/>
<path d="M518.486 1575.15C518.486 1577.1 518.336 1580.1 517.886 1581.9H459.386C461.786 1590.45 468.536 1595.85 477.836 1595.85C485.036 1595.85 491.036 1592.85 493.886 1588.8H517.286C511.586 1604.25 496.286 1614.9 477.386 1614.9C453.686 1614.9 435.986 1597.65 435.986 1574.85C435.986 1552.05 453.686 1534.8 477.236 1534.8C500.636 1534.8 518.486 1551.9 518.486 1575.15ZM477.236 1553.7C468.686 1553.7 462.086 1558.95 459.536 1567.35H494.936C492.686 1558.95 485.636 1553.7 477.236 1553.7Z" fill="#0274C6"/>
<path d="M611.563 1591.95H613.063V1613.1H606.913C591.463 1613.1 583.513 1605.45 583.513 1590.6V1571.25C583.513 1561.95 577.663 1555.95 568.813 1555.95C559.363 1555.95 552.913 1562.1 552.913 1571.55V1613.1H531.013V1536.6H552.913V1545C558.763 1538.25 566.713 1534.8 576.163 1534.8C593.713 1534.8 605.413 1546.35 605.413 1563.9V1585.8C605.413 1589.7 607.663 1591.95 611.563 1591.95Z" fill="#0274C6"/>
<path d="M667.294 1556.55H650.644V1584.6C650.644 1590 653.944 1593.15 659.644 1593.15H667.294V1613.1H656.344C638.044 1613.1 628.744 1604.55 628.744 1588.2V1556.55H617.194V1536.6H623.644C627.844 1536.6 629.944 1534.5 629.944 1530.3V1516.5H650.644V1536.6H667.294V1556.55Z" fill="#0274C6"/>
<path d="M763.984 1591.95H765.484V1613.1H759.334C748.534 1613.1 741.334 1609.35 738.034 1602C732.184 1609.95 723.484 1614.9 712.834 1614.9C691.834 1614.9 675.934 1597.65 675.934 1574.85C675.934 1552.05 691.834 1534.8 712.834 1534.8C722.284 1534.8 730.234 1538.7 735.934 1545V1536.6H757.834V1585.8C757.834 1589.7 760.084 1591.95 763.984 1591.95ZM717.184 1593.75C727.984 1593.75 735.934 1585.65 735.934 1574.85C735.934 1564.05 727.984 1555.95 717.184 1555.95C706.534 1555.95 698.584 1564.05 698.584 1574.85C698.584 1585.65 706.534 1593.75 717.184 1593.75Z" fill="#0274C6"/>
<path d="M821.821 1534.8C842.971 1534.8 858.721 1552.05 858.721 1574.85C858.721 1597.65 842.971 1614.9 821.821 1614.9C812.371 1614.9 804.421 1611 798.721 1604.55V1613.1H776.821V1505.1H798.721V1545.15C804.421 1538.7 812.371 1534.8 821.821 1534.8ZM817.471 1593.75C828.271 1593.75 836.221 1585.65 836.221 1574.85C836.221 1564.05 828.271 1555.95 817.471 1555.95C806.671 1555.95 798.721 1564.05 798.721 1574.85C798.721 1585.65 806.671 1593.75 817.471 1593.75Z" fill="#0274C6"/>
<path d="M883.132 1526.85C875.482 1526.85 869.632 1521.15 869.632 1513.35C869.632 1505.7 875.482 1500 883.132 1500C890.932 1500 896.782 1505.7 896.782 1513.35C896.782 1521.15 890.932 1526.85 883.132 1526.85ZM872.182 1613.1V1536.6H894.082V1613.1H872.182Z" fill="#0274C6"/>
<path d="M938.569 1613.1C921.019 1613.1 912.019 1605 912.019 1589.25V1505.1H933.919V1585.65C933.919 1590.45 936.769 1593.15 941.719 1593.15H946.369V1613.1H938.569Z" fill="#0274C6"/>
<path d="M967.654 1526.85C960.003 1526.85 954.154 1521.15 954.154 1513.35C954.154 1505.7 960.003 1500 967.654 1500C975.453 1500 981.304 1505.7 981.304 1513.35C981.304 1521.15 975.453 1526.85 967.654 1526.85ZM956.703 1613.1V1536.6H978.604V1613.1H956.703Z" fill="#0274C6"/>
<path d="M1080.1 1591.95H1081.6V1613.1H1075.45C1064.65 1613.1 1057.45 1609.35 1054.15 1602C1048.3 1609.95 1039.6 1614.9 1028.95 1614.9C1007.95 1614.9 992.047 1597.65 992.047 1574.85C992.047 1552.05 1007.95 1534.8 1028.95 1534.8C1038.4 1534.8 1046.35 1538.7 1052.05 1545V1505.1H1073.95V1585.8C1073.95 1589.7 1076.2 1591.95 1080.1 1591.95ZM1033.3 1593.75C1044.1 1593.75 1052.05 1585.65 1052.05 1574.85C1052.05 1564.05 1044.1 1555.95 1033.3 1555.95C1022.65 1555.95 1014.7 1564.05 1014.7 1574.85C1014.7 1585.65 1022.65 1593.75 1033.3 1593.75Z" fill="#0274C6"/>
<path d="M1177.22 1591.95H1178.72V1613.1H1172.57C1161.77 1613.1 1154.57 1609.35 1151.27 1602C1145.42 1609.95 1136.72 1614.9 1126.07 1614.9C1105.07 1614.9 1089.17 1597.65 1089.17 1574.85C1089.17 1552.05 1105.07 1534.8 1126.07 1534.8C1135.52 1534.8 1143.47 1538.7 1149.17 1545V1536.6H1171.07V1585.8C1171.07 1589.7 1173.32 1591.95 1177.22 1591.95ZM1130.42 1593.75C1141.22 1593.75 1149.17 1585.65 1149.17 1574.85C1149.17 1564.05 1141.22 1555.95 1130.42 1555.95C1119.77 1555.95 1111.82 1564.05 1111.82 1574.85C1111.82 1585.65 1119.77 1593.75 1130.42 1593.75Z" fill="#0274C6"/>
<path d="M1274.04 1591.95H1275.54V1613.1H1269.39C1258.59 1613.1 1251.39 1609.35 1248.09 1602C1242.24 1609.95 1233.54 1614.9 1222.89 1614.9C1201.89 1614.9 1185.99 1597.65 1185.99 1574.85C1185.99 1552.05 1201.89 1534.8 1222.89 1534.8C1232.34 1534.8 1240.29 1538.7 1245.99 1545V1505.1H1267.89V1585.8C1267.89 1589.7 1270.14 1591.95 1274.04 1591.95ZM1227.24 1593.75C1238.04 1593.75 1245.99 1585.65 1245.99 1574.85C1245.99 1564.05 1238.04 1555.95 1227.24 1555.95C1216.59 1555.95 1208.64 1564.05 1208.64 1574.85C1208.64 1585.65 1216.59 1593.75 1227.24 1593.75Z" fill="#0274C6"/>
<path d="M1365.31 1575.15C1365.31 1577.1 1365.16 1580.1 1364.71 1581.9H1306.21C1308.61 1590.45 1315.36 1595.85 1324.66 1595.85C1331.86 1595.85 1337.86 1592.85 1340.71 1588.8H1364.11C1358.41 1604.25 1343.11 1614.9 1324.21 1614.9C1300.51 1614.9 1282.81 1597.65 1282.81 1574.85C1282.81 1552.05 1300.51 1534.8 1324.06 1534.8C1347.46 1534.8 1365.31 1551.9 1365.31 1575.15ZM1324.06 1553.7C1315.51 1553.7 1308.91 1558.95 1306.36 1567.35H1341.76C1339.51 1558.95 1332.46 1553.7 1324.06 1553.7Z" fill="#0274C6"/>
<path d="M1488.8 1575.15C1488.8 1577.1 1488.65 1580.1 1488.2 1581.9H1429.7C1432.1 1590.45 1438.85 1595.85 1448.15 1595.85C1455.35 1595.85 1461.35 1592.85 1464.2 1588.8H1487.6C1481.9 1604.25 1466.6 1614.9 1447.7 1614.9C1424 1614.9 1406.3 1597.65 1406.3 1574.85C1406.3 1552.05 1424 1534.8 1447.55 1534.8C1470.95 1534.8 1488.8 1551.9 1488.8 1575.15ZM1447.55 1553.7C1439 1553.7 1432.4 1558.95 1429.85 1567.35H1465.25C1463 1558.95 1455.95 1553.7 1447.55 1553.7Z" fill="#0274C6"/>
<path d="M1535.48 1613.1V1509.6H1558.73V1613.1H1535.48Z" fill="#0274C6"/>
<path d="M1704.4 1591.95H1705.9V1613.1H1699.75C1684.3 1613.1 1676.35 1605.45 1676.35 1590.6V1569.75C1676.35 1561.5 1671.1 1555.95 1663.15 1555.95C1654.6 1555.95 1648.75 1561.65 1648.75 1570.05V1613.1H1626.85V1569.75C1626.85 1561.5 1621.6 1555.95 1613.65 1555.95C1605.1 1555.95 1599.25 1561.65 1599.25 1570.05V1613.1H1577.35V1536.6H1599.25V1544.7C1604.8 1538.25 1612.15 1534.8 1621 1534.8C1631.95 1534.8 1640.5 1539.75 1645.15 1548C1651 1539.3 1659.7 1534.8 1670.5 1534.8C1687.15 1534.8 1698.25 1546.05 1698.25 1563.15V1585.8C1698.25 1589.7 1700.5 1591.95 1704.4 1591.95Z" fill="#0274C6"/>
<path d="M1760.63 1534.8C1781.78 1534.8 1797.53 1552.05 1797.53 1574.85C1797.53 1597.65 1781.78 1614.9 1760.63 1614.9C1751.18 1614.9 1743.23 1611 1737.53 1604.55V1641.6H1715.63V1536.6H1737.53V1545.15C1743.23 1538.7 1751.18 1534.8 1760.63 1534.8ZM1756.28 1593.75C1767.08 1593.75 1775.03 1585.65 1775.03 1574.85C1775.03 1564.05 1767.08 1555.95 1756.28 1555.95C1745.48 1555.95 1737.53 1564.05 1737.53 1574.85C1737.53 1585.65 1745.48 1593.75 1756.28 1593.75Z" fill="#0274C6"/>
<path d="M1894.55 1591.95H1896.05V1613.1H1889.9C1879.1 1613.1 1871.9 1609.35 1868.6 1602C1862.75 1609.95 1854.05 1614.9 1843.4 1614.9C1822.4 1614.9 1806.5 1597.65 1806.5 1574.85C1806.5 1552.05 1822.4 1534.8 1843.4 1534.8C1852.85 1534.8 1860.8 1538.7 1866.5 1545V1536.6H1888.4V1585.8C1888.4 1589.7 1890.65 1591.95 1894.55 1591.95ZM1847.75 1593.75C1858.55 1593.75 1866.5 1585.65 1866.5 1574.85C1866.5 1564.05 1858.55 1555.95 1847.75 1555.95C1837.1 1555.95 1829.15 1564.05 1829.15 1574.85C1829.15 1585.65 1837.1 1593.75 1847.75 1593.75Z" fill="#0274C6"/>
<path d="M1944.28 1614.9C1920.73 1614.9 1903.03 1597.65 1903.03 1574.85C1903.03 1552.05 1920.73 1534.8 1944.28 1534.8C1964.83 1534.8 1981.18 1548.15 1984.63 1566.75H1961.38C1958.38 1560.3 1951.93 1555.95 1944.28 1555.95C1933.48 1555.95 1925.53 1564.05 1925.53 1574.85C1925.53 1585.65 1933.48 1593.75 1944.28 1593.75C1951.93 1593.75 1958.38 1589.4 1961.38 1582.95H1984.63C1981.18 1601.55 1964.83 1614.9 1944.28 1614.9Z" fill="#0274C6"/>
<path d="M2040.58 1556.55H2023.93V1584.6C2023.93 1590 2027.23 1593.15 2032.93 1593.15H2040.58V1613.1H2029.63C2011.33 1613.1 2002.03 1604.55 2002.03 1588.2V1556.55H1990.48V1536.6H1996.93C2001.13 1536.6 2003.23 1534.5 2003.23 1530.3V1516.5H2023.93V1536.6H2040.58V1556.55Z" fill="#0274C6"/>
<path d="M2090.18 1614.9C2066.62 1614.9 2048.93 1597.65 2048.93 1574.85C2048.93 1552.05 2066.62 1534.8 2090.18 1534.8C2113.73 1534.8 2131.43 1552.05 2131.43 1574.85C2131.43 1597.65 2113.73 1614.9 2090.18 1614.9ZM2090.18 1593.75C2100.98 1593.75 2108.93 1585.65 2108.93 1574.85C2108.93 1564.05 2100.98 1555.95 2090.18 1555.95C2079.38 1555.95 2071.43 1564.05 2071.43 1574.85C2071.43 1585.65 2079.38 1593.75 2090.18 1593.75Z" fill="#0274C6"/>
<path d="M2211.85 1614.9C2189.8 1614.9 2173.3 1600.5 2173.3 1582.05H2197.15C2197.15 1588.8 2203.75 1594.2 2212.15 1594.2C2219.95 1594.2 2226.1 1589.85 2226.1 1584C2226.1 1577.25 2216.8 1573.5 2206.15 1570.95C2190.4 1567.2 2174.95 1558.35 2174.95 1539.6C2174.95 1520.7 2190.7 1507.8 2211.55 1507.8C2232.55 1507.8 2248.45 1521.3 2248.45 1539.3H2224.6C2224.6 1533.15 2218.9 1528.5 2211.25 1528.5C2204.35 1528.5 2198.8 1532.25 2198.8 1537.8C2198.8 1544.4 2207.2 1548.15 2217.4 1550.55C2233.9 1554.6 2249.95 1562.4 2249.95 1581.75C2249.95 1601.4 2233.45 1614.9 2211.85 1614.9Z" fill="#0274C6"/>
<path d="M2300.38 1614.9C2276.83 1614.9 2259.13 1597.65 2259.13 1574.85C2259.13 1552.05 2276.83 1534.8 2300.38 1534.8C2323.93 1534.8 2341.63 1552.05 2341.63 1574.85C2341.63 1597.65 2323.93 1614.9 2300.38 1614.9ZM2300.38 1593.75C2311.18 1593.75 2319.13 1585.65 2319.13 1574.85C2319.13 1564.05 2311.18 1555.95 2300.38 1555.95C2289.58 1555.95 2281.63 1564.05 2281.63 1574.85C2281.63 1585.65 2289.58 1593.75 2300.38 1593.75Z" fill="#0274C6"/>
<path d="M2391.35 1614.9C2367.8 1614.9 2350.1 1597.65 2350.1 1574.85C2350.1 1552.05 2367.8 1534.8 2391.35 1534.8C2411.9 1534.8 2428.25 1548.15 2431.7 1566.75H2408.45C2405.45 1560.3 2399 1555.95 2391.35 1555.95C2380.55 1555.95 2372.6 1564.05 2372.6 1574.85C2372.6 1585.65 2380.55 1593.75 2391.35 1593.75C2399 1593.75 2405.45 1589.4 2408.45 1582.95H2431.7C2428.25 1601.55 2411.9 1614.9 2391.35 1614.9Z" fill="#0274C6"/>
<path d="M2455.35 1526.85C2447.7 1526.85 2441.85 1521.15 2441.85 1513.35C2441.85 1505.7 2447.7 1500 2455.35 1500C2463.15 1500 2469 1505.7 2469 1513.35C2469 1521.15 2463.15 1526.85 2455.35 1526.85ZM2444.4 1613.1V1536.6H2466.3V1613.1H2444.4Z" fill="#0274C6"/>
<path d="M2567.79 1591.95H2569.29V1613.1H2563.14C2552.34 1613.1 2545.14 1609.35 2541.84 1602C2535.99 1609.95 2527.29 1614.9 2516.64 1614.9C2495.64 1614.9 2479.74 1597.65 2479.74 1574.85C2479.74 1552.05 2495.64 1534.8 2516.64 1534.8C2526.09 1534.8 2534.04 1538.7 2539.74 1545V1536.6H2561.64V1585.8C2561.64 1589.7 2563.89 1591.95 2567.79 1591.95ZM2520.99 1593.75C2531.79 1593.75 2539.74 1585.65 2539.74 1574.85C2539.74 1564.05 2531.79 1555.95 2520.99 1555.95C2510.34 1555.95 2502.39 1564.05 2502.39 1574.85C2502.39 1585.65 2510.34 1593.75 2520.99 1593.75Z" fill="#0274C6"/>
<path d="M2608.05 1613.1C2590.5 1613.1 2581.5 1605 2581.5 1589.25V1505.1H2603.4V1585.65C2603.4 1590.45 2606.25 1593.15 2611.2 1593.15H2615.85V1613.1H2608.05Z" fill="#0274C6"/>
</svg>
