<svg width="32768" height="1509" viewBox="0 0 32768 1509" fill="none" xmlns="http://www.w3.org/2000/svg">
<path d="M25594.4 31.144C26263.6 -35.9645 26782 -27.4341 27527.2 396.213C27600 437.565 27660.8 474.882 27711.4 508.556C28034.8 631.78 28585.9 827.417 29135.8 857.685C29741.4 890.979 30344.9 724.192 30950.5 649.677C31555.4 575.162 32161.7 592.919 32464.9 602.115L32768 610.993V1507.97C32767.9 1508.66 32477.1 1508.35 32453.7 1508.35H27626C27540.2 1508.51 27385 1508.35 27368.2 1508.35H26178.9C26098.4 1508.49 25962.6 1508.37 25930.4 1508.35H22232.9L22232.9 1508.35H21097.3C21011.4 1508.51 20856.3 1508.35 20839.5 1508.35H19415.4C19383.2 1508.37 19247.4 1508.49 19167 1508.35H15704.2L15704.1 1508.35H13602.8C13516.6 1508.5 13363.8 1508.35 13347.1 1508.35H12892.2L12833.2 1508.38C12776.6 1508.42 12692.5 1508.45 12636.5 1508.35H8519.44C8433.58 1508.51 8278.48 1508.35 8261.64 1508.35H3126.3L3126.29 1508.35H314.33C290.92 1508.35 0.100044 1508.66 0 1507.97V610.993L303.138 602.115C606.277 592.919 1212.55 575.162 1817.47 649.677C2423.06 724.192 3026.61 890.979 3632.2 857.685C4237.12 824.391 4843.4 591.017 5146.54 474.012L5444.67 359.252C5661.03 269.217 6185.56 61.4562 6487.84 31.144C7157.06 -35.9645 7675.42 -27.4341 8420.66 396.213C8493.4 437.565 8554.25 474.882 8604.82 508.556C8928.22 631.78 9479.28 827.417 10029.2 857.685C10634.8 890.979 11238.4 724.192 11844 649.677C12316.8 591.426 12790.6 589.562 13119.6 595.917C13448.7 589.562 13922.4 591.426 14395.3 649.677C15000.9 724.192 15604.5 890.979 16210.1 857.685C16815 824.391 17421.3 591.017 17724.4 474.012L18022.5 359.252C18238.9 269.217 18763.4 61.4562 19065.7 31.144C19734.9 -35.9645 20253.3 -27.4341 20998.5 396.213C21071.3 437.565 21132.1 474.882 21182.7 508.556C21506.1 631.78 22057.1 827.417 22607.1 857.685C22629 858.892 22651 859.833 22672.9 860.528C22694.9 859.833 22716.8 858.892 22738.8 857.685C23343.7 824.391 23950 591.017 24253.1 474.012L24551.2 359.252C24767.6 269.217 25292.1 61.4562 25594.4 31.144Z" fill="#193062"/>
</svg>
