<svg width="32768" height="1071" viewBox="0 0 32768 1071" fill="none" xmlns="http://www.w3.org/2000/svg">
<path d="M26795.4 1.63842C27186.1 -4.65102 27564.9 7.74313 27938.8 28.9507C28242 46.1431 28534.8 69.4861 28827.2 93.0278C29099.2 114.929 29370.5 137.168 29648.3 155.971C29930.6 175.079 30218 189.594 30513.1 197.14C30723.8 202.527 30936.3 202.841 31147.3 199.729C31492.4 194.641 31827.5 178.466 32156.2 156.6C32340.9 144.316 32523.6 130.909 32705.7 117.123C32724.1 115.731 32741.6 113.861 32759.5 112.21C32761.6 112.983 32763.8 113.751 32765.9 114.524C32768 276.833 32766.4 439.137 32766.8 601.445C32766.8 612.647 32766.8 623.848 32766.8 635.05H32768V1070.84H11.2027C8.79978 1070.87 6.35717 1070.87 3.86994 1070.84H0V358.486C113.975 350.655 222.312 340.086 331.678 330.001C616.426 303.746 889.164 272.594 1169.14 244.398C1408.13 220.333 1649.52 197.385 1902.96 180.292C2125.13 165.304 2351.59 155.204 2586.3 151.508C2882.4 146.845 3169.27 155.214 3451.6 171.952C3778.37 191.324 4081.26 222.093 4379.24 255.081C4749.58 296.08 5107.77 341.618 5487 379.265C5750.66 405.44 6022.36 427.271 6310.37 439.72C6544.69 449.85 6780.53 452.214 7019.21 447.52C7340.37 441.201 7640.9 420.851 7933.57 394.307C8217.45 368.556 8486.55 337.154 8755.17 305.552C9001.07 276.619 9245.83 247.246 9499.45 221.215C9763.19 194.147 10034.6 170.79 10322.9 156.785C10456.5 150.296 10592 146.256 10729.2 143.687C11069.6 137.318 11398.2 148.63 11722.6 168.286C11995.4 184.821 12255.1 208.103 12512.2 232.667C12773.1 257.61 13030.5 284.085 13293.7 308.085C13615.4 337.433 13944.9 362.087 14294.2 373.539C14499.2 380.257 14705.4 381.773 14913.5 377.898C15250 371.628 15566.7 351.658 15875.1 324.615C16204.8 295.707 16515.4 259.336 16827.4 223.475C17158.4 185.424 17489.8 147.513 17842.3 118.106C18105.9 96.1151 18377.6 79.9397 18660.4 72.3485C18840.6 67.5105 19022.4 67.3113 19202.9 69.9448C19438.3 73.3713 19668.3 83.7853 19894.7 97.5213C20234.4 118.135 20559.1 146.72 20884.8 174.745C21261 207.115 21638.5 238.607 22037.5 257.81C22335.3 272.139 22637.3 276.669 22940.9 272.06C23258.1 267.242 23563.3 250.283 23860.7 227.44C24093.8 209.529 24319 188.008 24543.7 166.107C24815.6 139.598 25082 110.794 25356.6 85.4414C25655.3 57.8696 25959 33.0909 26279.1 17.7489C26449 9.60899 26620.8 4.44648 26795.4 1.63842Z" fill="#BCD4F7"/>
</svg>
