<svg width="32768" height="1634" viewBox="0 0 32768 1634" fill="none" xmlns="http://www.w3.org/2000/svg">
<path d="M5972.63 2.49885C5581.91 -7.09377 5203.14 11.8105 4829.19 44.1561C4526.01 70.3779 4233.21 105.979 3940.81 141.885C3668.83 175.288 3397.48 209.208 3119.7 237.887C2837.39 267.03 2549.99 289.167 2254.91 300.676C2044.23 308.892 1831.73 309.372 1620.69 304.625C1275.62 296.865 940.505 272.196 611.81 238.846C427.129 220.109 244.371 199.661 62.2927 178.635C43.9384 176.512 26.4236 173.66 8.53023 171.142C6.3614 172.321 4.21892 173.493 2.05009 174.672C0.0438676 422.224 1.61605 669.768 1.23649 917.32C1.21007 934.404 1.18798 951.488 1.16923 968.573H0V1633.24H32756.7C32759.2 1633.28 32761.8 1633.28 32764.4 1633.24H32768V546.761C32654 534.818 32545.7 518.698 32436.3 503.316C32151.6 463.272 31878.8 415.758 31598.9 372.754C31359.9 336.05 31118.5 301.049 30865 274.98C30642.9 252.12 30416.4 236.715 30181.7 231.078C29885.6 223.966 29598.7 236.731 29316.4 262.261C28989.6 291.807 28686.7 338.735 28388.8 389.049C28018.4 451.58 27660.2 521.034 27281 578.452C27017.3 618.375 26745.6 651.671 26457.6 670.658C26223.3 686.109 25987.5 689.714 25748.8 682.556C25427.6 672.918 25127.1 641.881 24834.4 601.395C24550.6 562.12 24281.4 514.225 24012.8 466.026C23766.9 421.897 23522.2 377.098 23268.5 337.396C23004.8 296.112 22733.4 260.488 22445.1 239.127C22311.5 229.23 22176 223.068 22038.8 219.151C21698.4 209.436 21369.8 226.689 21045.4 256.669C20772.6 281.887 20512.9 317.397 20255.8 354.862C19994.9 392.906 19737.5 433.284 19474.3 469.89C19152.6 514.65 18823.1 552.253 18473.8 569.719C18268.8 579.966 18062.6 582.278 17854.5 576.367C17518 566.805 17201.3 536.347 16892.9 495.101C16563.2 451.01 16252.6 395.538 15940.6 340.842C15609.6 282.807 15278.2 224.986 14925.7 180.134C14662.1 146.594 14390.4 121.924 14107.6 110.346C13927.4 102.967 13745.6 102.663 13565.1 106.679C13329.7 111.905 13099.7 127.789 12873.3 148.739C12533.6 180.18 12208.9 223.776 11883.2 266.52C11507 315.891 11129.5 363.923 10730.5 393.21C10432.7 415.065 10130.7 421.973 9827.08 414.944C9509.85 407.595 9204.72 381.731 8907.33 346.89C8674.18 319.573 8448.97 286.748 8224.32 253.345C7952.43 212.913 7686.03 168.981 7411.4 130.314C7112.68 88.2619 6808.96 50.4695 6488.86 27.0699C6318.98 14.655 6147.2 6.78167 5972.63 2.49885Z" fill="#193062"/>
</svg>
