<svg width="32768" height="657" viewBox="0 0 32768 657" fill="none" xmlns="http://www.w3.org/2000/svg">
<path d="M25937.3 1.27884C26454 -5.64392 26913.7 13.414 27527.2 111.982C27600 123.667 27660.8 134.211 27711.4 143.727C27736.5 146.435 27763 149.266 27790.8 152.19C27796.9 152.835 27803.1 153.485 27809.4 154.139C27826 155.876 27843 157.641 27860.5 159.429C27861 159.485 27861.6 159.54 27862.1 159.595C27884.2 161.854 27906.9 164.148 27930.2 166.467C27995.3 172.946 28065.1 179.61 28138.6 186.176C28152.5 187.409 28166.4 188.64 28180.5 189.865C28202.8 191.808 28225.5 193.737 28248.4 195.646C28250.9 195.85 28253.3 196.054 28255.8 196.257H30640.9C30641.3 196.237 30641.8 196.217 30642.2 196.197C30649.1 195.885 30655.9 195.574 30662.8 195.265C30665.8 195.128 30668.8 194.992 30671.9 194.856C30678.8 194.546 30685.7 194.238 30692.6 193.932C30693.8 193.881 30694.9 193.83 30696 193.779C30704.7 193.397 30713.3 193.019 30722 192.644C30723.7 192.569 30725.4 192.495 30727.1 192.421C30734 192.124 30740.8 191.828 30747.7 191.535C30749.7 191.45 30751.7 191.365 30753.7 191.28C30762 190.926 30770.3 190.574 30778.6 190.227C30789.9 189.757 30801.1 189.294 30812.4 188.838C30814.6 188.748 30816.8 188.66 30819 188.571C30822.8 188.42 30826.5 188.27 30830.3 188.12C30832 188.051 30833.7 187.982 30835.4 187.913C30840.9 187.696 30846.4 187.48 30851.9 187.266C30853.9 187.187 30855.9 187.11 30857.9 187.032C30862.3 186.863 30866.6 186.695 30871 186.528C30872.2 186.479 30873.5 186.431 30874.8 186.382C30879.4 186.205 30884 186.03 30888.7 185.856C30890.4 185.793 30892 185.73 30893.7 185.668C30899.2 185.461 30904.7 185.256 30910.3 185.054C30911.9 184.995 30913.5 184.937 30915.1 184.879C30919.7 184.711 30924.3 184.545 30928.9 184.381C30930 184.34 30931.2 184.299 30932.3 184.259C30938.4 184.042 30944.5 183.828 30950.5 183.617C31068.7 179.504 31186.9 176.385 31302.9 174.049C31316.8 173.769 31330.7 173.499 31344.5 173.241C31353.7 173.069 31363 172.902 31372.2 172.74C31390.6 172.415 31408.9 172.108 31427.2 171.82C31554.9 169.804 31678.9 168.674 31795.9 168.131C31812.6 168.053 31829.2 167.988 31845.6 167.933C32100.1 167.089 32318 168.916 32464.9 170.174L32768 172.684V656.686H0V172.684L303.138 170.174C374.186 169.565 461.886 168.823 562.318 168.314C575.709 168.247 589.326 168.183 603.16 168.125C928.265 166.749 1373.23 168.151 1817.47 183.617C1823.55 183.828 1829.63 184.042 1835.71 184.259C1836.84 184.299 1837.97 184.34 1839.1 184.381C1843.7 184.545 1848.3 184.711 1852.91 184.879C1854.51 184.937 1856.11 184.995 1857.72 185.054C1863.25 185.256 1868.78 185.461 1874.32 185.668C1875.98 185.73 1877.64 185.793 1879.31 185.856C1883.95 186.03 1888.6 186.205 1893.24 186.382C1894.51 186.431 1895.77 186.479 1897.04 186.528C1901.39 186.695 1905.74 186.863 1910.09 187.032C1912.1 187.11 1914.11 187.187 1916.12 187.266C1921.61 187.48 1927.1 187.696 1932.58 187.913C1934.3 187.982 1936.02 188.051 1937.74 188.12C1941.49 188.27 1945.24 188.42 1948.99 188.571C1951.19 188.66 1953.4 188.748 1955.6 188.838C1966.85 189.294 1978.1 189.757 1989.35 190.227C1997.68 190.574 2006.01 190.926 2014.34 191.28C2016.33 191.365 2018.32 191.45 2020.31 191.535C2027.18 191.828 2034.04 192.124 2040.9 192.421C2042.62 192.495 2044.33 192.569 2046.04 192.644C2054.68 193.019 2063.31 193.397 2071.95 193.779C2073.1 193.83 2074.24 193.881 2075.39 193.932C2082.3 194.238 2089.21 194.546 2096.11 194.856C2099.15 194.992 2102.19 195.128 2105.23 195.265C2112.09 195.574 2118.95 195.885 2125.81 196.197C2126.25 196.217 2126.69 196.237 2127.14 196.257H4512.24C4725.16 178.628 4913.28 159.166 5056.64 143.727C5107.21 134.211 5168.04 123.667 5240.77 111.982C5854.26 13.414 6314 -5.64389 6830.72 1.27884C7347.43 -5.64392 7807.17 13.414 8420.66 111.982C8493.39 123.667 8554.22 134.211 8604.79 143.727C8629.94 146.435 8656.46 149.266 8684.24 152.19C8690.38 152.835 8696.58 153.485 8702.84 154.139C8719.45 155.876 8736.48 157.641 8753.92 159.429C8754.47 159.485 8755.01 159.54 8755.55 159.595C8777.6 161.854 8800.29 164.148 8823.59 166.467C8888.7 172.946 8958.5 179.61 9032.06 186.176C9045.89 187.409 9059.84 188.64 9073.92 189.865C9096.25 191.808 9118.9 193.737 9141.84 195.646C9144.29 195.85 9146.74 196.054 9149.2 196.257H11041C11253.9 178.628 11442 159.166 11585.4 143.727C11635.9 134.211 11696.8 123.667 11769.5 111.982C12514.7 -7.75403 13033.1 -10.1646 13702.3 8.8023C14004.5 17.3674 14528.9 76.0593 14745.3 101.516L15043.6 133.968C15193.3 150.301 15417 174.655 15677.9 196.257H17090.1C17351 174.655 17574.7 150.301 17724.4 133.968L18022.7 101.516C18239.1 76.0593 18763.5 17.3674 19065.7 8.8023C19734.9 -10.1646 20253.3 -7.75403 20998.5 111.982C21071.2 123.667 21132.1 134.211 21182.6 143.727C21326 159.166 21514.1 178.628 21727.1 196.257H23618.8C23831.7 178.628 24019.8 159.166 24163.2 143.727C24213.8 134.211 24274.6 123.667 24347.3 111.982C24960.8 13.414 25420.6 -5.64389 25937.3 1.27884Z" fill="#BCD4F7"/>
</svg>
