<svg width="12992" height="1418" viewBox="0 0 12992 1418" fill="none" xmlns="http://www.w3.org/2000/svg">
<path d="M12988.8 1226.45C12947.1 1234.18 12905.5 1241.99 12863.8 1249.62C12774.4 1265.94 12684.3 1280.27 12592.7 1289.3C12548.4 1293.68 12503.8 1297.8 12458.6 1297.84C12432.8 1297.86 12407.1 1301.26 12381 1300.6C12261.5 1297.55 12143.5 1287.8 12028.1 1265.2C11912.2 1242.5 11800.8 1212.1 11691.4 1177.66C11602.6 1149.68 11516.1 1118.44 11427.9 1089.57C11320.3 1054.33 11213.6 1017.77 11102 988.374C10995.1 960.233 10886 937.942 10772.8 925.843C10693.1 917.33 10612.5 915.144 10532.1 918.585C10431 922.911 10331.8 935.849 10234.4 955.226C10098.7 982.212 9968.59 1019.28 9838.6 1056.61C9727.78 1088.45 9617.02 1120.46 9502.8 1146.35C9404.97 1168.52 9305.05 1184.92 9202.77 1193.92C9130.46 1200.28 9057.47 1200.72 8985.07 1197.22C8846.13 1190.5 8712.78 1166.16 8582.61 1132.78C8465.02 1102.63 8351.3 1066.56 8237.38 1030.74C8128.93 996.637 8020.06 963.112 7907.12 936.423C7816.29 914.959 7723.38 898.626 7627.9 890.126C7558.18 883.924 7487.78 883.257 7418 886.857C7308.02 892.53 7201.6 910.454 7098.04 936.694C6999.66 961.62 6904.74 991.637 6811.86 1024.69C6701.36 1064.02 6592.69 1105.67 6481.57 1144.19C6379.6 1179.54 6275.83 1211.99 6166.45 1235.34C6082.09 1253.35 5996.23 1265.78 5907.63 1269.85C5870.42 1271.56 5833.27 1273.33 5796.24 1271.93C5704.55 1268.46 5614.41 1258.16 5525.98 1240.81C5417.53 1219.54 5313.74 1190.21 5211.74 1157.69C5103.55 1123.19 4995.89 1087.9 4887.23 1054.12C4784.77 1022.26 4679.84 994.669 4569.78 977.305C4514.21 968.541 4458.02 963.053 4400.98 959.691C4247.31 950.63 4101.69 972.656 3960.09 1010.18C3837.1 1042.76 3722.6 1087.04 3609.88 1133.42C3486.9 1184.03 3366.4 1237.5 3240.5 1284.73C3108.14 1334.39 2971.24 1376.67 2822.26 1398.1C2736.18 1410.49 2648.99 1414.46 2561.69 1409.93C2433.1 1403.27 2310.2 1379.41 2190.83 1346.6C2048.55 1307.48 1912.6 1259.23 1774.84 1213.54C1678.3 1181.52 1580.31 1151.68 1477.73 1129.6C1395.11 1111.82 1311.06 1099.63 1224.34 1094.51C1073.71 1085.62 929.931 1104.71 789.912 1140.09C675.197 1169.07 567.426 1208.07 461.117 1249.16C318.852 1304.14 179.984 1363.38 31.5595 1410.75C21.4983 1413.96 12.1035 1418.78 0 1417.89C0 1103.49 0 789.097 0 474.696C45.1894 464.327 88.143 450.332 131.505 436.977C244.403 402.211 352.54 360.959 463.546 323.624C558.3 291.757 654.011 261.37 754.494 238.736C842.583 218.89 932.371 205.516 1025.43 200.622C1142.83 194.446 1256.57 205.529 1368.51 227.694C1498.07 253.345 1618.16 294.089 1736.3 337.771C1883.13 392.06 2025.15 452.359 2175.51 502.21C2280.05 536.871 2387.77 565.779 2501.96 582.263C2594.87 595.677 2688.37 598.808 2783.01 592.593C2910.34 584.225 3029.5 557.278 3145.53 522.129C3258.09 488.03 3364.79 446.448 3471.29 404.602C3568.78 366.289 3665.83 327.395 3766.38 292.926C3870.95 257.084 3978.56 226.155 4092.88 207.609C4145.85 199.017 4199.55 193.667 4253.96 190.266C4388.91 181.832 4519.2 196.811 4647.81 222.839C4756.01 244.733 4858.97 275.563 4960.87 308.09C5064.34 341.119 5166.41 376.176 5270.74 407.957C5398.29 446.818 5528.93 479.464 5667.42 494.628C5748.69 503.524 5830.46 505.532 5912.96 500.4C6046.38 492.098 6171.95 465.654 6294.23 429.844C6424.96 391.565 6548.09 343.405 6671.78 295.918C6803.03 245.532 6934.44 195.332 7074.2 156.391C7178.71 127.272 7286.43 105.854 7398.54 95.8016C7470 89.3952 7542.07 89.131 7613.66 92.6182C7706.99 97.1555 7798.19 110.946 7887.94 129.135C8022.62 156.431 8151.35 194.281 8280.5 231.392C8429.65 274.255 8579.32 315.956 8737.53 341.384C8855.6 360.358 8975.33 366.355 9095.72 360.253C9221.49 353.873 9342.47 331.417 9460.38 301.169C9552.82 277.452 9642.12 248.954 9731.18 219.953C9838.99 184.85 9944.61 146.709 10053.5 113.138C10171.9 76.6287 10292.4 43.8175 10419.3 23.5021C10486.6 12.7235 10554.7 5.88787 10623.9 2.16953C10778.9 -6.15876 10929 10.2534 11077.3 38.3358C11197.5 61.1015 11313.6 92.0106 11429.5 123.184C11537.4 152.184 11645 181.634 11755.1 206.533C11867 231.835 11981 251.054 12098 261.046C12181.5 268.179 12265.7 268.595 12349.4 264.474C12486.2 257.737 12619.1 236.319 12749.4 207.365C12822.7 191.098 12895.1 173.345 12967.3 155.09C12974.6 153.248 12981.5 150.771 12988.6 148.585C12989.5 149.609 12990.3 150.626 12991.2 151.649C12992 366.573 12991.4 581.491 12991.5 796.414C12991.6 933.399 12991.6 1070.38 12991.4 1207.37C12991.4 1213.73 12993.9 1220.37 12988.8 1226.45Z" fill="#0079D0"/>
</svg>
