<svg width="32768" height="2954" viewBox="0 0 32768 2954" fill="none" xmlns="http://www.w3.org/2000/svg">
<path d="M17756 79.85C17957 21.3568 18160.5 -12.8282 18370.4 4.51897C18464.2 12.264 18556.5 26.502 18647.8 48.9528C18819.8 91.2683 18983 159.611 19143.5 235.658C19291.1 305.583 19434.2 385.027 19580.3 458.144C19701 518.549 19822 577.909 19947.3 627.309C20107.1 690.315 20271 737.087 20441.5 750.376C20604.6 763.087 20766.9 750.596 20926.9 711.074C21141.3 658.11 21344.1 571.251 21546.3 481.971C21721.3 404.672 21895.7 325.833 22078.3 268.977C22199.9 231.091 22323.5 202.367 22450 192.916C22547 185.652 22644.6 186.203 22741.5 199.547C22893.4 220.484 23039.4 265.097 23181 325.75C23370.4 406.859 23548.5 511.423 23726.4 616.373C23894 715.283 24060.9 815.597 24238.1 895.33C24403.8 969.919 24573.9 1025 24754.8 1042.29C24866.6 1052.98 24977.4 1048.8 25087.5 1030.27C25275.2 998.684 25452.2 930.685 25625.1 849.741C25766.5 783.544 25904.8 710.523 26045 641.726C26183.1 573.975 26322.7 509.759 26469.3 464.156C26643.6 409.941 26820.1 378.741 27003 396.308C27076.8 403.393 27149.5 414.535 27221.3 432.433C27376.3 471.062 27522.1 535.484 27663.8 610.141C27800.1 681.937 27931.6 762.95 28063.7 842.752C28208 929.914 28352.6 1016.53 28505.2 1087.55C28662.4 1160.76 28823.9 1216.89 28996.5 1234.32C29124.7 1247.27 29251.4 1240.75 29377.3 1212.81C29532.1 1178.47 29678.1 1118.26 29819.7 1046.06C30023.5 942.226 30216 816.628 30415 703.549C30575.1 612.562 30737.8 527.697 30913.4 474.266C31065.1 428.099 31219.2 405.016 31378.3 417.878C31504.5 428.072 31626.1 455.929 31745.5 497.268C31881.7 544.412 32011.4 607.706 32139.8 674.082C32290.2 751.848 32436.8 837.772 32589.8 910.187C32648.5 938.003 32706.8 967.154 32768 988.751V2953.51H32766.1C32764.7 2953.6 32763.3 2953.59 32761.9 2953.51H6.05752C4.69569 2953.59 3.31016 2953.6 1.8978 2953.51H0V988.751C61.2407 967.154 119.452 938.003 178.216 910.187C331.216 837.772 477.762 751.848 628.198 674.082C756.608 607.706 886.315 544.412 1022.49 497.268C1141.87 455.929 1263.55 428.072 1389.66 417.878C1548.76 405.016 1702.9 428.099 1854.6 474.266C2030.18 527.697 2192.93 612.562 2353.03 703.549C2552.02 816.628 2744.49 942.226 2948.25 1046.06C3089.92 1118.26 3235.91 1178.47 3390.66 1212.81C3516.56 1240.75 3643.29 1247.27 3771.54 1234.32C3944.1 1216.89 4105.58 1160.76 4262.83 1087.55C4415.36 1016.53 4559.96 929.914 4704.29 842.752C4836.42 762.95 4967.93 681.937 5104.21 610.141C5245.92 535.484 5391.75 471.062 5546.67 432.433C5618.46 414.535 5691.24 403.393 5764.96 396.308C5947.85 378.741 6124.42 409.941 6298.72 464.156C6445.34 509.759 6584.88 573.975 6722.98 641.726C6863.2 710.523 7001.52 783.544 7142.91 849.741C7315.76 930.685 7492.81 998.684 7680.5 1030.27C7790.63 1048.8 7901.44 1052.98 8013.24 1042.29C8194.05 1025 8364.23 969.919 8529.94 895.33C8707.11 815.597 8873.98 715.283 9041.6 616.373C9219.47 511.423 9397.55 406.859 9586.96 325.75C9728.59 265.097 9874.57 220.484 10026.5 199.547C10123.4 186.203 10221 185.652 10318 192.916C10444.5 202.367 10568.1 231.091 10689.7 268.977C10872.3 325.833 11046.7 404.672 11221.7 481.971C11423.9 571.251 11626.7 658.11 11841.1 711.074C12001.1 750.596 12163.4 763.087 12326.5 750.376C12497 737.087 12660.9 690.315 12820.7 627.309C12946 577.909 13067 518.549 13187.7 458.144C13333.8 385.027 13476.9 305.583 13624.5 235.658C13785 159.611 13948.2 91.2683 14120.2 48.9528C14211.5 26.502 14303.8 12.264 14397.6 4.51897C14607.5 -12.8282 14811 21.3568 15012 79.85C15174.9 127.269 15332.2 191.65 15489.3 256.582C15635.4 316.987 15781.2 378.328 15930.5 430.191C16078.6 481.654 16229.4 521.036 16384 542.239C16538.6 521.036 16689.4 481.654 16837.5 430.191C16986.8 378.328 17132.6 316.987 17278.7 256.582C17435.8 191.65 17593.1 127.269 17756 79.85Z" fill="#0059C9"/>
</svg>
