<svg width="6000" height="432" viewBox="0 0 6000 432" fill="none" xmlns="http://www.w3.org/2000/svg">
<path d="M6000 302.265H5999.77C5999.77 303.492 5999.77 304.719 5999.77 305.946C5999.82 333.725 5999.8 361.504 5999.72 389.282C5999.7 390.572 6000.88 391.919 5998.52 393.152C5979.28 394.719 5960.05 396.304 5940.78 397.85C5899.51 401.159 5857.91 404.065 5815.61 405.897C5795.12 406.785 5774.53 407.62 5753.68 407.628C5741.73 407.632 5729.88 408.323 5717.84 408.188C5662.63 407.57 5608.15 405.594 5554.86 401.011C5501.34 396.406 5449.88 390.241 5399.37 383.258C5358.34 377.584 5318.4 371.249 5277.68 365.395C5227.96 358.249 5178.68 350.834 5127.14 344.873C5077.8 339.166 5027.39 334.646 4975.11 332.192C4938.31 330.466 4901.1 330.023 4863.98 330.721C4817.28 331.598 4771.47 334.222 4726.47 338.151C4663.79 343.624 4603.72 351.14 4543.69 358.711C4492.51 365.166 4441.36 371.659 4388.61 376.908C4343.43 381.404 4297.28 384.732 4250.05 386.556C4216.65 387.845 4182.95 387.935 4149.51 387.224C4085.34 385.862 4023.76 380.926 3963.64 374.157C3909.34 368.043 3856.82 360.728 3804.21 353.464C3754.12 346.549 3703.85 339.75 3651.69 334.338C3609.74 329.985 3566.83 326.673 3522.74 324.949C3490.54 323.692 3458.03 323.556 3425.8 324.286C3375.01 325.437 3325.86 329.072 3278.04 334.393C3232.6 339.447 3188.76 345.535 3145.87 352.238C3094.84 360.213 3044.65 368.659 2993.33 376.47C2946.24 383.638 2898.32 390.219 2847.81 394.955C2808.85 398.607 2769.2 401.127 2728.28 401.953C2711.09 402.3 2693.94 402.659 2676.84 402.375C2634.49 401.671 2592.86 399.581 2552.02 396.064C2501.94 391.751 2454 385.803 2406.9 379.208C2356.93 372.213 2307.22 365.057 2257.03 358.205C2209.72 351.744 2161.25 346.15 2110.43 342.629C2084.77 340.852 2058.81 339.738 2032.47 339.057C1961.51 337.219 1894.25 341.685 1828.86 349.294C1772.06 355.902 1719.18 364.881 1667.12 374.287C1610.33 384.549 1554.68 395.392 1496.54 404.971C1435.41 415.041 1372.18 423.614 1303.39 427.961C1263.63 430.473 1223.36 431.279 1183.05 430.36C1123.66 429.009 1066.9 424.171 1011.77 417.516C946.067 409.583 883.28 399.799 819.659 390.533C775.076 384.04 729.822 377.99 682.448 373.512C644.294 369.906 605.479 367.433 565.428 366.396C495.864 364.593 429.463 368.464 364.799 375.639C311.821 381.516 262.05 389.425 212.954 397.757C147.253 408.907 83.1207 420.919 14.5752 430.524C9.9287 431.175 5.58969 432.154 0 431.974V0H6000V302.265Z" fill="#0079D0"/>
</svg>
