<svg width="6000" height="398" viewBox="0 0 6000 398" fill="none" xmlns="http://www.w3.org/2000/svg">
<path d="M4906.38 0.608978C4977.92 -1.72856 5047.28 2.87734 5115.75 10.7594C5171.26 17.1492 5224.88 25.8252 5278.42 34.5748C5328.22 42.7145 5377.9 50.9798 5428.77 57.9684C5480.46 65.07 5533.08 70.4644 5587.11 73.2691C5625.69 75.2712 5664.6 75.3878 5703.24 74.231C5766.43 72.3402 5827.79 66.3285 5887.97 58.2018C5921.79 53.636 5955.26 48.6536 5988.59 43.5299C5991.96 43.0127 5995.16 42.3173 5998.44 41.7037C5998.84 41.991 5999.23 42.2768 5999.62 42.5641C5999.99 102.888 5999.7 163.211 5999.77 223.535C5999.78 224.299 5999.78 225.063 5999.78 225.828H6000V397.821H4.67188C3.19706 397.974 1.65337 398.043 0 397.969V133.236C20.8695 130.326 40.7068 126.397 60.7324 122.649C112.871 112.891 162.811 101.313 214.076 90.8336C257.836 81.8893 302.037 73.3602 348.442 67.0074C389.124 61.437 430.59 57.6828 473.565 56.3092C527.784 54.576 580.311 57.6867 632.008 63.9078C691.841 71.1077 747.301 82.5437 801.862 94.8043C869.673 110.042 935.261 126.967 1004.7 140.959C1052.98 150.687 1102.73 158.8 1155.46 163.427C1198.37 167.192 1241.55 168.071 1285.26 166.327C1344.06 163.978 1399.09 156.415 1452.68 146.549C1504.66 136.979 1553.93 125.307 1603.12 113.562C1648.14 102.809 1692.96 91.892 1739.4 82.2174C1787.69 72.1572 1837.39 63.4764 1890.18 58.2711C1914.65 55.8594 1939.45 54.3576 1964.57 53.4029C2026.9 51.0357 2087.07 55.24 2146.47 62.5455C2196.43 68.6906 2243.98 77.3436 2291.04 86.4732C2338.83 95.7437 2385.96 105.583 2434.15 114.504C2493.05 125.411 2553.39 134.574 2617.35 138.831C2654.87 141.328 2692.64 141.891 2730.74 140.451C2792.35 138.121 2850.35 130.698 2906.82 120.647C2967.19 109.903 3024.06 96.3855 3081.18 83.0572C3141.79 68.9151 3202.48 54.8247 3267.03 43.8951C3315.29 35.722 3365.04 29.7106 3416.82 26.8893C3449.82 25.0911 3483.1 25.0169 3516.16 25.9957C3559.26 27.2692 3601.38 31.1396 3642.83 36.2447C3705.03 43.9062 3764.48 54.5298 3824.12 64.9459C3893 76.9766 3962.12 88.6811 4035.19 95.818C4089.72 101.144 4145.01 102.827 4200.61 101.114C4258.69 99.3231 4314.57 93.0209 4369.02 84.5309C4411.71 77.8741 4452.95 69.8747 4494.08 61.735C4543.87 51.8824 4592.65 41.177 4642.93 31.7545C4697.63 21.5071 4753.24 12.2983 4811.86 6.59628C4842.96 3.57101 4874.41 1.65263 4906.38 0.608978Z" fill="#F5B000"/>
</svg>
