<svg width="32768" height="2487" viewBox="0 0 32768 2487" fill="none" xmlns="http://www.w3.org/2000/svg">
<path d="M7173.59 51.3409C6504.37 -59.2876 5986.02 -45.2252 5240.77 653.159C5168.02 721.336 5107.17 782.857 5056.59 838.373C4733.2 1041.51 4182.14 1364.01 3632.2 1413.9C3026.61 1468.79 2423.06 1193.84 1817.47 1071C1212.55 948.161 606.277 977.434 303.138 992.593L0 1007.23V2485.9C0.00943485 2487.04 290.916 2486.52 314.33 2486.52H5142.07C5227.94 2486.79 5382.96 2486.52 5399.79 2486.52H6586.26C6671.06 2486.78 6821.8 2486.53 6842.22 2486.52H10535.1L10535.1 2486.52H11670.8C11756.7 2486.79 11911.7 2486.52 11928.5 2486.52H13347.9C13368.3 2486.53 13519.1 2486.78 13603.9 2486.52H17063.8L17063.8 2486.52H19163.8C19249.8 2486.79 19404.1 2486.52 19420.9 2486.52H19875.8L19934.8 2486.58C19991.9 2486.64 20076.9 2486.69 20132.9 2486.52H24248.6C24334.5 2486.79 24489.5 2486.52 24506.4 2486.52H29641.7L29641.7 2486.52H32453.7C32477.1 2486.52 32768 2487.04 32768 2485.9V1007.23L32464.9 992.593C32161.7 977.434 31555.4 948.161 30950.5 1071C30344.9 1193.84 29741.4 1468.79 29135.8 1413.9C28530.9 1359.02 27924.6 974.298 27621.5 781.415L27323.4 592.295C27107.1 443.909 26582.5 101.318 26280.2 51.3409C25610.9 -59.2876 25092.6 -45.2252 24347.3 653.159C24274.6 721.336 24213.7 782.857 24163.2 838.373C23839.8 1041.51 23288.7 1364.01 22738.8 1413.9C22133.2 1468.79 21529.6 1193.84 20924 1071C20451.2 974.973 19977.4 971.902 19648.4 982.378C19319.3 971.902 18845.6 974.973 18372.7 1071C17767.1 1193.84 17163.5 1468.79 16557.9 1413.9C15953 1359.02 15346.7 974.298 15043.6 781.415L14745.6 592.295C14529.3 443.909 14004.6 101.318 13702.3 51.3409C13033.1 -59.2876 12514.7 -45.2252 11769.5 653.159C11696.7 721.336 11635.9 782.857 11585.3 838.373C11261.9 1041.51 10710.9 1364.01 10160.9 1413.9C10139 1415.89 10117 1417.45 10095.1 1418.59C10073.1 1417.45 10051.2 1415.89 10029.2 1413.9C9424.31 1359.02 8818.03 974.298 8514.89 781.415L8216.86 592.295C8000.56 443.909 7475.92 101.318 7173.59 51.3409Z" fill="#0059C9"/>
</svg>
