<svg width="1100" height="421" viewBox="0 0 1100 421" fill="none" xmlns="http://www.w3.org/2000/svg">
<path d="M120.388 247.964L154.702 143.719L126.454 70.5469L60.5859 247.964H120.388Z" fill="white"/>
<path d="M148.722 191.171L136.463 228.416L196.951 228.401L204.934 247.951H266.616L193.653 62.0703H133.516L182.894 191.171H148.722Z" fill="white"/>
<path d="M445.208 62.0703H285.508V102.398H445.208V62.0703Z" fill="white"/>
<path d="M397.198 112.773H333.867V247.971H397.198V112.773Z" fill="white"/>
<path d="M593.777 208.256H575.101V100.793H593.777V62.0703H494.453V101.019H513.584V208.716H494.453V247.951H593.777V208.256Z" fill="white"/>
<path d="M758.53 247.951L694.625 62.0703H631.406L698.386 247.951H758.53Z" fill="white"/>
<path d="M829.93 62.0703H767.741L738.008 160.678L766.607 244.13L829.93 62.0703Z" fill="white"/>
<path d="M924.249 144.793L896.911 70.2344L831.641 247.945H890.763L924.249 144.793Z" fill="white"/>
<path d="M919.432 191.397L906.785 228.68L967.959 229.026L975.137 247.951H1036.98L964.199 62.0703H903.711L953.261 191.057L919.432 191.397Z" fill="white"/>
<path d="M60.2344 372.222H77.0967V419.514H97.824V372.976H114.231V358.242H60.2344V372.222Z" fill="white"/>
<path d="M403.646 383.324H383.941V358.477H363.438L363.773 420.494H384.165V410.132V395.405H403.646V383.324Z" fill="white"/>
<path d="M387.227 370.897H400.328V376.195H418.899V358.477H387.227V370.897Z" fill="white"/>
<path d="M397.254 408.093H387.227V420.52H418.899V401.875H397.254V408.093Z" fill="white"/>
<path d="M706.496 407.482H693.081L689.775 410.933V368.013L694.162 371.005H706.294V383.372H726.686V371.005L714.352 358.555L680.523 358.984L668.906 370.719V408.514L680.523 420.248H715.554L726.999 409.547V398.852L706.496 398.679V407.482Z" fill="white"/>
<path d="M977.344 359.18V420.278H998.183L997.728 359.18H977.344Z" fill="white"/>
<path d="M1016.42 382.226L1001.95 382.339V395.912H1016.65V420.308H1037.04V358.75H1016.42V382.226Z" fill="white"/>
<path d="M1085.03 0H0V311.092H1099.24V0H1085.03ZM1085.03 296.735H14.2136V14.357H1085.03V296.742V296.735Z" fill="white"/>
</svg>
